SplineFontDB: 3.0
FontName: Tuffy
FullName: Tuffy Regular
FamilyName: Tuffy
Weight: Regular
Copyright: Created by Thatcher Ulrich (http://tulrich.com), Karoly Barta and Michael Everson with FontForge (http://fontforge.sf.net)\n\nLicensed under SIL OFL v1.1 (see LICENSE.txt)\n
FontLog: "2010-08-20: Merged accented and extended characters from Karoly Barta and Michael Everson.+AAoA-2004-9-1: Created." 
Version: 001.270
ItalicAngle: 0
UnderlinePosition: -100
UnderlineWidth: 50
Ascent: 1597
Descent: 451
LayerCount: 2
Layer: 0 0 "Back"  1
Layer: 1 0 "Fore"  0
XUID: [1021 745 1046372284 8037501]
FSType: 0
OS2Version: 0
OS2_WeightWidthSlopeOnly: 0
OS2_UseTypoMetrics: 0
CreationTime: 1166531129
ModificationTime: 1314198286
PfmFamily: 33
TTFWeight: 500
TTFWidth: 5
LineGap: 93
VLineGap: 0
Panose: 2 11 6 3 6 1 0 0 0 0
OS2TypoAscent: 0
OS2TypoAOffset: 1
OS2TypoDescent: 0
OS2TypoDOffset: 1
OS2TypoLinegap: 0
OS2WinAscent: 0
OS2WinAOffset: 1
OS2WinDescent: 0
OS2WinDOffset: 1
HheadAscent: 0
HheadAOffset: 1
HheadDescent: 0
HheadDOffset: 1
OS2SubXSize: 0
OS2SubYSize: 2
OS2SubXOff: -16560
OS2SubYOff: 0
OS2SupXSize: -25944
OS2SupYSize: -27176
OS2SupXOff: -16376
OS2SupYOff: 1
OS2StrikeYSize: 12312
OS2StrikeYPos: -16224
OS2Vendor: 'PfEd'
Lookup: 4 0 1 "Tuffy-Regular-'liga' Standard Ligatures Hungarian"  {"Tuffy-Regular-'liga' Standard Ligatures lookup 4-1"  } ['liga' ('latn' <'HUN ' > ) ]
Lookup: 1 0 0 "Tuffy-Regular-'locl' Localized Forms Romanian"  {"Tuffy-Regular-'locl' Localized Forms in Latin lookup 2-1"  } ['locl' ('DFLT' <'MOL ' 'ROM ' 'dflt' > 'latn' <'MOL ' 'ROM ' 'dflt' > ) ]
Lookup: 4 0 0 "Tuffy-Regular-'frac' Diagonal Fractions lookup 2"  {"Tuffy-Regular-'frac' Diagonal Fractions lookup 2-2"  } ['frac' ('DFLT' <'dflt' > 'grek' <'dflt' > 'latn' <'dflt' > ) ]
Lookup: 4 0 1 "Tuffy-Regular-'liga' Standard Ligatures lookup 1"  {"Tuffy-Regular-'liga' Standard Ligatures lookup 1-1"  } ['liga' ('DFLT' <'dflt' > 'latn' <'dflt' > ) ]

StartChar: exclam
Encoding: 33 33 1
Width: 421
Flags: HMW
LayerCount: 2
Fore
SplineSet
281 440 m 1
 281 406 252 381 223 381 c 1
 191 382 164 406 164 440 c 1
 123 1389 l 1
 123 1442 170 1483 221 1483 c 1
 274 1483 322 1440 322 1391 c 1
 281 440 l 1
EndSplineSet
Refer: 14 46 N 1 0 0 1 0 0 2
EndChar

StartChar: quotedbl
Encoding: 34 34 2
Width: 690
Flags: HMW
LayerCount: 2
Fore
SplineSet
442 1092 m 1
 422 1466 l 1
 422 1516 458 1542 494 1542 c 0
 495 1542 496 1542 498 1542 c 0
 530 1542 561 1524 569 1486 c 0
 571 1480 571 1473 571 1466 c 1
 551 1092 l 1
 549 1061 520 1044 496 1044 c 0
 473 1044 449 1056 444 1083 c 0
 443 1086 443 1089 442 1092 c 1
150 1092 m 1
 129 1466 l 1
 129 1516 165 1542 201 1542 c 0
 202 1542 203 1542 205 1542 c 0
 237 1542 268 1524 277 1486 c 0
 278 1480 279 1473 279 1466 c 1
 258 1092 l 1
 256 1061 227 1044 203 1044 c 0
 180 1044 156 1056 151 1083 c 0
 150 1086 150 1089 150 1092 c 1
EndSplineSet
EndChar

StartChar: numbersign
Encoding: 35 35 3
Width: 1589
Flags: HMW
LayerCount: 2
Fore
SplineSet
969 547 m 0
 969 885 l 0
 627 885 l 0
 627 547 l 0
 969 547 l 0
1118 406 m 0
 1118 53 l 1
 969 53 l 1
 969 406 l 0
 627 406 l 0
 627 53 l 1
 477 53 l 1
 477 406 l 0
 129 406 l 1
 129 547 l 1
 477 547 l 0
 477 885 l 0
 129 885 l 1
 129 1024 l 1
 477 1024 l 0
 477 1403 l 1
 627 1403 l 1
 627 1024 l 0
 969 1024 l 0
 969 1403 l 1
 1118 1403 l 1
 1118 1024 l 0
 1479 1024 l 1
 1479 885 l 1
 1118 885 l 0
 1118 547 l 0
 1479 547 l 1
 1479 406 l 1
 1118 406 l 0
EndSplineSet
EndChar

StartChar: dollar
Encoding: 36 36 4
Width: 1017
Flags: HMW
LayerCount: 2
Back
SplineSet
434.176 1495.04 m 1
 581.632 1495.04 l 1
 581.632 -114.688 l 1
 434.176 -114.688 l 1
 434.176 1495.04 l 1
24.5762 266.24 m 1
 159.744 346.112 l 1
 249.856 206.848 321.538 112.64 507.906 112.64 c 1
 690.178 112.64 811.008 219.136 811.008 376.832 c 1
 811.008 565.248 632.037 623.215 454.656 671.744 c 0
 299.418 714.216 92.1602 780.288 83.9678 1034.24 c 0
 76.0439 1279.87 274.432 1413.12 507.904 1413.12 c 1
 747.521 1413.12 841.729 1306.62 935.934 1167.36 c 1
 811.008 1087.49 l 1
 751.616 1189.89 667.648 1271.81 507.904 1271.81 c 1
 354.304 1271.81 245.76 1198.08 245.76 1034.24 c 0
 245.76 843.776 419.396 838.961 565.246 782.336 c 0
 751.104 710.183 974.848 673.792 972.8 376.832 c 0
 971.078 126.982 778.24 -26.624 507.904 -28.6719 c 1
 284.672 -26.624 157.696 57.3438 24.5762 266.24 c 1
EndSplineSet
Fore
SplineSet
453 1537 m 1
 582 1537 l 1
 582 1411 l 1
 735 1399 848 1305 936 1168 c 1
 811 1088 l 1
 770 1165 690 1249 582 1264 c 1
 582 775 l 1
 771 703 973 659 973 383 c 0
 973 168 825 0 582 -26 c 1
 582 -155 l 1
 455 -155 l 1
 455 -26 l 1
 233 -8 135 94 25 266 c 1
 160 346 l 1
 230 237 299 133 455 117 c 1
 455 672 l 1
 252 721 84 813 84 1051 c 0
 84 1264 252 1397 453 1409 c 1
 453 1537 l 1
455 817 m 1
 455 1270 l 1
 334 1255 246 1174 246 1051 c 0
 246 895 334 848 455 817 c 1
582 630 m 1
 582 119 l 1
 727 143 811 242 811 383 c 0
 811 492 739 582 582 630 c 1
EndSplineSet
EndChar

StartChar: percent
Encoding: 37 37 5
Width: 1402
Flags: HMW
LayerCount: 2
Fore
SplineSet
891 373 m 0
 891 359 892 346 895 334 c 0
 909 267 960 219 1032 219 c 0
 1112 219 1180 283 1180 373 c 0
 1180 383 1179 394 1176 404 c 0
 1162 470 1105 522 1032 522 c 0
 954 522 891 453 891 373 c 0
762 373 m 0
 762 522 883 643 1034 643 c 0
 1166 643 1277 551 1303 429 c 0
 1307 411 1309 392 1309 373 c 0
 1309 223 1186 104 1034 104 c 0
 902 104 794 194 768 316 c 0
 764 335 762 353 762 373 c 0
231 1077 m 0
 231 1064 233 1051 235 1039 c 0
 250 972 302 924 375 924 c 0
 455 924 522 987 522 1077 c 0
 522 1088 521 1098 519 1109 c 0
 505 1174 448 1227 375 1227 c 0
 297 1227 231 1157 231 1077 c 0
104 1077 m 0
 104 1227 225 1348 377 1348 c 0
 509 1348 619 1256 645 1133 c 0
 649 1115 651 1096 651 1077 c 0
 651 928 528 809 377 809 c 0
 245 809 136 899 110 1021 c 0
 106 1039 104 1058 104 1077 c 0
424 137 m 1
 274 137 l 1
 995 1319 l 0
 1139 1319 l 1
 424 137 l 1
EndSplineSet
EndChar

StartChar: ampersand
Encoding: 38 38 6
Width: 1241
Flags: HMW
LayerCount: 2
Back
SplineSet
1026.05 251.904 m 13xd0
 870.4 299.008 l 21
 819.198 188.416 700.414 112.64 591.87 112.64 c 5
 413.696 112.64 260.096 229.376 260.096 423.936 c 4xd0
 260.096 624.64 428.585 731.136 587.776 731.136 c 6
 665.6 731.136 l 5
 665.6 856.064 l 5
 567.296 856.064 l 4
 442.368 856.064 327.68 962.561 327.68 1116.16 c 4
 327.68 1253.38 446.464 1357.82 569.344 1357.82 c 6
 575.488 1357.82 l 4
 686.08 1357.82 768 1294.34 808.958 1200.13 c 13
 946.176 1263.62 l 21
 876.544 1400.83 737.28 1497.09 569.344 1497.09 c 4
 368.64 1497.09 169.984 1343.49 169.984 1116.16 c 4xe0
 169.984 940.032 284.672 829.44 352.256 794.624 c 5
 256.739 765.747 102.4 622.592 102.4 423.936 c 4
 102.4 159.744 317.44 -28.6719 591.872 -28.6719 c 5
 747.521 -28.6719 948.224 71.6797 1026.05 251.904 c 13xd0
EndSplineSet
Fore
SplineSet
811 1200 m 17
 764 1292 702 1352 567 1352 c 1
 438 1352 330 1260 330 1120 c 0
 330 973 453 877 567 877 c 2
 668 877 l 1
 668 735 l 1
 571 735 l 2
 385 735 258 631 258 430 c 0
 258 227 414 113 561 113 c 0
 731 113 852 256 852 408 c 1
 657 408 l 1
 657 547 l 1
 1159 547 l 1
 1159 406 l 1
 1018 406 l 1
 1018 238 879 -29 561 -29 c 0
 319 -29 100 172 100 430 c 0
 100 655 264 791 365 813 c 1
 268 854 172 952 172 1120 c 0
 172 1309 326 1493 567 1493 c 0
 752 1493 883 1389 946 1266 c 9
 811 1200 l 17
EndSplineSet
EndChar

StartChar: quotesingle
Encoding: 39 39 7
Width: 382
Flags: HMW
LayerCount: 2
Fore
SplineSet
150 1092 m 1
 129 1466 l 1
 129 1516 165 1542 201 1542 c 0
 202 1542 203 1542 205 1542 c 0
 237 1542 268 1524 277 1486 c 0
 278 1480 279 1473 279 1466 c 1
 258 1092 l 1
 256 1061 227 1044 203 1044 c 0
 180 1044 156 1056 151 1083 c 0
 150 1086 150 1089 150 1092 c 1
EndSplineSet
EndChar

StartChar: parenleft
Encoding: 40 40 8
Width: 548
Flags: HMW
LayerCount: 2
Fore
SplineSet
279 -84 m 1
 138 132 41 422 41 739 c 0
 41 997 121 1303 279 1550 c 1
 457 1550 l 1
 272 1282 193 997 193 729 c 0
 193 426 311 128 457 -84 c 1
 279 -84 l 1
EndSplineSet
EndChar

StartChar: parenright
Encoding: 41 41 9
Width: 536
Flags: HMW
LayerCount: 2
Fore
SplineSet
266 -84 m 1
 90 -84 l 1
 262 168 354 465 354 727 c 0
 354 1015 238 1333 90 1550 c 1
 266 1550 l 1
 400 1340 506 1032 506 727 c 0
 506 453 428 164 266 -84 c 1
EndSplineSet
EndChar

StartChar: asterisk
Encoding: 42 42 10
Width: 913
Flags: HMW
LayerCount: 2
Fore
SplineSet
462 518 m 1
 349 294 l 2
 340 275 318 254 287 254 c 0
 274 254 260 257 245 266 c 0
 221 280 207 303 207 328 c 0
 207 341 211 355 219 369 c 2
 354 576 l 1
 109 562 l 2
 80 562 33 577 33 638 c 0
 33 681 63 712 109 712 c 2
 357 698 l 1
 221 906 l 2
 215 917 209 932 209 948 c 0
 209 969 219 992 249 1009 c 0
 262 1017 276 1021 289 1021 c 0
 314 1021 338 1007 351 981 c 2
 462 762 l 1
 571 979 l 2
 584 1005 608 1019 633 1019 c 0
 646 1019 660 1015 673 1007 c 0
 703 990 713 967 713 946 c 0
 713 930 707 915 701 904 c 2
 566 698 l 1
 813 712 l 2
 859 712 889 681 889 638 c 0
 889 577 842 562 813 562 c 2
 569 576 l 1
 703 371 l 2
 711 357 715 343 715 330 c 0
 715 305 701 282 677 268 c 0
 662 259 648 256 635 256 c 0
 604 256 582 277 573 296 c 2
 462 518 l 1
EndSplineSet
EndChar

StartChar: plus
Encoding: 43 43 11
Width: 894
Flags: HMW
LayerCount: 2
Fore
SplineSet
78 711 m 1
 385 711 l 1
 385 1022 l 1
 526 1022 l 1
 526 711 l 1
 834 711 l 1
 834 569 l 1
 526 569 l 1
 526 258 l 1
 385 258 l 1
 385 569 l 1
 78 569 l 1
 78 711 l 1
EndSplineSet
EndChar

StartChar: comma
Encoding: 44 44 12
Width: 399
Flags: HMW
LayerCount: 2
Fore
SplineSet
318 94 m 1
 318 -63 217 -186 195 -221 c 1
 139 -190 l 1
 160 -160 211 -84 211 -12 c 0
 159 -12 116 23 106 72 c 0
 104 79 103 87 103 94 c 0
 103 154 152 202 211 202 c 0
 263 202 306 165 316 117 c 0
 318 109 318 102 318 94 c 1
EndSplineSet
EndChar

StartChar: hyphen
Encoding: 45 45 13
Width: 866
Flags: HMW
LayerCount: 2
Fore
SplineSet
109 705 m 1
 786 705 l 1
 786 563 l 1
 109 563 l 1
 109 705 l 1
EndSplineSet
EndChar

StartChar: period
Encoding: 46 46 14
Width: 405
Flags: HMW
LayerCount: 2
Back
SplineSet
55.5117 138.778 m 4
 55.5117 215.382 117.684 277.556 194.288 277.556 c 4
 270.894 277.556 333.066 215.382 333.066 138.778 c 4
 333.066 62.1719 270.894 0 194.288 0 c 4
 117.684 0 55.5117 62.1719 55.5117 138.778 c 4
EndSplineSet
Fore
SplineSet
103 94 m 0
 103 154 152 202 211 202 c 0
 263 202 306 165 316 117 c 0
 318 109 318 102 318 94 c 0
 318 35 270 -13 211 -13 c 0
 159 -13 116 23 106 72 c 0
 104 79 103 87 103 94 c 0
EndSplineSet
EndChar

StartChar: slash
Encoding: 47 47 15
Width: 808
Flags: HMW
LayerCount: 2
Fore
SplineSet
135 0 m 1
 -23 0 l 1
 694 1544 l 0
 852 1544 l 1
 135 0 l 1
EndSplineSet
EndChar

StartChar: zero
Encoding: 48 48 16
Width: 1136
Flags: HMW
LayerCount: 2
Fore
SplineSet
100 727 m 1
 100 1137 279 1493 582 1493 c 1
 811 1493 961 1288 1020 1011 c 0
 1039 922 1049 826 1049 727 c 1
 1049 319 877 -29 573 -29 c 1
 341 -29 187 175 128 454 c 0
 110 539 100 632 100 727 c 1
258 727 m 1
 258 644 266 555 284 472 c 0
 326 277 418 113 573 113 c 1
 797 113 891 449 891 727 c 1
 891 816 882 911 863 999 c 0
 823 1191 734 1352 582 1352 c 1
 360 1352 258 1008 258 727 c 1
EndSplineSet
EndChar

StartChar: one
Encoding: 49 49 17
Width: 1136
Flags: HMW
LayerCount: 2
Fore
SplineSet
582 1206 m 1
 424 1206 l 1
 647 1456 l 1
 739 1456 l 1
 739 0 l 1
 582 0 l 1
 582 1206 l 1
EndSplineSet
EndChar

StartChar: two
Encoding: 50 50 18
Width: 1136
Flags: HMW
LayerCount: 2
Back
SplineSet
111.81 1007.74 m 4
 111.81 1276.45 310.762 1494.53 555.898 1494.53 c 4
 801.036 1494.53 999.987 1276.45 999.987 1007.74 c 4
 999.987 739.031 801.036 520.95 555.898 520.95 c 4
 310.762 520.95 111.81 739.031 111.81 1007.74 c 4
338.125 1007.74 m 4
 338.125 1163.31 435.688 1289.56 555.898 1289.56 c 4
 676.11 1289.56 773.673 1163.31 773.673 1007.74 c 4
 773.673 852.173 676.11 725.914 555.898 725.914 c 4
 435.688 725.914 338.125 852.173 338.125 1007.74 c 4
EndSplineSet
Fore
SplineSet
262 1110 m 9
 123 1165 l 17
 174 1348 367 1495 569 1495 c 0
 780 1495 989 1360 989 1053 c 0
 989 772 689 610 592 541 c 0
 489 467 293 274 293 141 c 1
 1016 141 l 17
 1016 0 l 1
 109 0 l 1
 109 326 334 528 545 676 c 0
 652 751 836 850 836 1053 c 0
 836 1249 702 1354 569 1354 c 0
 442 1354 313 1272 262 1110 c 9
EndSplineSet
EndChar

StartChar: three
Encoding: 51 51 19
Width: 1126
Flags: HMW
LayerCount: 2
Back
SplineSet
25.6201 1076.06 m 4
 25.6201 1321.2 224.571 1494.53 469.709 1494.53 c 4
 714.847 1494.53 913.797 1321.2 913.797 1076.06 c 4
 913.797 830.925 714.847 657.593 469.709 657.593 c 4
 224.571 657.593 25.6201 830.925 25.6201 1076.06 c 4
226.314 1076.06 m 4
 226.314 1210.41 335.355 1293.83 469.709 1293.83 c 4
 604.062 1293.83 713.104 1210.41 713.104 1076.06 c 4
 713.104 941.705 604.062 858.286 469.709 858.286 c 4
 335.355 858.286 226.314 941.705 226.314 1076.06 c 4
469.709 1076.06 m 29
23.4863 414.198 m 4
 23.4863 659.333 222.436 858.286 467.575 858.286 c 4
 712.71 858.286 911.661 659.333 911.661 414.198 c 4
 911.661 169.06 712.71 -29.8896 467.575 -29.8896 c 4
 222.438 -29.8896 23.4863 169.06 23.4863 414.198 c 4
224.181 414.198 m 4
 224.181 548.553 333.22 657.593 467.575 657.593 c 4
 601.928 657.593 710.968 548.553 710.968 414.198 c 4
 710.968 279.845 601.928 170.804 467.575 170.804 c 4
 333.22 170.804 224.181 279.845 224.181 414.198 c 4
467.575 414.198 m 29
EndSplineSet
Fore
SplineSet
113 252 m 9
 268 299 l 17
 319 188 438 113 547 113 c 1
 725 113 879 229 879 424 c 0
 879 625 710 731 551 731 c 2
 473 731 l 1
 473 856 l 1
 571 856 l 0
 696 856 811 963 811 1116 c 0
 811 1253 692 1358 569 1358 c 2
 563 1358 l 0
 453 1358 371 1294 330 1200 c 9
 193 1264 l 17
 262 1401 401 1497 569 1497 c 0
 770 1497 969 1343 969 1116 c 0
 969 940 854 829 786 795 c 1
 882 766 1036 623 1036 424 c 0
 1036 160 821 -29 547 -29 c 1
 391 -29 190 72 113 252 c 9
EndSplineSet
EndChar

StartChar: four
Encoding: 52 52 20
Width: 1136
Flags: HMW
LayerCount: 2
Fore
SplineSet
864 1445 m 1
 864 537 l 9
 1053 537 l 17
 1053 397 l 1
 864 397 l 1
 864 0 l 1
 707 0 l 1
 707 397 l 1
 88 397 l 9
 694 1456 l 1
 707 1456 l 1
 864 1456 l 1
 864 1445 l 1
711 1221 m 1
 324 539 l 1
 711 539 l 1
 711 1221 l 1
EndSplineSet
EndChar

StartChar: five
Encoding: 53 53 21
Width: 1136
Flags: HMW
LayerCount: 2
Back
SplineSet
224.181 1131.57 m 4
 224.181 1331.92 388.696 1494.53 591.405 1494.53 c 4
 794.116 1494.53 958.632 1331.92 958.632 1131.57 c 4
 958.632 931.22 794.116 768.614 591.405 768.614 c 4
 388.696 768.614 224.181 931.22 224.181 1131.57 c 4
145.182 414.198 m 4
 145.182 659.333 344.134 858.286 589.271 858.286 c 4
 834.408 858.286 1033.36 659.333 1033.36 414.198 c 4
 1033.36 169.06 834.408 -29.8896 589.271 -29.8896 c 4
 344.134 -29.8896 145.182 169.06 145.182 414.198 c 4
345.877 414.198 m 4
 345.877 548.553 454.918 657.593 589.271 657.593 c 4
 723.624 657.593 832.666 548.553 832.666 414.198 c 4
 832.666 279.845 723.624 170.804 589.271 170.804 c 4
 454.918 170.804 345.877 279.845 345.877 414.198 c 4
589.271 414.198 m 29
EndSplineSet
Fore
SplineSet
604 807 m 1
 444 807 375 735 344 711 c 1
 199 786 l 9
 293 1456 l 1
 965 1456 l 1
 965 1315 l 1
 424 1315 l 1
 358 887 l 1
 416 922 492 942 604 942 c 1
 821 942 989 802 1036 584 c 0
 1044 545 1049 503 1049 459 c 1
 1049 201 877 -29 598 -29 c 1
 367 -29 195 119 135 330 c 9
 291 358 l 17
 326 256 401 113 598 113 c 1
 774 113 893 254 893 461 c 1
 893 490 890 518 884 544 c 0
 852 697 733 807 604 807 c 1
EndSplineSet
EndChar

StartChar: six
Encoding: 54 54 22
Width: 1136
Flags: HMW
LayerCount: 2
Back
SplineSet
199.348 1131.57 m 4
 199.348 1331.92 363.864 1494.53 566.573 1494.53 c 4
 769.284 1494.53 933.8 1331.92 933.8 1131.57 c 4
 933.8 931.22 769.284 768.614 566.573 768.614 c 4
 363.864 768.614 199.348 931.22 199.348 1131.57 c 4
120.35 414.198 m 4
 120.35 659.333 319.302 858.286 564.439 858.286 c 4
 809.576 858.286 1008.53 659.333 1008.53 414.198 c 4
 1008.53 169.06 809.576 -29.8896 564.439 -29.8896 c 4
 319.302 -29.8896 120.35 169.06 120.35 414.198 c 4
321.045 414.198 m 4
 321.045 548.553 430.086 657.593 564.439 657.593 c 4
 698.792 657.593 807.834 548.553 807.834 414.198 c 4
 807.834 279.845 698.792 170.804 564.439 170.804 c 4
 430.086 170.804 321.045 279.845 321.045 414.198 c 4
564.439 414.198 m 29
EndSplineSet
Fore
SplineSet
879 408 m 1
 879 429 876 450 872 471 c 0
 844 604 728 709 573 709 c 1
 395 709 279 561 279 412 c 1
 279 390 281 369 285 349 c 0
 314 212 436 121 575 121 c 1
 760 121 879 266 879 408 c 1
436 827 m 1
 481 846 514 858 573 858 c 0
 789 858 974 709 1018 502 c 0
 1025 472 1028 440 1028 408 c 1
 1028 201 850 -29 571 -29 c 1
 341 -29 178 137 138 323 c 0
 132 351 129 381 129 410 c 1
 129 614 250 784 297 870 c 1
 631 1454 l 9
 786 1454 l 17
 436 827 l 1
EndSplineSet
EndChar

StartChar: seven
Encoding: 55 55 23
Width: 1136
Flags: HMW
LayerCount: 2
Fore
SplineSet
1079 1456 m 1
 524 0 l 1
 342 0 l 1
 858 1307 l 1
 111 1307 l 1
 111 1456 l 1
 1079 1456 l 1
EndSplineSet
EndChar

StartChar: eight
Encoding: 56 56 24
Width: 1136
Flags: HMW
LayerCount: 2
Back
SplineSet
136.642 1076.06 m 4
 136.642 1321.2 335.594 1494.53 580.73 1494.53 c 4
 825.868 1494.53 1024.82 1321.2 1024.82 1076.06 c 4
 1024.82 830.925 825.868 657.593 580.73 657.593 c 4
 335.594 657.593 136.642 830.925 136.642 1076.06 c 4
337.336 1076.06 m 4
 337.336 1210.41 446.378 1293.83 580.73 1293.83 c 4
 715.084 1293.83 824.125 1210.41 824.125 1076.06 c 4
 824.125 941.705 715.084 858.286 580.73 858.286 c 4
 446.378 858.286 337.336 941.705 337.336 1076.06 c 4
580.73 1076.06 m 29
134.508 414.198 m 4
 134.508 659.333 333.46 858.286 578.597 858.286 c 4
 823.732 858.286 1022.68 659.333 1022.68 414.198 c 4
 1022.68 169.06 823.732 -29.8896 578.597 -29.8896 c 4
 333.46 -29.8896 134.508 169.06 134.508 414.198 c 4
335.202 414.198 m 4
 335.202 548.553 444.242 657.593 578.597 657.593 c 4
 712.95 657.593 821.989 548.553 821.989 414.198 c 4
 821.989 279.845 712.95 170.804 578.597 170.804 c 4
 444.242 170.804 335.202 279.845 335.202 414.198 c 4
578.597 414.198 m 29
EndSplineSet
Fore
SplineSet
582 113 m 0
 764 113 913 256 913 432 c 1
 913 455 911 477 907 498 c 0
 875 648 735 739 586 739 c 1
 406 739 262 627 262 432 c 0
 262 409 265 386 269 364 c 0
 301 216 432 113 582 113 c 0
332 1124 m 1
 332 1103 334 1084 338 1065 c 0
 362 949 460 881 586 881 c 1
 729 881 838 969 838 1124 c 1
 838 1143 836 1161 832 1178 c 0
 810 1282 723 1356 584 1356 c 1
 420 1356 332 1251 332 1124 c 1
584 1497 m 1
 790 1497 950 1375 987 1201 c 0
 993 1177 995 1151 995 1124 c 1
 995 930 870 844 807 807 c 1
 896 766 1029 673 1063 512 c 0
 1068 487 1071 461 1071 432 c 1
 1071 168 844 -29 582 -29 c 1
 353 -29 160 124 114 336 c 0
 108 367 104 399 104 432 c 1
 104 653 264 768 360 807 c 1
 297 844 210 907 183 1037 c 0
 177 1063 174 1092 174 1124 c 1
 174 1335 348 1497 584 1497 c 1
EndSplineSet
EndChar

StartChar: nine
Encoding: 57 57 25
Width: 1136
Flags: HMW
LayerCount: 2
Back
SplineSet
241.089 1054.5 m 5
 241.089 925.477 341.351 811.358 484.653 811.358 c 5
 623.176 811.358 719.424 925.477 719.424 1043.11 c 5
 719.424 1190.22 608.229 1291.96 477.993 1291.96 c 5
 354.16 1291.96 241.089 1194.49 241.089 1054.5 c 5
737.784 716.073 m 5
 678.687 635.109 567.665 606.352 484.653 606.352 c 5
 200.438 606.352 34.5879 844.344 34.5879 1052.6 c 5
 34.5879 1299.11 232.465 1497.67 477.993 1497.67 c 4
 783.305 1497.67 945.572 1233.45 955.165 951.096 c 4
 957.44 884.068 953.269 811.487 943.432 720.511 c 5
EndSplineSet
Fore
SplineSet
293 1053 m 1
 293 1031 295 1010 300 989 c 0
 328 856 444 752 598 752 c 1
 776 752 893 899 893 1049 c 1
 893 1070 891 1091 886 1111 c 0
 857 1248 735 1341 596 1341 c 1
 412 1341 293 1194 293 1053 c 1
735 633 m 1
 690 614 657 602 598 602 c 0
 382 602 197 751 153 958 c 0
 147 988 143 1020 143 1053 c 1
 143 1260 322 1491 600 1491 c 1
 831 1491 994 1323 1033 1138 c 0
 1039 1109 1042 1080 1042 1051 c 1
 1042 846 922 676 874 590 c 1
 550 0 l 9
 382 0 l 17
 735 633 l 1
EndSplineSet
EndChar

StartChar: less
Encoding: 60 60 28
Width: 843
Flags: HMW
LayerCount: 2
Fore
SplineSet
592 23 m 1
 84 635 l 1
 592 1235 l 1
 791 1235 l 1
 281 633 l 1
 791 23 l 1
 592 23 l 1
EndSplineSet
EndChar

StartChar: equal
Encoding: 61 61 29
Width: 907
Flags: HMW
LayerCount: 2
Fore
SplineSet
66 500 m 1
 866 500 l 1
 866 358 l 1
 66 358 l 1
 66 500 l 1
66 866 m 1
 866 866 l 1
 866 725 l 1
 66 725 l 1
 66 866 l 1
EndSplineSet
EndChar

StartChar: greater
Encoding: 62 62 30
Width: 856
Flags: HMW
LayerCount: 2
Fore
SplineSet
291 20 m 1
 92 20 l 1
 600 633 l 1
 92 1235 l 1
 291 1235 l 1
 797 635 l 1
 291 20 l 1
EndSplineSet
EndChar

StartChar: question
Encoding: 63 63 31
Width: 985
Flags: HMW
LayerCount: 2
Back
SplineSet
264.745 1093.14 m 0
 264.745 1199.21 373.787 1289.56 508.14 1289.56 c 4
 642.494 1289.56 751.534 1199.21 751.534 1093.14 c 0
 751.534 987.072 642.494 900.987 508.14 900.987 c 0
 373.787 900.987 264.745 987.072 264.745 1093.14 c 0
51.2402 1093.14 m 0
 51.2402 1314.71 254.018 1494.53 503.869 1494.53 c 0
 753.72 1494.53 956.498 1314.71 956.498 1093.14 c 0
 956.498 871.573 753.72 691.753 503.869 691.753 c 0
 254.018 691.753 51.2402 871.573 51.2402 1093.14 c 0
EndSplineSet
Fore
SplineSet
573 501 m 1
 573 360 l 1
 416 360 l 1
 416 505 l 0
 416 692 545 759 648 852 c 0
 717 914 774 960 774 1094 c 0
 774 1264 657 1356 496 1356 c 0
 322 1356 203 1196 203 1085 c 1
 57 1110 l 1
 82 1327 262 1497 489 1497 c 0
 713 1497 932 1367 932 1098 c 0
 932 956 867 862 796 791 c 0
 693 688 573 668 573 501 c 1
EndSplineSet
Refer: 14 46 N 1 0 0 1 293 0 2
EndChar

StartChar: at
Encoding: 64 64 32
Width: 1624
Flags: HMW
LayerCount: 2
Back
SplineSet
1095.49 730.855 m 4
 1095.49 823.845 1170.96 899.31 1263.94 899.31 c 4
 1356.93 899.31 1432.4 823.845 1432.4 730.855 c 4
 1432.4 637.868 1356.93 562.401 1263.94 562.401 c 4
 1170.96 562.401 1095.49 637.868 1095.49 730.855 c 4
969.309 730.184 m 0
 969.309 892.821 1101.3 1024.82 1263.94 1024.82 c 0
 1426.58 1024.82 1558.58 892.821 1558.58 730.184 c 0
 1558.58 567.544 1426.58 435.548 1263.94 435.548 c 0
 1101.3 435.548 969.309 567.544 969.309 730.184 c 0
581.585 730.654 m 0
 581.585 847.868 677.96 944.243 795.175 944.243 c 0
 912.388 944.243 1008.76 847.868 1008.76 730.654 c 0
 1008.76 613.439 912.388 517.064 795.175 517.064 c 0
 677.96 517.064 581.585 613.439 581.585 730.654 c 0
157.566 730.323 m 0
 157.566 1082.76 441.795 1366.99 794.235 1366.99 c 0
 1146.68 1366.99 1430.91 1082.76 1430.91 730.323 c 0
 1430.91 377.881 1146.68 93.6543 794.235 93.6543 c 0
 441.795 93.6543 157.566 377.881 157.566 730.323 c 0
29.8896 730.184 m 0
 29.8896 1152.92 371.497 1494.53 794.235 1494.53 c 0
 1216.97 1494.53 1558.58 1152.92 1558.58 730.184 c 0
 1558.58 307.445 1216.97 -34.1602 794.235 -34.1602 c 0
 371.497 -34.1602 29.8896 307.445 29.8896 730.184 c 0
452.629 730.184 m 0
 452.629 918.067 606.352 1071.79 794.235 1071.79 c 0
 982.118 1071.79 1135.84 918.067 1135.84 730.184 c 0
 1135.84 542.3 982.118 388.577 794.235 388.577 c 0
 606.352 388.577 452.629 542.3 452.629 730.184 c 0
EndSplineSet
Fore
SplineSet
1176 213 m 1
 1253 111 l 17
 1126 18 973 -35 805 -35 c 0
 436 -35 131 224 58 569 c 0
 47 622 41 676 41 731 c 0
 41 1153 381 1495 805 1495 c 0
 1177 1495 1483 1231 1551 913 c 0
 1560 870 1565 827 1565 782 c 0
 1565 573 1403 418 1284 418 c 0
 1210 418 1122 461 1069 518 c 1
 1010 438 911 389 805 389 c 0
 641 389 503 506 470 660 c 0
 465 683 463 707 463 731 c 0
 463 918 616 1071 805 1071 c 0
 967 1071 1090 951 1121 805 c 0
 1126 781 1128 756 1128 731 c 0
 1128 719 1130 706 1133 693 c 0
 1148 619 1208 547 1278 547 c 0
 1350 547 1436 655 1436 782 c 0
 1436 816 1432 850 1425 884 c 0
 1371 1138 1121 1368 805 1368 c 0
 446 1368 168 1071 168 727 c 0
 168 683 173 639 182 597 c 0
 242 314 493 92 805 92 c 0
 932 92 1079 145 1176 213 c 1
592 731 m 0
 592 715 594 699 597 684 c 0
 618 584 705 516 805 516 c 0
 928 516 1004 614 1004 731 c 0
 1004 745 1002 759 999 772 c 0
 979 866 894 946 805 946 c 0
 694 946 592 850 592 731 c 0
EndSplineSet
EndChar

StartChar: m
Encoding: 109 109 33
Width: 1533
Flags: HMW
LayerCount: 2
Back
SplineSet
280.576 0 m 9
 129.024 0 l 1
 129.024 1073.15 l 1
 280.576 1073.15 l 1
 280.576 870.4 l 17
 335.872 980.992 387.072 1101.82 532.48 1101.82 c 0
 731.136 1101.82 854.014 983.04 854.014 657.408 c 1
 854.016 0 l 1
 702.464 0 l 0
 702.462 657.408 l 1
 702.462 876.544 667.648 964.608 532.482 964.608 c 0
 376.832 964.608 280.576 790.528 280.576 618.496 c 0
 280.576 0 l 9
143.36 1474.56 m 25
 143.36 -53.248 l 25
430.08 1466.37 m 25
 430.08 -61.4404 l 25
286.72 -69.6318 m 25
 286.72 1458.18 l 25
 286.72 -69.6318 l 25
573.44 1470.46 m 25
 573.44 -57.3438 l 25
716.8 1466.37 m 25
 716.8 -61.4404 l 25
860.16 -49.1523 m 25
 860.16 1478.66 l 25
 860.16 -49.1523 l 25
EndSplineSet
Fore
SplineSet
854 0 m 1
 702 0 l 0
 702 547 l 1
 702 762 675 965 499 965 c 0
 324 965 281 765 281 550 c 0
 281 0 l 9
 129 0 l 1
 129 1073 l 1
 281 1073 l 1
 281 891 l 17
 328 992 384 1102 542 1102 c 0
 705 1102 801 990 834 860 c 1
 867 990 966 1102 1119 1102 c 0
 1341 1102 1427 918 1427 653 c 1
 1427 0 l 1
 1276 0 l 0
 1276 543 l 1
 1276 759 1251 958 1076 958 c 0
 900 958 854 765 854 549 c 0
 854 0 l 1
EndSplineSet
EndChar

StartChar: n
Encoding: 110 110 34
Width: 1064
Flags: HMW
LayerCount: 2
Back
SplineSet
280.576 0 m 13
 129.024 0 l 5
 129.024 1073.15 l 5
 280.576 1073.15 l 5
 280.576 892.928 l 21
 313.344 970.752 423.936 1101.82 552.96 1101.82 c 4
 755.516 1101.82 956.429 902.24 956.414 659.456 c 5
 956.416 0 l 5
 804.864 0 l 4
 804.864 661.504 l 6
 804.864 850.59 672.924 964.608 550.912 964.608 c 4
 407.552 964.608 280.574 806.912 280.574 618.496 c 4
 280.576 0 l 13
1003.52 -49.1523 m 25
 1003.52 1478.66 l 25
 1003.52 -49.1523 l 25
143.36 1474.56 m 25
 143.36 -53.248 l 25
430.08 1466.37 m 25
 430.08 -61.4404 l 25
286.72 -69.6318 m 25
 286.72 1458.18 l 25
 286.72 -69.6318 l 25
573.44 1470.46 m 25
 573.44 -57.3438 l 25
716.8 1466.37 m 25
 716.8 -61.4404 l 25
860.16 -49.1523 m 25
 860.16 1478.66 l 25
 860.16 -49.1523 l 25
EndSplineSet
Fore
SplineSet
281 0 m 9
 129 0 l 1
 129 1073 l 1
 281 1073 l 1
 281 892 l 17
 316 1004 428 1102 586 1102 c 0
 800 1102 956 933 956 541 c 2
 956 0 l 1
 805 0 l 0
 805 541 l 1
 805 774 732 965 546 965 c 0
 360 965 281 768 281 540 c 0
 281 0 l 9
EndSplineSet
EndChar

StartChar: o
Encoding: 111 111 35
Width: 1054
Flags: HMW
LayerCount: 2
Back
SplineSet
1003.52 -49.1523 m 29
 1003.52 1478.66 l 29
 1003.52 -49.1523 l 29
143.36 1474.56 m 25
 143.36 -53.248 l 25
430.08 1466.37 m 25
 430.08 -61.4404 l 25
286.72 -69.6318 m 25
 286.72 1458.18 l 25
 286.72 -69.6318 l 25
573.44 1470.46 m 25
 573.44 -57.3438 l 25
716.8 1466.37 m 25
 716.8 -61.4404 l 25
860.16 -49.1523 m 25
 860.16 1478.66 l 25
 860.16 -49.1523 l 25
EndSplineSet
Fore
SplineSet
102 537 m 0
 102 852 252 1094 539 1094 c 0
 824 1094 975 849 975 537 c 0
 975 221 828 -29 539 -29 c 0
 252 -29 102 223 102 537 c 0
256 537 m 0
 256 304 336 106 539 106 c 0
 740 106 821 304 821 537 c 0
 821 768 740 958 539 958 c 0
 336 958 256 768 256 537 c 0
EndSplineSet
EndChar

StartChar: p
Encoding: 112 112 36
Width: 1044
Flags: HMW
LayerCount: 2
Back
SplineSet
280.576 0 m 13
 129.024 0 l 5
 129.024 1073.15 l 5
 280.576 1073.15 l 5
 280.576 870.4 l 21
 335.872 980.992 438.272 1101.82 583.68 1101.82 c 4
 782.336 1101.82 956.414 983.04 956.414 657.408 c 5
 956.416 0 l 5
 804.864 0 l 4
 804.862 657.408 l 5
 804.862 876.544 718.848 964.608 583.682 964.608 c 4
 428.032 964.608 280.576 790.528 280.576 618.496 c 4
 280.576 0 l 13
143.36 1474.56 m 25
 143.36 -53.248 l 25
430.08 1466.37 m 25
 430.08 -61.4404 l 25
286.72 -69.6318 m 25
 286.72 1458.18 l 25
 286.72 -69.6318 l 25
573.44 1470.46 m 25
 573.44 -57.3438 l 25
716.8 1466.37 m 25
 716.8 -61.4404 l 25
860.16 -49.1523 m 25
 860.16 1478.66 l 25
 860.16 -49.1523 l 25
EndSplineSet
Fore
SplineSet
281 1073 m 9
 281 886 l 1
 328 996 408 1102 580 1102 c 0
 860 1102 975 828 975 539 c 0
 975 254 861 -29 578 -29 c 0
 404 -29 328 76 281 184 c 9
 281 -428 l 1
 129 -428 l 1
 129 1073 l 1
 281 1073 l 9
821 539 m 0
 821 816 700 966 552 966 c 0
 404 966 276 812 276 537 c 0
 276 264 404 106 552 106 c 0
 700 106 821 264 821 539 c 0
EndSplineSet
EndChar

StartChar: q
Encoding: 113 113 37
Width: 1048
Flags: HMW
LayerCount: 2
Back
SplineSet
262.144 538.624 m 4
 262.144 322.897 356.633 106.496 509.954 106.496 c 4
 624.643 106.496 806.912 253.952 806.912 538.624 c 4
 806.912 779.053 651.571 956.416 505.856 956.416 c 4
 366.592 956.416 262.144 772.096 262.144 538.624 c 4
802.816 161.792 m 5
 764.203 104.886 666.786 -28.6963 513.495 -28.6963 c 4
 512.317 -28.6963 511.138 -28.6875 509.95 -28.6719 c 5
 509.053 -28.6777 508.156 -28.6816 507.263 -28.6816 c 4
 237.511 -28.6816 108.544 279.279 108.544 542.72 c 4
 108.544 825.344 249.856 1093.63 505.856 1093.63 c 4
 638.976 1093.63 747.522 995.328 802.818 894.976 c 13
 802.816 1073.15 l 5
 954.368 1073.15 l 5
 954.368 -18.4316 l 6
 954.368 -290.816 751.616 -448.512 548.864 -448.512 c 4
 293.073 -448.512 150.618 -252.853 133.12 -108.544 c 5
 276.478 -108.544 l 21
 295.285 -229.32 422.126 -313.344 540.672 -313.344 c 4
 665.6 -313.344 802.816 -225.28 802.816 -32.7676 c 4
 802.816 161.792 l 5
143.36 1474.56 m 25
 143.36 -53.248 l 25
430.08 1466.37 m 25
 430.08 -61.4404 l 25
286.72 -69.6318 m 25
 286.72 1458.18 l 25
 286.72 -69.6318 l 25
573.44 1470.46 m 25
 573.44 -57.3438 l 25
716.8 1466.37 m 25
 716.8 -61.4404 l 25
860.16 -49.1523 m 25
 860.16 1478.66 l 25
 860.16 -49.1523 l 25
EndSplineSet
Fore
SplineSet
919 -199 m 2
 919 -279 947 -313 1037 -313 c 1
 1037 -449 l 1
 866 -449 767 -379 767 -205 c 2
 767 0 l 1
 767 184 l 17
 692 11 584 -29 466 -29 c 0
 188 -29 73 256 73 539 c 0
 73 828 188 1102 468 1102 c 0
 640 1102 720 996 767 886 c 1
 767 1073 l 17
 919 1073 l 1
 919 0 l 1
 919 -199 l 2
227 539 m 0
 227 264 348 106 496 106 c 0
 644 106 772 264 772 537 c 0
 772 812 644 966 496 966 c 0
 348 966 227 816 227 539 c 0
EndSplineSet
EndChar

StartChar: r
Encoding: 114 114 38
Width: 686
Flags: HMW
LayerCount: 2
Back
SplineSet
143.36 1474.56 m 29
 143.36 -53.248 l 29
430.08 1466.37 m 29
 430.08 -61.4404 l 29
286.72 -69.6318 m 29
 286.72 1458.18 l 29
 286.72 -69.6318 l 29
573.44 1470.46 m 29
 573.44 -57.3438 l 29
716.8 1466.37 m 29
 716.8 -61.4404 l 29
860.16 -49.1523 m 29
 860.16 1478.66 l 29
 860.16 -49.1523 l 29
EndSplineSet
Fore
SplineSet
737 1066 m 0
 657 935 l 1
 626 954 588 965 546 965 c 0
 360 965 281 768 281 540 c 0
 281 0 l 9
 129 0 l 1
 129 1073 l 1
 281 1073 l 1
 281 892 l 17
 316 1004 428 1102 586 1102 c 0
 640 1102 691 1090 737 1066 c 0
EndSplineSet
EndChar

StartChar: s
Encoding: 115 115 39
Width: 921
Flags: HMW
LayerCount: 2
Back
SplineSet
108.544 806.912 m 4
 108.544 967.442 265.438 1097.73 458.752 1097.73 c 4
 652.066 1097.73 808.96 967.442 808.96 806.912 c 4
 808.96 646.382 652.066 516.096 458.752 516.096 c 4
 265.438 516.096 108.544 646.382 108.544 806.912 c 4
264.192 802.816 m 0
 264.192 890.995 353.189 962.561 462.848 962.561 c 0
 572.506 962.561 661.504 890.995 661.504 802.816 c 0
 661.504 714.638 572.506 643.072 462.848 643.072 c 0
 353.189 643.072 264.192 714.638 264.192 802.816 c 0
104.448 296.96 m 0
 104.448 475.578 266.847 620.544 466.944 620.544 c 0
 667.042 620.544 829.44 475.578 829.44 296.96 c 0
 829.44 118.342 667.042 -26.624 466.944 -26.624 c 0
 266.847 -26.624 104.448 118.342 104.448 296.96 c 0
256 301.056 m 0
 256 408.453 349.585 495.616 464.896 495.616 c 0
 580.207 495.616 673.792 408.453 673.792 301.056 c 0
 673.792 193.659 580.207 106.496 464.896 106.496 c 0
 349.585 106.496 256 193.659 256 301.056 c 0
143.36 1474.56 m 25
 143.36 -53.248 l 25
430.08 1466.37 m 25
 430.08 -61.4404 l 25
286.72 -69.6318 m 25
 286.72 1458.18 l 25
 286.72 -69.6318 l 25
573.44 1470.46 m 25
 573.44 -57.3438 l 25
716.8 1466.37 m 25
 716.8 -61.4404 l 25
860.16 -49.1523 m 25
 860.16 1478.66 l 25
 860.16 -49.1523 l 25
EndSplineSet
Fore
SplineSet
469 477 m 0
 304 531 121 604 121 809 c 0
 121 1000 283 1096 469 1098 c 0
 697 1098 795 957 823 871 c 1
 677 841 l 1
 652 898 596 963 471 963 c 0
 373 963 274 914 274 813 c 0
 274 686 408 650 471 627 c 0
 610 576 840 518 840 287 c 0
 840 101 670 -29 473 -29 c 0
 260 -29 143 78 96 217 c 1
 243 245 l 1
 279 163 338 106 469 106 c 0
 604 106 686 174 686 287 c 0
 686 399 566 446 469 477 c 0
EndSplineSet
EndChar

StartChar: t
Encoding: 116 116 40
Width: 696
Flags: HMW
LayerCount: 2
Back
SplineSet
143.36 1474.56 m 29
 143.36 -53.248 l 29
430.08 1466.37 m 29
 430.08 -61.4404 l 29
286.72 -69.6318 m 29
 286.72 1458.18 l 29
 286.72 -69.6318 l 29
573.44 1470.46 m 29
 573.44 -57.3438 l 29
716.8 1466.37 m 29
 716.8 -61.4404 l 29
860.16 -49.1523 m 29
 860.16 1478.66 l 29
 860.16 -49.1523 l 29
EndSplineSet
Fore
SplineSet
244 938 m 0
 102 938 l 1
 102 1073 l 1
 244 1073 l 0
 244 1323 l 1
 395 1323 l 0
 395 1073 l 0
 592 1073 l 1
 592 938 l 1
 395 938 l 0
 395 215 l 2
 395 137 435 98 512 98 c 2
 582 98 l 1
 582 -29 l 1
 512 -29 l 2
 312 -29 244 42 244 211 c 1
 244 938 l 0
EndSplineSet
EndChar

StartChar: u
Encoding: 117 117 41
Width: 1064
Flags: HMW
LayerCount: 2
Back
SplineSet
143.36 1474.56 m 29
 143.36 -53.248 l 29
430.08 1466.37 m 29
 430.08 -61.4404 l 29
286.72 -69.6318 m 29
 286.72 1458.18 l 29
 286.72 -69.6318 l 29
573.44 1470.46 m 29
 573.44 -57.3438 l 29
716.8 1466.37 m 29
 716.8 -61.4404 l 29
860.16 -49.1523 m 29
 860.16 1478.66 l 29
 860.16 -49.1523 l 29
EndSplineSet
Fore
SplineSet
795 1073 m 9
 947 1073 l 1
 947 0 l 1
 795 0 l 1
 795 181 l 17
 760 69 648 -29 490 -29 c 0
 276 -29 120 140 120 532 c 2
 120 1073 l 1
 271 1073 l 0
 271 532 l 1
 271 299 344 108 530 108 c 0
 716 108 795 305 795 533 c 0
 795 1073 l 9
EndSplineSet
EndChar

StartChar: v
Encoding: 118 118 42
Width: 1024
Flags: HMW
LayerCount: 2
Back
SplineSet
143.36 1474.56 m 29
 143.36 -53.248 l 29
430.08 1466.37 m 29
 430.08 -61.4404 l 29
286.72 -69.6318 m 29
 286.72 1458.18 l 29
 286.72 -69.6318 l 29
573.44 1470.46 m 29
 573.44 -57.3438 l 29
716.8 1466.37 m 29
 716.8 -61.4404 l 29
860.16 -49.1523 m 29
 860.16 1478.66 l 29
 860.16 -49.1523 l 29
EndSplineSet
Fore
SplineSet
446 0 m 1
 82 1073 l 1
 242 1073 l 1
 522 195 l 1
 809 1073 l 1
 967 1073 l 1
 598 0 l 1
 446 0 l 1
EndSplineSet
EndChar

StartChar: w
Encoding: 119 119 43
Width: 1374
Flags: HMW
LayerCount: 2
Back
SplineSet
143.36 1474.56 m 29
 143.36 -53.248 l 29
430.08 1466.37 m 29
 430.08 -61.4404 l 29
286.72 -69.6318 m 29
 286.72 1458.18 l 29
 286.72 -69.6318 l 29
573.44 1470.46 m 29
 573.44 -57.3438 l 29
716.8 1466.37 m 29
 716.8 -61.4404 l 29
860.16 -49.1523 m 29
 860.16 1478.66 l 29
 860.16 -49.1523 l 29
EndSplineSet
Fore
SplineSet
698 862 m 1
 471 0 l 1
 354 0 l 1
 68 1073 l 1
 221 1073 l 1
 414 250 l 1
 623 1065 l 0
 623 1065 715 1065 774 1065 c 17
 983 250 l 1
 1176 1073 l 17
 1329 1073 l 1
 1042 0 l 1
 920 0 l 1
 698 862 l 1
EndSplineSet
EndChar

StartChar: x
Encoding: 120 120 44
Width: 901
Flags: HMW
LayerCount: 2
Back
SplineSet
143.36 1474.56 m 29
 143.36 -53.248 l 29
430.08 1466.37 m 29
 430.08 -61.4404 l 29
286.72 -69.6318 m 29
 286.72 1458.18 l 29
 286.72 -69.6318 l 29
573.44 1470.46 m 29
 573.44 -57.3438 l 29
716.8 1466.37 m 29
 716.8 -61.4404 l 29
860.16 -49.1523 m 29
 860.16 1478.66 l 29
 860.16 -49.1523 l 29
EndSplineSet
Fore
SplineSet
870 0 m 1
 700 0 l 9
 459 440 l 1
 229 0 l 1
 53 0 l 9
 367 539 l 1
 55 1073 l 9
 225 1073 l 0
 459 639 l 0
 692 1073 l 1
 862 1073 l 1
 551 543 l 0
 870 0 l 1
EndSplineSet
EndChar

StartChar: y
Encoding: 121 121 45
Width: 1064
Flags: HMW
LayerCount: 2
Back
SplineSet
794.624 1073.15 m 13
 946.176 1073.15 l 5
 946.176 0 l 5
 794.624 0 l 5
 794.624 180.224 l 21
 761.856 102.4 651.264 -28.6719 522.24 -28.6719 c 4
 319.685 -28.6719 118.771 170.912 118.786 413.696 c 5
 118.784 1073.15 l 5
 270.336 1073.15 l 4
 270.336 411.648 l 6
 270.336 222.562 402.276 108.544 524.288 108.544 c 4
 667.648 108.544 794.626 266.24 794.626 454.656 c 4
 794.624 1073.15 l 13
143.36 1474.56 m 25
 143.36 -53.248 l 25
430.08 1466.37 m 25
 430.08 -61.4404 l 25
286.72 -69.6318 m 25
 286.72 1458.18 l 25
 286.72 -69.6318 l 25
573.44 1470.46 m 25
 573.44 -57.3438 l 25
716.8 1466.37 m 25
 716.8 -61.4404 l 25
860.16 -49.1523 m 25
 860.16 1478.66 l 25
 860.16 -49.1523 l 25
EndSplineSet
Fore
SplineSet
947 -18 m 2
 947 -291 723 -449 520 -449 c 1
 340 -449 227 -356 157 -275 c 0
 263 -190 l 0
 315 -252 393 -313 520 -313 c 0
 645 -313 795 -225 795 -33 c 0
 795 38 795 110 795 181 c 17
 760 69 648 -29 490 -29 c 0
 276 -29 120 140 120 532 c 2
 120 1073 l 1
 271 1073 l 0
 271 532 l 1
 271 299 344 108 530 108 c 0
 716 108 795 305 795 533 c 0
 795 1073 l 9
 947 1073 l 1
 947 -18 l 2
EndSplineSet
EndChar

StartChar: z
Encoding: 122 122 46
Width: 962
Flags: HMW
LayerCount: 2
Back
SplineSet
143.36 1474.56 m 29
 143.36 -53.248 l 29
430.08 1466.37 m 29
 430.08 -61.4404 l 29
286.72 -69.6318 m 29
 286.72 1458.18 l 29
 286.72 -69.6318 l 29
573.44 1470.46 m 29
 573.44 -57.3438 l 29
716.8 1466.37 m 29
 716.8 -61.4404 l 29
860.16 -49.1523 m 29
 860.16 1478.66 l 29
 860.16 -49.1523 l 29
EndSplineSet
Fore
SplineSet
342 141 m 1
 877 141 l 1
 877 0 l 1
 90 0 l 1
 655 932 l 2
 131 932 l 1
 131 1073 l 1
 907 1073 l 1
 342 141 l 1
EndSplineSet
EndChar

StartChar: Oslash
Encoding: 216 216 53
Width: 1285
Flags: HMW
LayerCount: 2
Fore
SplineSet
400 41 m 1
 369 -29 l 1
 217 -29 l 1
 291 134 l 1
 203 233 148 366 120 500 c 0
 104 574 96 649 96 718 c 1
 96 1034 244 1477 655 1477 c 1
 739 1477 812 1459 874 1427 c 1
 905 1496 l 0
 1057 1496 l 1
 988 1345 l 1
 1094 1242 1159 1093 1190 943 c 0
 1207 866 1214 789 1214 718 c 1
 1214 402 1065 -29 655 -29 c 1
 555 -29 470 -3 400 41 c 1
458 170 m 1
 512 133 577 111 655 111 c 1
 963 111 1063 452 1063 718 c 0
 1063 790 1056 868 1040 945 c 0
 1019 1042 983 1135 926 1207 c 1
 458 170 l 1
356 279 m 1
 816 1300 l 1
 770 1324 717 1338 655 1338 c 0
 346 1338 248 984 248 718 c 1
 248 647 254 571 270 498 c 0
 287 419 314 342 356 279 c 1
EndSplineSet
EndChar

StartChar: Thorn
Encoding: 222 222 57
Width: 1329
Flags: HMW
LayerCount: 2
Fore
SplineSet
303 477 m 1
 573 477 870 530 870 750 c 1
 870 765 868 780 865 794 c 0
 824 987 508 1010 303 1010 c 1
 303 477 l 1
145 1456 m 0
 303 1456 l 1
 303 1150 l 1
 645 1150 965 1081 1019 828 c 0
 1024 804 1027 778 1027 750 c 0
 1027 407 671 337 303 337 c 1
 303 0 l 1
 145 0 l 1
 145 1456 l 0
EndSplineSet
EndChar

StartChar: germandbls
Encoding: 223 223 58
Width: 1212
Flags: HMW
LayerCount: 2
Fore
SplineSet
174 1152 m 1
 242 1333 400 1479 655 1479 c 1
 869 1479 1051 1368 1092 1174 c 0
 1097 1147 1100 1117 1100 1087 c 0
 1100 1083 1100 1078 1100 1074 c 1
 1100 880 900 778 780 747 c 1
 882 722 1071 629 1110 446 c 0
 1115 425 1117 402 1117 378 c 1
 1117 72 902 -30 611 -30 c 1
 546 -30 493 -11 425 23 c 9
 516 146 l 17
 550 133 581 110 611 110 c 1
 807 110 970 158 970 378 c 1
 970 393 968 408 965 423 c 0
 932 577 731 679 552 679 c 1
 537 679 527 679 516 679 c 0
 503 679 491 679 474 673 c 1
 474 825 l 1
 489 821 499 821 510 821 c 0
 522 821 535 821 552 821 c 1
 723 821 951 918 951 1074 c 1
 951 1101 948 1127 943 1150 c 0
 915 1282 810 1342 655 1342 c 1
 451 1342 365 1241 316 1105 c 1
 242 885 259 310 240 0 c 1
 92 0 l 1
 124 361 100 928 174 1152 c 1
EndSplineSet
EndChar

StartChar: ae
Encoding: 230 230 63
Width: 1486
Flags: HMW
LayerCount: 2
Back
SplineSet
849.216 604.16 m 5
 1379.01 604.16 l 5
 1361.25 781.345 1273.92 958.464 1114.11 958.464 c 4
 954.305 958.464 866.976 781.345 849.216 604.16 c 5
849.185 468.992 m 5
 866.88 290.24 954.241 106.496 1114.11 106.496 c 4
 1208.35 106.496 1274.62 162.464 1317.73 242.655 c 4
 1450.69 187.616 l 4
 1382.37 55.4238 1268.58 -28.6719 1114.11 -28.6719 c 5
 847.872 -28.6719 702.464 221.184 702.464 536.576 c 4
 702.464 851.968 847.872 1093.63 1114.11 1093.63 c 4
 1380.35 1093.63 1525.76 851.968 1525.76 536.576 c 4
 1525.76 514.539 1524.65 491.84 1522.62 468.992 c 5
 849.185 468.992 l 5
466.944 602.112 m 4
 315.392 602.112 221.184 483.328 221.184 354.304 c 4
 221.184 225.28 315.392 106.496 466.944 106.496 c 4
 593.92 106.496 712.704 221.184 712.704 354.304 c 5
 712.704 487.424 593.92 602.112 466.944 602.112 c 4
466.944 737.28 m 4
 606.208 737.28 688.128 679.936 716.8 630.784 c 5
 715.651 675.84 l 4
 715.651 829.44 622.592 954.368 471.04 954.368 c 4
 376.832 954.368 290.816 921.6 245.76 876.544 c 13
 215.408 916.48 167.936 978.944 167.936 978.944 c 4
 237.568 1036.29 327.68 1089.54 471.04 1089.54 c 4
 669.379 1089.54 851.697 944.128 851.697 675.84 c 4
 849.92 552.96 l 4
 851.968 270.336 l 5
 851.968 196.608 880.64 114.688 966.656 114.688 c 5
 966.656 -20.4805 l 5
 843.776 -20.4805 763.904 8.19238 745.472 100.352 c 5
 716.8 53.248 630.784 -28.6719 466.944 -28.6719 c 5
 241.664 -28.6719 77.8242 139.264 77.8242 354.304 c 4
 77.8242 569.344 262.144 737.28 466.944 737.28 c 4
EndSplineSet
Fore
SplineSet
436 602 m 0
 285 602 236 483 236 354 c 0
 236 325 238 296 244 269 c 0
 263 177 319 106 436 106 c 0
 563 106 637 221 637 354 c 1
 637 379 634 402 630 425 c 0
 608 525 540 602 436 602 c 0
721 910 m 1
 791 1024 858 1094 1001 1094 c 0
 1201 1094 1313 957 1355 756 c 0
 1370 689 1376 615 1376 537 c 0
 1376 515 1373 492 1373 469 c 1
 783 469 l 1
 783 436 786 382 798 325 c 0
 820 220 875 106 1001 106 c 0
 1096 106 1121 162 1164 243 c 0
 1297 188 l 0
 1229 55 1156 -29 1001 -29 c 0
 841 -29 789 55 719 164 c 1
 666 70 629 -29 436 -29 c 0
 249 -29 129 88 94 251 c 0
 88 284 84 318 84 354 c 0
 84 569 231 737 436 737 c 0
 564 737 602 690 641 633 c 1
 643 649 637 676 640 692 c 1
 640 726 637 759 630 789 c 0
 610 886 552 954 440 954 c 0
 346 954 301 922 256 877 c 9
 226 916 178 979 178 979 c 0
 248 1036 297 1090 440 1090 c 0
 570 1090 652 1027 721 910 c 1
783 604 m 1
 1221 604 l 1
 1217 648 1211 691 1202 732 c 0
 1176 858 1122 958 1001 958 c 0
 838 958 786 756 783 604 c 1
EndSplineSet
EndChar

StartChar: igrave
Encoding: 236 236 68
Width: 430
Flags: HMW
LayerCount: 2
Fore
SplineSet
150 1073 m 1
 301 1073 l 1
 301 0 l 1
 150 0 l 1
 150 1073 l 1
EndSplineSet
Refer: 119 96 N 1 0 0 1 -177 -347 2
EndChar

StartChar: iacute
Encoding: 237 237 69
Width: 421
Flags: HMW
LayerCount: 2
Fore
SplineSet
150 1073 m 1
 301 1073 l 1
 301 0 l 1
 150 0 l 1
 150 1073 l 1
EndSplineSet
Refer: 152 180 N 1 0 0 1 91 -347 2
EndChar

StartChar: icircumflex
Encoding: 238 238 70
Width: 888
Flags: HMW
LayerCount: 2
Fore
SplineSet
391 1073 m 1
 543 1073 l 1
 543 0 l 1
 391 0 l 1
 391 1073 l 1
EndSplineSet
Refer: 117 94 N 1 0 0 1 -18 -31 2
EndChar

StartChar: idieresis
Encoding: 239 239 71
Width: 667
Flags: HMW
LayerCount: 2
Fore
SplineSet
272 1073 m 1
 424 1073 l 1
 424 0 l 1
 272 0 l 1
 272 1073 l 1
EndSplineSet
Refer: 143 168 N 1 0 0 1 -68 -401 2
EndChar

StartChar: eth
Encoding: 240 240 72
Width: 1030
Flags: HMW
LayerCount: 2
Fore
SplineSet
233 455 m 0
 233 420 237 389 243 359 c 0
 279 191 406 106 492 106 c 0
 645 106 776 279 776 455 c 1
 776 478 774 500 769 521 c 0
 736 679 586 791 453 791 c 1
 330 791 233 604 233 455 c 0
684 1290 m 1
 759 1204 871 1033 906 870 c 0
 911 846 914 823 915 801 c 1
 921 711 928 643 928 540 c 0
 928 528 928 515 928 502 c 1
 928 193 737 -29 502 -29 c 0
 260 -29 137 118 97 307 c 0
 87 355 82 407 82 459 c 0
 82 717 248 926 463 926 c 0
 633 926 684 846 760 778 c 1
 760 799 757 824 751 851 c 0
 725 971 648 1136 571 1204 c 1
 418 1061 l 1
 319 1161 l 1
 455 1290 l 1
 401 1309 348 1315 295 1315 c 0
 256 1315 217 1311 180 1307 c 1
 166 1454 l 1
 193 1456 221 1456 248 1456 c 0
 360 1456 471 1440 575 1386 c 1
 731 1526 l 1
 827 1417 l 1
 684 1290 l 1
EndSplineSet
EndChar

StartChar: oslash
Encoding: 248 248 79
Width: 1024
Flags: HMW
LayerCount: 2
Back
SplineSet
96.2559 536.576 m 4
 96.2559 851.968 241.664 1093.63 507.904 1093.63 c 4
 774.144 1093.63 919.552 851.968 919.552 536.576 c 4
 919.552 221.184 774.144 -28.6719 507.904 -28.6719 c 5
 241.664 -28.6719 96.2559 221.184 96.2559 536.576 c 4
239.616 536.576 m 4
 239.616 339.968 327.68 106.496 507.904 106.496 c 4
 700.416 106.496 776.192 339.968 776.192 536.576 c 4
 776.192 733.184 688.128 958.464 507.904 958.464 c 4
 327.68 958.464 239.616 733.184 239.616 536.576 c 4
EndSplineSet
Fore
SplineSet
743 771 m 1
 369 174 l 1
 409 132 458 106 518 106 c 0
 711 106 782 340 782 537 c 0
 782 588 778 641 767 691 c 0
 761 719 754 746 743 771 c 1
666 895 m 1
 626 934 577 958 518 958 c 0
 338 958 254 733 254 537 c 0
 254 485 258 431 269 379 c 0
 275 351 283 324 293 299 c 1
 666 895 l 1
86 -29 m 1
 201 153 l 1
 165 211 137 282 120 361 c 0
 109 416 102 475 102 537 c 0
 102 852 252 1094 518 1094 c 0
 607 1094 683 1067 744 1019 c 1
 793 1098 l 1
 948 1098 l 1
 835 917 l 1
 872 859 900 789 916 710 c 0
 928 656 934 598 934 537 c 0
 934 221 784 -29 518 -29 c 1
 429 -29 353 0 291 49 c 1
 243 -29 l 1
 86 -29 l 1
EndSplineSet
EndChar

StartChar: thorn
Encoding: 254 254 83
Width: 1003
Flags: HMW
LayerCount: 2
Fore
SplineSet
281 0 m 17
 129 0 l 1
 129 1454 l 1
 281 1454 l 1
 281 1112 l 17
 346 1206 416 1284 561 1284 c 0
 755 1284 872 1125 915 922 c 0
 928 862 934 798 934 733 c 0
 934 451 846 164 522 164 c 1
 358 164 281 311 281 311 c 0
 281 311 281 121 281 0 c 17
782 729 m 0
 782 792 776 851 765 904 c 0
 734 1049 664 1149 571 1149 c 1
 432 1149 276 987 276 729 c 1
 276 672 282 621 292 576 c 0
 331 389 442 299 532 299 c 0
 682 299 782 455 782 729 c 0
EndSplineSet
EndChar

StartChar: Euro
Encoding: 8364 8364 87
Width: 1089
Flags: HMW
LayerCount: 2
Fore
SplineSet
270 762 m 1
 141 762 l 1
 141 897 l 1
 294 897 l 1
 344 1069 465 1196 637 1196 c 0
 797 1196 858 1155 952 1063 c 9
 915 1025 856 967 856 967 c 0
 799 1024 756 1061 637 1061 c 1
 552 1061 489 988 451 897 c 1
 721 897 l 1
 721 762 l 1
 415 762 l 1
 413 743 412 724 412 707 c 0
 412 685 413 665 415 645 c 1
 715 645 l 1
 715 510 l 1
 450 510 l 1
 497 403 577 346 637 346 c 0
 723 346 774 362 860 457 c 9
 956 360 l 1
 889 283 827 211 637 211 c 1
 452 211 341 341 294 510 c 1
 135 510 l 1
 135 645 l 1
 271 645 l 1
 269 667 268 689 268 711 c 0
 268 728 269 745 270 762 c 1
EndSplineSet
EndChar

StartChar: A
Encoding: 65 65 88
Width: 1302
Flags: HMW
LayerCount: 2
Fore
SplineSet
659 1214 m 1
 455 621 l 1
 870 621 l 1
 659 1214 l 1
907 485 m 1
 410 485 l 0
 248 0 l 0
 72 0 l 1
 596 1456 l 0
 596 1456 673 1456 723 1456 c 17
 1247 0 l 1
 1067 0 l 1
 907 485 l 1
EndSplineSet
EndChar

StartChar: B
Encoding: 66 66 89
Width: 1179
Flags: HMW
LayerCount: 2
Back
SplineSet
337.92 1085.44 m 4
 337.92 1243.71 466.37 1372.16 624.64 1372.16 c 4
 782.909 1372.16 911.36 1243.71 911.36 1085.44 c 4
 911.36 927.171 782.909 798.72 624.64 798.72 c 4
 466.37 798.72 337.92 927.171 337.92 1085.44 c 4
262.144 405.504 m 4
 262.144 604.472 423.625 765.952 622.592 765.952 c 4
 821.56 765.952 983.04 604.472 983.04 405.504 c 4
 983.04 206.537 821.56 45.0557 622.592 45.0557 c 4
 423.625 45.0557 262.144 206.537 262.144 405.504 c 4
EndSplineSet
Fore
SplineSet
279 705 m 1
 279 141 l 1
 598 141 l 1
 838 141 930 287 930 430 c 0
 930 452 928 473 923 494 c 0
 899 610 801 705 598 705 c 1
 571 705 311 705 279 705 c 1
279 1317 m 1
 279 844 l 1
 317 844 483 844 516 844 c 1
 805 844 850 991 850 1079 c 1
 850 1095 849 1112 845 1130 c 0
 827 1214 754 1315 516 1315 c 1
 485 1315 315 1317 279 1317 c 1
121 1456 m 1
 516 1456 l 1
 844 1456 971 1301 1002 1156 c 0
 1007 1130 1010 1104 1010 1079 c 1
 1010 915 864 782 756 782 c 1
 958 782 1051 620 1077 496 c 0
 1083 469 1085 445 1085 424 c 1
 1085 287 1034 0 598 0 c 1
 121 0 l 1
 121 1456 l 1
EndSplineSet
EndChar

StartChar: C
Encoding: 67 67 90
Width: 1220
Flags: HMW
LayerCount: 2
Fore
SplineSet
1167 293 m 0
 1106 133 965 -29 700 -29 c 0
 291 -29 100 337 100 725 c 0
 100 1114 293 1495 702 1495 c 0
 967 1495 1106 1327 1153 1194 c 9
 1095 1178 1004 1153 1004 1153 c 0
 965 1276 838 1354 702 1354 c 1
 700 1354 l 0
 412 1354 266 1037 266 725 c 0
 266 404 428 111 700 111 c 0
 844 111 979 215 1020 334 c 9
 1077 318 1167 293 1167 293 c 0
EndSplineSet
EndChar

StartChar: D
Encoding: 68 68 91
Width: 1220
Flags: HMW
LayerCount: 2
Fore
SplineSet
987 727 m 0
 987 975 877 1315 524 1315 c 1
 279 1315 l 1
 279 141 l 1
 524 141 l 1
 872 141 987 381 987 727 c 0
1153 727 m 0
 1153 319 942 0 565 0 c 1
 121 0 l 1
 121 1456 l 1
 565 1456 l 2
 942 1456 1153 1103 1153 727 c 0
EndSplineSet
EndChar

StartChar: E
Encoding: 69 69 92
Width: 1142
Flags: HMW
LayerCount: 2
Fore
SplineSet
121 1456 m 0
 1042 1456 l 1
 1042 1315 l 0
 279 1315 l 0
 279 817 l 1
 999 817 l 1
 999 676 l 0
 279 676 l 0
 279 141 l 0
 1042 141 l 0
 1042 0 l 0
 121 0 l 1
 121 1456 l 0
EndSplineSet
EndChar

StartChar: F
Encoding: 70 70 93
Width: 1146
Flags: HMW
LayerCount: 2
Fore
SplineSet
121 1456 m 1
 1042 1456 l 1
 1042 1315 l 25
 279 1315 l 25
 279 817 l 1
 999 817 l 1
 999 676 l 25
 279 676 l 1
 279 0 l 1
 121 0 l 1
 121 1456 l 1
EndSplineSet
EndChar

StartChar: G
Encoding: 71 71 94
Width: 1363
Flags: HMW
LayerCount: 2
Fore
SplineSet
700 -29 m 0
 312 -29 100 339 100 731 c 0
 100 1071 291 1495 702 1495 c 0
 926 1495 1047 1401 1137 1260 c 9
 1083 1233 999 1192 999 1192 c 0
 930 1288 854 1354 702 1354 c 1
 414 1354 266 1004 266 731 c 0
 266 439 415 111 700 111 c 0
 993 111 1077 389 1077 555 c 1
 684 555 l 1
 684 696 l 1
 1233 696 l 1
 1233 610 l 1
 1233 319 1078 -29 706 -29 c 0
 704 -29 702 -29 700 -29 c 0
EndSplineSet
EndChar

StartChar: H
Encoding: 72 72 95
Width: 1198
Flags: HMW
LayerCount: 2
Fore
SplineSet
121 1456 m 0
 279 1456 l 1
 279 815 l 1
 940 815 l 1
 940 1456 l 1
 1098 1456 l 1
 1098 0 l 1
 940 0 l 1
 940 674 l 0
 279 674 l 1
 279 0 l 1
 121 0 l 1
 121 1456 l 0
EndSplineSet
EndChar

StartChar: I
Encoding: 73 73 96
Width: 444
Flags: HMW
LayerCount: 2
Fore
SplineSet
154 0 m 1
 154 1456 l 1
 311 1456 l 1
 311 0 l 1
 154 0 l 1
EndSplineSet
EndChar

StartChar: J
Encoding: 74 74 97
Width: 1140
Flags: HMW
LayerCount: 2
Fore
SplineSet
113 535 m 0
 254 535 l 1
 254 500 258 464 265 430 c 0
 299 270 409 121 565 121 c 1
 758 121 870 334 870 535 c 2
 870 1456 l 1
 1028 1456 l 1
 1028 535 l 2
 1028 209 840 -29 565 -29 c 1
 340 -29 178 144 129 378 c 0
 118 427 113 480 113 535 c 0
EndSplineSet
EndChar

StartChar: K
Encoding: 75 75 98
Width: 1239
Flags: HMW
LayerCount: 2
Fore
SplineSet
121 1456 m 0
 279 1456 l 1
 279 702 l 1
 1026 1456 l 1
 1219 1456 l 1
 571 803 l 1
 1235 0 l 1
 1028 0 l 1
 467 702 l 1
 279 516 l 1
 279 0 l 1
 121 0 l 1
 121 1456 l 0
EndSplineSet
EndChar

StartChar: L
Encoding: 76 76 99
Width: 1105
Flags: HMW
LayerCount: 2
Fore
SplineSet
121 1456 m 1
 279 1456 l 1
 279 141 l 1
 1044 141 l 1
 1044 0 l 1
 121 0 l 1
 121 1456 l 1
EndSplineSet
EndChar

StartChar: M
Encoding: 77 77 100
Width: 1562
Flags: HMW
LayerCount: 2
Fore
SplineSet
121 0 m 1
 121 1456 l 2
 336 1456 l 1
 795 209 l 2
 1255 1456 l 1
 1462 1456 l 1
 1462 0 l 1
 1309 0 l 25
 1309 1204 l 1
 881 16 l 0
 702 16 l 1
 274 1204 l 0
 274 0 l 1
 121 0 l 1
EndSplineSet
EndChar

StartChar: N
Encoding: 78 78 101
Width: 1271
Flags: HMW
LayerCount: 2
Fore
SplineSet
121 0 m 1
 121 1456 l 2
 274 1456 l 1
 1014 295 l 25
 1014 1456 l 1
 1171 1456 l 1
 1171 0 l 0
 1026 0 l 1
 279 1190 l 0
 279 0 l 1
 121 0 l 1
EndSplineSet
EndChar

StartChar: O
Encoding: 79 79 102
Width: 1333
Flags: HMW
LayerCount: 2
Fore
SplineSet
1096 725 m 0
 1096 797 1089 876 1073 952 c 0
 1028 1161 913 1354 676 1354 c 0
 354 1354 258 995 258 725 c 1
 258 655 265 580 280 507 c 0
 324 300 440 113 676 113 c 1
 997 113 1096 457 1096 725 c 0
92 725 m 1
 92 1047 248 1495 676 1495 c 1
 1011 1495 1180 1222 1238 950 c 0
 1254 873 1262 796 1262 725 c 1
 1262 406 1104 -29 676 -29 c 1
 342 -29 173 238 115 508 c 0
 99 582 92 656 92 725 c 1
EndSplineSet
EndChar

StartChar: P
Encoding: 80 80 103
Width: 1099
Flags: HMW
LayerCount: 2
Fore
SplineSet
279 774 m 1
 485 774 l 1
 805 774 870 918 870 1047 c 1
 870 1066 869 1086 864 1107 c 0
 843 1208 757 1315 485 1315 c 1
 279 1315 l 1
 279 774 l 1
121 1456 m 0
 279 1456 l 1
 485 1456 l 1
 801 1456 983 1322 1024 1132 c 0
 1029 1104 1032 1076 1032 1047 c 0
 1032 821 864 631 485 631 c 1
 279 631 l 1
 279 0 l 1
 121 0 l 1
 121 1456 l 0
EndSplineSet
EndChar

StartChar: Q
Encoding: 81 81 104
Width: 1370
Flags: HMW
LayerCount: 2
Back
SplineSet
1273.04 83.6143 m 5
 1186.51 -32.9658 l 5
 699.626 328.428 l 5
 786.157 445.006 l 5
 1273.04 83.6143 l 5
1101.68 725.914 m 0
 1101.68 994.929 994.929 1353.62 672.539 1353.62 c 0
 350.146 1353.62 243.395 994.929 243.395 725.914 c 1
 243.395 456.898 352.282 111.022 672.539 111.022 c 1
 992.795 111.022 1101.68 456.898 1101.68 725.914 c 0
93.9424 725.914 m 1
 93.9424 1046.17 243.395 1494.53 672.539 1494.53 c 1
 1101.68 1494.53 1251.13 1046.17 1251.13 725.914 c 1
 1251.13 405.657 1099.55 -29.8896 672.539 -29.8896 c 1
 245.53 -29.8896 93.9424 405.657 93.9424 725.914 c 1
EndSplineSet
Fore
SplineSet
1104 725 m 1
 1104 797 1097 873 1082 945 c 0
 1035 1163 912 1354 674 1354 c 1
 397 1354 258 1047 258 725 c 1
 258 661 264 589 280 516 c 0
 323 312 439 113 692 113 c 1
 760 113 856 141 903 188 c 1
 715 330 l 1
 803 446 l 1
 1001 297 l 1
 1071 395 1104 528 1104 725 c 1
92 725 m 1
 92 1047 256 1495 676 1495 c 1
 1015 1495 1188 1218 1246 943 c 0
 1262 869 1270 794 1270 725 c 1
 1270 506 1200 309 1122 207 c 1
 1288 86 l 1
 1198 -31 l 1
 1026 96 l 1
 942 29 850 -29 688 -29 c 1
 345 -29 173 237 115 509 c 0
 99 582 92 656 92 725 c 1
EndSplineSet
EndChar

StartChar: R
Encoding: 82 82 105
Width: 1101
Flags: HMW
LayerCount: 2
Back
SplineSet
268.288 774.145 m 5
 475.136 774.145 l 5
 794.624 774.145 860.16 917.504 860.16 1046.53 c 5
 860.16 1159.17 802.816 1314.82 475.136 1314.82 c 5
 268.288 1314.82 l 5
 268.288 774.145 l 5
110.592 1456.13 m 4
 268.288 1456.13 l 5
 475.136 1456.13 l 5
 835.584 1454.08 1021.95 1282.05 1021.95 1046.53 c 4
 1021.95 821.248 854.016 630.784 475.136 630.784 c 5
 268.288 630.784 l 5
 268.288 0 l 5
 110.592 0 l 5
 110.592 1456.13 l 4
EndSplineSet
Fore
SplineSet
279 774 m 1
 485 774 l 1
 811 774 870 926 870 1047 c 0
 870 1202 764 1315 485 1315 c 2
 279 1315 l 1
 279 774 l 1
923 0 m 1
 494 631 l 1
 279 631 l 1
 279 0 l 1
 121 0 l 1
 121 1456 l 0
 279 1456 l 1
 485 1456 l 1
 797 1456 1034 1311 1034 1047 c 0
 1034 850 893 688 670 648 c 1
 1104 0 l 1
 923 0 l 1
EndSplineSet
EndChar

StartChar: S
Encoding: 83 83 106
Width: 1079
Flags: HMW
LayerCount: 2
Back
SplineSet
75.8164 395.264 m 0
 75.8164 630.407 293.161 821.248 571.054 821.248 c 0
 848.947 821.248 1066.29 630.407 1066.29 395.264 c 0
 1066.29 160.12 848.947 -30.7197 571.054 -30.7197 c 0
 293.161 -30.7197 75.8164 160.12 75.8164 395.264 c 0
233.994 397.312 m 0
 233.994 555.581 384.03 684.032 568.894 684.032 c 0
 753.756 684.032 903.793 555.581 903.793 397.312 c 0
 903.793 239.043 753.756 110.592 568.894 110.592 c 0
 384.03 110.592 233.994 239.043 233.994 397.312 c 0
114.688 1105.92 m 4
 114.688 1320.71 317.456 1495.04 567.296 1495.04 c 0
 817.136 1495.04 1019.9 1320.71 1019.9 1105.92 c 0
 1019.9 891.126 817.136 716.8 567.296 716.8 c 0
 317.456 716.8 114.688 891.126 114.688 1105.92 c 4
276.48 1107.97 m 4
 276.48 1243.63 405.848 1353.73 565.248 1353.73 c 0
 724.648 1353.73 854.016 1243.63 854.016 1107.97 c 0
 854.016 972.309 724.648 862.208 565.248 862.208 c 0
 405.848 862.208 276.48 972.309 276.48 1107.97 c 4
EndSplineSet
Fore
SplineSet
45 327 m 1
 215 358 l 1
 240 252 376 113 539 113 c 1
 721 113 881 214 881 371 c 0
 881 597 562 692 434 745 c 0
 289 805 114 889 114 1136 c 0
 114 1361 305 1495 539 1495 c 1
 778 1495 942 1360 994 1194 c 1
 842 1169 l 1
 814 1256 698 1354 539 1354 c 1
 385 1354 276 1260 276 1136 c 0
 276 940 469 900 648 824 c 0
 808 756 1034 640 1034 368 c 0
 1034 99 809 -29 539 -29 c 1
 268 -29 116 132 45 327 c 1
EndSplineSet
EndChar

StartChar: T
Encoding: 84 84 107
Width: 1243
Flags: HMW
LayerCount: 2
Fore
SplineSet
88 1456 m 0
 1180 1456 l 1
 1180 1315 l 0
 723 1315 l 1
 723 0 l 1
 565 0 l 1
 565 1315 l 1
 88 1315 l 1
 88 1456 l 0
EndSplineSet
EndChar

StartChar: U
Encoding: 85 85 108
Width: 1265
Flags: HMW
LayerCount: 2
Back
SplineSet
272.384 1456.13 m 5
 110.592 1456.13 l 5
 110.592 661.504 l 5
 110.592 239.616 307.2 -30.7197 632.832 -30.7197 c 4
 958.47 -30.7197 1155.07 239.616 1155.07 661.504 c 5
 1155.07 1456.13 l 5
 993.28 1456.13 l 5
 993.28 661.504 l 5
 993.28 290.816 827.392 110.592 632.832 110.592 c 5
 438.272 110.592 274.432 290.816 272.384 661.504 c 5
 272.384 1456.13 l 5
EndSplineSet
Fore
SplineSet
1004 1456 m 1
 1165 1456 l 1
 1165 645 l 1
 1165 223 971 -29 643 -29 c 0
 380 -29 203 132 143 414 c 0
 128 484 121 561 121 645 c 1
 121 1456 l 1
 283 1456 l 1
 283 645 l 1
 283 570 289 504 302 445 c 0
 351 215 488 113 643 113 c 1
 838 113 1004 274 1004 645 c 1
 1004 1456 l 1
EndSplineSet
EndChar

StartChar: V
Encoding: 86 86 109
Width: 1245
Flags: HMW
LayerCount: 2
Fore
SplineSet
1022 1456 m 1
 1186 1456 l 1
 745 0 l 1
 526 0 l 1
 80 1456 l 1
 250 1456 l 1
 635 168 l 1
 1022 1456 l 1
EndSplineSet
EndChar

StartChar: W
Encoding: 87 87 110
Width: 1576
Flags: HMW
LayerCount: 2
Fore
SplineSet
84 1456 m 1
 244 1456 l 1
 428 182 l 0
 702 1419 l 1
 897 1419 l 0
 1171 182 l 1
 1356 1456 l 25
 1516 1456 l 1
 1286 0 l 1
 1067 0 l 1
 801 1229 l 2
 535 0 l 1
 311 0 l 2
 84 1456 l 1
EndSplineSet
EndChar

StartChar: X
Encoding: 88 88 111
Width: 1214
Flags: HMW
LayerCount: 2
Fore
SplineSet
74 1456 m 0
 256 1456 l 1
 618 850 l 1
 973 1456 l 1
 1155 1456 l 1
 702 729 l 1
 1161 0 l 1
 971 0 l 1
 618 586 l 1
 258 0 l 1
 80 0 l 1
 535 729 l 1
 74 1456 l 0
EndSplineSet
EndChar

StartChar: Y
Encoding: 89 89 112
Width: 1179
Flags: HMW
LayerCount: 2
Fore
SplineSet
76 1456 m 1
 244 1456 l 1
 600 856 l 1
 956 1456 l 1
 1124 1456 l 1
 678 748 l 1
 678 0 l 1
 520 0 l 1
 520 748 l 1
 76 1456 l 1
EndSplineSet
EndChar

StartChar: Z
Encoding: 90 90 113
Width: 1325
Flags: HMW
LayerCount: 2
Fore
SplineSet
129 1456 m 1
 1233 1456 l 1
 369 141 l 1
 1245 141 l 1
 1245 0 l 1
 100 0 l 1
 973 1315 l 1
 129 1315 l 1
 129 1456 l 1
EndSplineSet
EndChar

StartChar: bracketleft
Encoding: 91 91 114
Width: 626
Flags: HMW
LayerCount: 2
Fore
SplineSet
526 -96 m 0
 131 -96 l 1
 131 1530 l 0
 526 1530 l 1
 526 1389 l 1
 281 1389 l 1
 281 43 l 1
 526 43 l 1
 526 -96 l 0
EndSplineSet
EndChar

StartChar: backslash
Encoding: 92 92 115
Width: 811
Flags: HMW
LayerCount: 2
Fore
SplineSet
690 0 m 1
 -29 1544 l 1
 143 1544 l 0
 860 0 l 1
 690 0 l 1
EndSplineSet
EndChar

StartChar: bracketright
Encoding: 93 93 116
Width: 638
Flags: HMW
LayerCount: 2
Fore
SplineSet
129 -96 m 0
 129 45 l 1
 375 45 l 1
 375 1389 l 1
 129 1389 l 1
 129 1530 l 1
 524 1530 l 0
 524 -96 l 1
 129 -96 l 0
EndSplineSet
EndChar

StartChar: asciicircum
Encoding: 94 94 117
Width: 927
Flags: HMW
LayerCount: 2
Fore
SplineSet
821 1149 m 1
 633 1149 l 1
 477 1362 l 1
 319 1151 l 0
 133 1151 l 1
 410 1493 l 1
 541 1493 l 1
 821 1149 l 1
EndSplineSet
EndChar

StartChar: underscore
Encoding: 95 95 118
Width: 1241
Flags: HMW
LayerCount: 2
Fore
SplineSet
88 -231 m 1
 88 -90 l 1
 1178 -90 l 1
 1178 -231 l 1
 88 -231 l 1
EndSplineSet
EndChar

StartChar: grave
Encoding: 96 96 119
Width: 550
Flags: HMW
LayerCount: 2
Fore
SplineSet
464 1676 m 2
 471 1669 476 1661 478 1653 c 0
 479 1649 480 1644 480 1639 c 0
 480 1626 475 1615 467 1604 c 1
 459 1594 448 1587 435 1584 c 0
 430 1583 425 1582 421 1582 c 0
 412 1582 403 1585 395 1591 c 2
 90 1810 l 1
 76 1822 67 1836 63 1851 c 0
 62 1856 60 1861 60 1868 c 0
 60 1885 66 1901 77 1914 c 1
 87 1928 100 1938 117 1942 c 0
 123 1944 129 1944 135 1944 c 0
 152 1944 167 1939 183 1926 c 1
 464 1676 l 2
EndSplineSet
EndChar

StartChar: a
Encoding: 97 97 120
Width: 993
Flags: HMW
LayerCount: 2
Back
SplineSet
143.36 1474.56 m 29
 143.36 -53.248 l 29
430.08 1466.37 m 29
 430.08 -61.4404 l 29
286.72 -69.6318 m 29
 286.72 1458.18 l 29
 286.72 -69.6318 l 29
573.44 1470.46 m 29
 573.44 -57.3438 l 29
716.8 1466.37 m 29
 716.8 -61.4404 l 29
860.16 -49.1523 m 29
 860.16 1478.66 l 29
 860.16 -49.1523 l 29
143.36 1474.56 m 29
 143.36 -53.248 l 29
430.08 1466.37 m 29
 430.08 -61.4404 l 29
286.72 -69.6318 m 29
 286.72 1458.18 l 29
 286.72 -69.6318 l 29
573.44 1470.46 m 29
 573.44 -57.3438 l 29
716.8 1466.37 m 29
 716.8 -61.4404 l 29
860.16 -49.1523 m 29
 860.16 1478.66 l 29
 860.16 -49.1523 l 29
143.36 1474.56 m 29
 143.36 -53.248 l 29
430.08 1466.37 m 29
 430.08 -61.4404 l 29
286.72 -69.6318 m 29
 286.72 1458.18 l 29
 286.72 -69.6318 l 29
573.44 1470.46 m 29
 573.44 -57.3438 l 29
716.8 1466.37 m 29
 716.8 -61.4404 l 29
860.16 -49.1523 m 29
 860.16 1478.66 l 29
 860.16 -49.1523 l 29
143.36 1474.56 m 29
 143.36 -53.248 l 29
430.08 1466.37 m 29
 430.08 -61.4404 l 29
286.72 -69.6318 m 29
 286.72 1458.18 l 29
 286.72 -69.6318 l 29
573.44 1470.46 m 29
 573.44 -57.3438 l 29
716.8 1466.37 m 29
 716.8 -61.4404 l 29
860.16 -49.1523 m 29
 860.16 1478.66 l 29
 860.16 -49.1523 l 29
143.36 1474.56 m 29
 143.36 -53.248 l 29
430.08 1466.37 m 29
 430.08 -61.4404 l 29
286.72 -69.6318 m 29
 286.72 1458.18 l 29
 286.72 -69.6318 l 29
573.44 1470.46 m 29
 573.44 -57.3438 l 29
716.8 1466.37 m 29
 716.8 -61.4404 l 29
860.16 -49.1523 m 29
 860.16 1478.66 l 29
 860.16 -49.1523 l 29
143.36 1474.56 m 29
 143.36 -53.248 l 29
430.08 1466.37 m 29
 430.08 -61.4404 l 29
286.72 -69.6318 m 29
 286.72 1458.18 l 29
 286.72 -69.6318 l 29
573.44 1470.46 m 29
 573.44 -57.3438 l 29
716.8 1466.37 m 29
 716.8 -61.4404 l 29
860.16 -49.1523 m 29
 860.16 1478.66 l 29
 860.16 -49.1523 l 29
143.36 1474.56 m 29
 143.36 -53.248 l 29
430.08 1466.37 m 29
 430.08 -61.4404 l 29
286.72 -69.6318 m 29
 286.72 1458.18 l 29
 286.72 -69.6318 l 29
573.44 1470.46 m 29
 573.44 -57.3438 l 29
716.8 1466.37 m 29
 716.8 -61.4404 l 29
860.16 -49.1523 m 29
 860.16 1478.66 l 29
 860.16 -49.1523 l 29
143.36 1474.56 m 29
 143.36 -53.248 l 29
430.08 1466.37 m 29
 430.08 -61.4404 l 29
286.72 -69.6318 m 29
 286.72 1458.18 l 29
 286.72 -69.6318 l 29
573.44 1470.46 m 29
 573.44 -57.3438 l 29
716.8 1466.37 m 29
 716.8 -61.4404 l 29
860.16 -49.1523 m 29
 860.16 1478.66 l 29
 860.16 -49.1523 l 29
143.36 1474.56 m 29
 143.36 -53.248 l 29
430.08 1466.37 m 29
 430.08 -61.4404 l 29
286.72 -69.6318 m 29
 286.72 1458.18 l 29
 286.72 -69.6318 l 29
573.44 1470.46 m 29
 573.44 -57.3438 l 29
716.8 1466.37 m 29
 716.8 -61.4404 l 29
860.16 -49.1523 m 29
 860.16 1478.66 l 29
 860.16 -49.1523 l 29
143.36 1474.56 m 29
 143.36 -53.248 l 29
430.08 1466.37 m 29
 430.08 -61.4404 l 29
286.72 -69.6318 m 29
 286.72 1458.18 l 29
 286.72 -69.6318 l 29
573.44 1470.46 m 29
 573.44 -57.3438 l 29
716.8 1466.37 m 29
 716.8 -61.4404 l 29
860.16 -49.1523 m 29
 860.16 1478.66 l 29
 860.16 -49.1523 l 29
143.36 1474.56 m 29
 143.36 -53.248 l 29
430.08 1466.37 m 29
 430.08 -61.4404 l 29
286.72 -69.6318 m 29
 286.72 1458.18 l 29
 286.72 -69.6318 l 29
573.44 1470.46 m 29
 573.44 -57.3438 l 29
716.8 1466.37 m 29
 716.8 -61.4404 l 29
860.16 -49.1523 m 29
 860.16 1478.66 l 29
 860.16 -49.1523 l 29
143.36 1474.56 m 29
 143.36 -53.248 l 29
430.08 1466.37 m 29
 430.08 -61.4404 l 29
286.72 -69.6318 m 29
 286.72 1458.18 l 29
 286.72 -69.6318 l 29
573.44 1470.46 m 29
 573.44 -57.3438 l 29
716.8 1466.37 m 29
 716.8 -61.4404 l 29
860.16 -49.1523 m 29
 860.16 1478.66 l 29
 860.16 -49.1523 l 29
143.36 1474.56 m 29
 143.36 -53.248 l 29
430.08 1466.37 m 29
 430.08 -61.4404 l 29
286.72 -69.6318 m 29
 286.72 1458.18 l 29
 286.72 -69.6318 l 29
573.44 1470.46 m 29
 573.44 -57.3438 l 29
716.8 1466.37 m 29
 716.8 -61.4404 l 29
860.16 -49.1523 m 29
 860.16 1478.66 l 29
 860.16 -49.1523 l 29
143.36 1474.56 m 29
 143.36 -53.248 l 29
430.08 1466.37 m 29
 430.08 -61.4404 l 29
286.72 -69.6318 m 29
 286.72 1458.18 l 29
 286.72 -69.6318 l 29
573.44 1470.46 m 29
 573.44 -57.3438 l 29
716.8 1466.37 m 29
 716.8 -61.4404 l 29
860.16 -49.1523 m 29
 860.16 1478.66 l 29
 860.16 -49.1523 l 29
143.36 1474.56 m 29
 143.36 -53.248 l 29
430.08 1466.37 m 29
 430.08 -61.4404 l 29
286.72 -69.6318 m 29
 286.72 1458.18 l 29
 286.72 -69.6318 l 29
573.44 1470.46 m 29
 573.44 -57.3438 l 29
716.8 1466.37 m 29
 716.8 -61.4404 l 29
860.16 -49.1523 m 29
 860.16 1478.66 l 29
 860.16 -49.1523 l 29
143.36 1474.56 m 29
 143.36 -53.248 l 29
430.08 1466.37 m 29
 430.08 -61.4404 l 29
286.72 -69.6318 m 29
 286.72 1458.18 l 29
 286.72 -69.6318 l 29
573.44 1470.46 m 29
 573.44 -57.3438 l 29
716.8 1466.37 m 29
 716.8 -61.4404 l 29
860.16 -49.1523 m 29
 860.16 1478.66 l 29
 860.16 -49.1523 l 29
143.36 1474.56 m 25
 143.36 -53.248 l 25
430.08 1466.37 m 25
 430.08 -61.4404 l 25
286.72 -69.6318 m 25
 286.72 1458.18 l 25
 286.72 -69.6318 l 25
573.44 1470.46 m 25
 573.44 -57.3438 l 25
716.8 1466.37 m 25
 716.8 -61.4404 l 25
860.16 -49.1523 m 25
 860.16 1478.66 l 25
 860.16 -49.1523 l 25
143.36 1474.56 m 25
 143.36 -53.248 l 25
430.08 1466.37 m 25
 430.08 -61.4404 l 25
286.72 -69.6318 m 25
 286.72 1458.18 l 25
 286.72 -69.6318 l 25
573.44 1470.46 m 25
 573.44 -57.3438 l 25
716.8 1466.37 m 25
 716.8 -61.4404 l 25
860.16 -49.1523 m 25
 860.16 1478.66 l 25
 860.16 -49.1523 l 25
143.36 1474.56 m 25
 143.36 -53.248 l 25
430.08 1466.37 m 25
 430.08 -61.4404 l 25
286.72 -69.6318 m 25
 286.72 1458.18 l 25
 286.72 -69.6318 l 25
573.44 1470.46 m 25
 573.44 -57.3438 l 25
716.8 1466.37 m 25
 716.8 -61.4404 l 25
860.16 -49.1523 m 25
 860.16 1478.66 l 25
 860.16 -49.1523 l 25
143.36 1474.56 m 25
 143.36 -53.248 l 25
430.08 1466.37 m 25
 430.08 -61.4404 l 25
286.72 -69.6318 m 25
 286.72 1458.18 l 25
 286.72 -69.6318 l 25
573.44 1470.46 m 25
 573.44 -57.3438 l 25
716.8 1466.37 m 25
 716.8 -61.4404 l 25
860.16 -49.1523 m 25
 860.16 1478.66 l 25
 860.16 -49.1523 l 25
143.36 1474.56 m 25
 143.36 -53.248 l 25
430.08 1466.37 m 25
 430.08 -61.4404 l 25
286.72 -69.6318 m 25
 286.72 1458.18 l 25
 286.72 -69.6318 l 25
573.44 1470.46 m 25
 573.44 -57.3438 l 25
716.8 1466.37 m 25
 716.8 -61.4404 l 25
860.16 -49.1523 m 25
 860.16 1478.66 l 25
 860.16 -49.1523 l 25
143.36 1474.56 m 25
 143.36 -53.248 l 25
430.08 1466.37 m 25
 430.08 -61.4404 l 25
286.72 -69.6318 m 25
 286.72 1458.18 l 25
 286.72 -69.6318 l 25
573.44 1470.46 m 25
 573.44 -57.3438 l 25
716.8 1466.37 m 25
 716.8 -61.4404 l 25
860.16 -49.1523 m 25
 860.16 1478.66 l 25
 860.16 -49.1523 l 25
143.36 1474.56 m 25
 143.36 -53.248 l 25
430.08 1466.37 m 25
 430.08 -61.4404 l 25
286.72 -69.6318 m 25
 286.72 1458.18 l 25
 286.72 -69.6318 l 25
573.44 1470.46 m 25
 573.44 -57.3438 l 25
716.8 1466.37 m 25
 716.8 -61.4404 l 25
860.16 -49.1523 m 25
 860.16 1478.66 l 25
 860.16 -49.1523 l 25
143.36 1474.56 m 25
 143.36 -53.248 l 25
430.08 1466.37 m 25
 430.08 -61.4404 l 25
286.72 -69.6318 m 25
 286.72 1458.18 l 25
 286.72 -69.6318 l 25
573.44 1470.46 m 25
 573.44 -57.3438 l 25
716.8 1466.37 m 25
 716.8 -61.4404 l 25
860.16 -49.1523 m 25
 860.16 1478.66 l 25
 860.16 -49.1523 l 25
143.36 1474.56 m 25
 143.36 -53.248 l 25
430.08 1466.37 m 25
 430.08 -61.4404 l 25
286.72 -69.6318 m 25
 286.72 1458.18 l 25
 286.72 -69.6318 l 25
573.44 1470.46 m 25
 573.44 -57.3438 l 25
716.8 1466.37 m 25
 716.8 -61.4404 l 25
860.16 -49.1523 m 25
 860.16 1478.66 l 25
 860.16 -49.1523 l 25
143.36 1474.56 m 25
 143.36 -53.248 l 25
430.08 1466.37 m 25
 430.08 -61.4404 l 25
286.72 -69.6318 m 25
 286.72 1458.18 l 25
 286.72 -69.6318 l 25
573.44 1470.46 m 25
 573.44 -57.3438 l 25
716.8 1466.37 m 25
 716.8 -61.4404 l 25
860.16 -49.1523 m 25
 860.16 1478.66 l 25
 860.16 -49.1523 l 25
143.36 1474.56 m 25
 143.36 -53.248 l 25
430.08 1466.37 m 25
 430.08 -61.4404 l 25
286.72 -69.6318 m 25
 286.72 1458.18 l 25
 286.72 -69.6318 l 25
573.44 1470.46 m 25
 573.44 -57.3438 l 25
716.8 1466.37 m 25
 716.8 -61.4404 l 25
860.16 -49.1523 m 25
 860.16 1478.66 l 25
 860.16 -49.1523 l 25
143.36 1474.56 m 25
 143.36 -53.248 l 25
430.08 1466.37 m 25
 430.08 -61.4404 l 25
286.72 -69.6318 m 25
 286.72 1458.18 l 25
 286.72 -69.6318 l 25
573.44 1470.46 m 25
 573.44 -57.3438 l 25
716.8 1466.37 m 25
 716.8 -61.4404 l 25
860.16 -49.1523 m 25
 860.16 1478.66 l 25
 860.16 -49.1523 l 25
143.36 1474.56 m 25
 143.36 -53.248 l 25
430.08 1466.37 m 25
 430.08 -61.4404 l 25
286.72 -69.6318 m 25
 286.72 1458.18 l 25
 286.72 -69.6318 l 25
573.44 1470.46 m 25
 573.44 -57.3438 l 25
716.8 1466.37 m 25
 716.8 -61.4404 l 25
860.16 -49.1523 m 25
 860.16 1478.66 l 25
 860.16 -49.1523 l 25
143.36 1474.56 m 25
 143.36 -53.248 l 25
430.08 1466.37 m 25
 430.08 -61.4404 l 25
286.72 -69.6318 m 25
 286.72 1458.18 l 25
 286.72 -69.6318 l 25
573.44 1470.46 m 25
 573.44 -57.3438 l 25
716.8 1466.37 m 25
 716.8 -61.4404 l 25
860.16 -49.1523 m 25
 860.16 1478.66 l 25
 860.16 -49.1523 l 25
143.36 1474.56 m 25
 143.36 -53.248 l 25
430.08 1466.37 m 25
 430.08 -61.4404 l 25
286.72 -69.6318 m 25
 286.72 1458.18 l 25
 286.72 -69.6318 l 25
573.44 1470.46 m 25
 573.44 -57.3438 l 25
716.8 1466.37 m 25
 716.8 -61.4404 l 25
860.16 -49.1523 m 25
 860.16 1478.66 l 25
 860.16 -49.1523 l 25
143.36 1474.56 m 25
 143.36 -53.248 l 25
430.08 1466.37 m 25
 430.08 -61.4404 l 25
286.72 -69.6318 m 25
 286.72 1458.18 l 25
 286.72 -69.6318 l 25
573.44 1470.46 m 25
 573.44 -57.3438 l 25
716.8 1466.37 m 25
 716.8 -61.4404 l 25
860.16 -49.1523 m 25
 860.16 1478.66 l 25
 860.16 -49.1523 l 25
EndSplineSet
Fore
SplineSet
489 582 m 0
 338 582 238 473 238 344 c 0
 238 207 346 106 489 106 c 0
 616 106 727 211 727 344 c 0
 727 487 603 582 489 582 c 0
457 717 m 0
 612 717 712 610 725 559 c 1
 725 655 l 1
 725 844 637 954 481 954 c 0
 387 954 301 922 256 877 c 1
 178 981 l 1
 248 1038 338 1090 481 1090 c 0
 693 1090 866 938 866 655 c 2
 866 532 l 2
 866 0 l 1
 727 0 l 1
 727 156 l 0
 727 158 l 1
 721 109 611 -29 456 -29 c 0
 243 -29 84 118 84 344 c 0
 84 559 252 717 457 717 c 0
EndSplineSet
EndChar

StartChar: b
Encoding: 98 98 121
Width: 1044
Flags: HMW
LayerCount: 2
Back
SplineSet
281 0 m 13
 129 0 l 5
 129 1454 l 5
 281 1454 l 5
 281 892 l 21
 324 1006 428 1102 586 1102 c 4
 812 1102 956 940 956 627 c 5
 956 0 l 5
 805 0 l 4
 805 527 l 5
 805 768 760 965 546 965 c 4
 332 965 281 780 281 540 c 4
 281 0 l 13
143.36 1474.56 m 25
 143.36 -53.248 l 25
430.08 1466.37 m 25
 430.08 -61.4404 l 25
286.72 -69.6318 m 25
 286.72 1458.18 l 25
 286.72 -69.6318 l 25
573.44 1470.46 m 25
 573.44 -57.3438 l 25
716.8 1466.37 m 25
 716.8 -61.4404 l 25
860.16 -49.1523 m 25
 860.16 1478.66 l 25
 860.16 -49.1523 l 25
EndSplineSet
Fore
SplineSet
281 1454 m 9
 281 886 l 1
 328 996 408 1102 580 1102 c 0
 860 1102 975 828 975 539 c 0
 975 254 860 -29 578 -29 c 0
 404 -29 328 76 281 184 c 9
 281 0 l 1
 129 0 l 1
 129 1454 l 1
 281 1454 l 9
821 539 m 0
 821 816 700 966 552 966 c 0
 404 966 276 812 276 537 c 0
 276 264 404 106 552 106 c 0
 700 106 821 264 821 539 c 0
EndSplineSet
EndChar

StartChar: c
Encoding: 99 99 122
Width: 921
Flags: HMW
LayerCount: 2
Back
SplineSet
1242 0 m 21
 228 537 l 5
 1242 1074 l 13
86.0156 532.48 m 0
 86.0156 843.366 286.032 1095.68 532.48 1095.68 c 0
 778.928 1095.68 978.944 843.366 978.944 532.48 c 0
 978.944 221.594 778.928 -30.7197 532.48 -30.7197 c 0
 286.032 -30.7197 86.0156 221.594 86.0156 532.48 c 0
239.616 530.432 m 0
 239.616 765.575 370.819 956.416 532.48 956.416 c 0
 694.141 956.416 825.344 765.575 825.344 530.432 c 0
 825.344 295.289 694.141 104.448 532.48 104.448 c 0
 370.819 104.448 239.616 295.289 239.616 530.432 c 0
143.36 1474.56 m 25
 143.36 -53.248 l 25
430.08 1466.37 m 25
 430.08 -61.4404 l 25
286.72 -69.6318 m 25
 286.72 1458.18 l 25
 286.72 -69.6318 l 25
573.44 1470.46 m 25
 573.44 -57.3438 l 25
716.8 1466.37 m 25
 716.8 -61.4404 l 25
860.16 -49.1523 m 25
 860.16 1478.66 l 25
 860.16 -49.1523 l 25
EndSplineSet
Fore
SplineSet
745 809 m 1
 725 866 639 958 537 958 c 1
 371 958 229 784 229 537 c 0
 229 272 367 106 535 106 c 0
 659 106 733 217 754 264 c 9
 876 187 l 1
 815 86 700 -29 535 -29 c 1
 268 -29 76 225 76 537 c 0
 76 823 250 1094 537 1094 c 0
 699 1094 811 993 876 875 c 1
 745 809 l 1
EndSplineSet
EndChar

StartChar: d
Encoding: 100 100 123
Width: 1044
Flags: HMW
LayerCount: 2
Back
SplineSet
761.856 1062.91 m 21
 913.408 1062.91 l 5
 913.408 -391.168 l 5
 761.856 -391.168 l 5
 761.856 163.84 l 21
 700.416 67.7812 626.688 -30.4951 481.28 -28.6719 c 5
 229.376 -28.6719 108.544 256 108.544 538.624 c 4
 108.544 821.248 225.28 1091.58 483.328 1091.58 c 5
 620.544 1091.58 706.56 995.328 761.856 894.976 c 5
 761.856 1062.91 l 21
262.144 538.624 m 4
 262.144 305.152 350.208 106.496 483.328 106.496 c 5
 622.592 106.496 765.952 278.528 765.952 536.576 c 5
 765.952 827.392 595.968 956.416 483.328 956.416 c 4
 352.256 956.416 262.144 778.24 262.144 538.624 c 4
143.36 1474.56 m 25
 143.36 -53.248 l 25
430.08 1466.37 m 25
 430.08 -61.4404 l 25
286.72 -69.6318 m 25
 286.72 1458.18 l 25
 286.72 -69.6318 l 25
573.44 1470.46 m 25
 573.44 -57.3438 l 25
716.8 1466.37 m 25
 716.8 -61.4404 l 25
860.16 -49.1523 m 25
 860.16 1478.66 l 25
 860.16 -49.1523 l 25
EndSplineSet
Fore
SplineSet
767 1454 m 17
 919 1454 l 1
 919 0 l 1
 767 0 l 1
 767 184 l 17
 720 76 644 -29 469 -29 c 0
 188 -29 73 255 73 539 c 0
 73 828 188 1102 468 1102 c 0
 640 1102 720 996 767 886 c 1
 767 1454 l 17
227 539 m 0
 227 264 348 106 496 106 c 0
 644 106 772 264 772 537 c 0
 772 812 644 966 496 966 c 0
 348 966 227 816 227 539 c 0
EndSplineSet
EndChar

StartChar: e
Encoding: 101 101 124
Width: 1013
Flags: HMW
LayerCount: 2
Back
SplineSet
143.36 1474.56 m 25
 143.36 -53.248 l 25
430.08 1466.37 m 25
 430.08 -61.4404 l 25
286.72 -69.6318 m 25
 286.72 1458.18 l 25
 286.72 -69.6318 l 25
573.44 1470.46 m 25
 573.44 -57.3438 l 25
716.8 1466.37 m 25
 716.8 -61.4404 l 25
860.16 -49.1523 m 25
 860.16 1478.66 l 25
 860.16 -49.1523 l 25
EndSplineSet
Fore
SplineSet
257 604 m 1
 779 604 l 1
 768 784 676 958 518 958 c 0
 358 958 268 774 257 604 c 1
257 469 m 1
 272 286 358 106 518 106 c 0
 612 106 720 162 763 243 c 0
 896 188 l 0
 827 55 673 -29 518 -29 c 0
 251 -29 98 223 98 537 c 0
 98 852 252 1094 518 1094 c 0
 787 1094 924 828 924 565 c 0
 924 543 925 492 925 469 c 1
 257 469 l 1
EndSplineSet
EndChar

StartChar: f
Encoding: 102 102 125
Width: 716
Flags: HMW
LayerCount: 2
Back
SplineSet
143.36 1474.56 m 25
 143.36 -53.248 l 25
430.08 1466.37 m 25
 430.08 -61.4404 l 25
286.72 -69.6318 m 25
 286.72 1458.18 l 25
 286.72 -69.6318 l 25
573.44 1470.46 m 25
 573.44 -57.3438 l 25
716.8 1466.37 m 25
 716.8 -61.4404 l 25
860.16 -49.1523 m 25
 860.16 1478.66 l 25
 860.16 -49.1523 l 25
EndSplineSet
Fore
SplineSet
416 938 m 0
 416 0 l 1
 264 0 l 1
 264 938 l 0
 125 938 l 1
 125 1073 l 1
 263 1073 l 1
 263 1208 l 0
 263 1376 444 1481 545 1481 c 0
 631 1481 676 1444 723 1399 c 9
 614 1294 l 17
 592 1323 573 1346 514 1346 c 1
 463 1346 417 1311 417 1249 c 0
 417 1073 l 1
 612 1073 l 1
 612 938 l 1
 416 938 l 0
EndSplineSet
EndChar

StartChar: g
Encoding: 103 103 126
Width: 1021
Flags: HMW
LayerCount: 2
Back
SplineSet
741.376 1062.91 m 21
 892.928 1062.91 l 5
 892.928 -391.168 l 5
 741.376 -391.168 l 5
 741.376 163.84 l 21
 679.936 67.7822 606.208 -30.4961 460.8 -28.6719 c 5
 208.896 -28.6719 88.0645 256 88.0645 538.624 c 4
 88.0645 821.248 204.8 1091.58 462.848 1091.58 c 5
 600.064 1091.58 686.08 995.328 741.376 894.976 c 5
 741.376 1062.91 l 21
241.664 538.624 m 4
 241.664 305.152 329.728 106.496 462.848 106.496 c 5
 602.112 106.496 745.472 278.528 745.472 536.576 c 5
 745.472 827.392 575.488 956.416 462.848 956.416 c 4
 331.776 956.416 241.664 778.24 241.664 538.624 c 4
1003.52 -49.1523 m 25
 1003.52 1478.66 l 25
 1003.52 -49.1523 l 25
143.36 1474.56 m 25
 143.36 -53.248 l 25
430.08 1466.37 m 25
 430.08 -61.4404 l 25
286.72 -69.6318 m 25
 286.72 1458.18 l 25
 286.72 -69.6318 l 25
573.44 1470.46 m 25
 573.44 -57.3438 l 25
716.8 1466.37 m 25
 716.8 -61.4404 l 25
860.16 -49.1523 m 25
 860.16 1478.66 l 25
 860.16 -49.1523 l 25
EndSplineSet
Fore
SplineSet
919 -18 m 1
 919 -291 715 -449 513 -449 c 0
 257 -449 114 -253 97 -109 c 1
 240 -109 l 17
 259 -229 386 -313 504 -313 c 0
 629 -313 767 -225 767 -33 c 0
 767 0 l 2
 767 184 l 17
 720 76 644 -29 470 -29 c 0
 188 -29 73 255 73 539 c 0
 73 828 188 1102 468 1102 c 0
 640 1102 720 996 767 886 c 1
 767 1073 l 17
 919 1073 l 1
 919 0 l 1
 919 -18 l 1
227 539 m 0
 227 264 348 106 496 106 c 0
 644 106 772 264 772 537 c 0
 772 812 644 966 496 966 c 0
 348 966 227 816 227 539 c 0
EndSplineSet
EndChar

StartChar: h
Encoding: 104 104 127
Width: 1064
Flags: HMW
LayerCount: 2
Back
SplineSet
1003.52 -49.1523 m 25
 1003.52 1478.66 l 25
 1003.52 -49.1523 l 25
143.36 1474.56 m 25
 143.36 -53.248 l 25
430.08 1466.37 m 25
 430.08 -61.4404 l 25
286.72 -69.6318 m 25
 286.72 1458.18 l 25
 286.72 -69.6318 l 25
573.44 1470.46 m 25
 573.44 -57.3438 l 25
716.8 1466.37 m 25
 716.8 -61.4404 l 25
860.16 -49.1523 m 25
 860.16 1478.66 l 25
 860.16 -49.1523 l 25
EndSplineSet
Fore
SplineSet
281 0 m 9
 129 0 l 1
 129 1456 l 1
 281 1456 l 1
 281 892 l 17
 316 1004 428 1102 586 1102 c 0
 800 1102 956 933 956 541 c 2
 956 0 l 1
 805 0 l 0
 805 541 l 1
 805 774 732 965 546 965 c 0
 360 965 281 768 281 540 c 0
 281 0 l 9
EndSplineSet
EndChar

StartChar: i
Encoding: 105 105 128
Width: 430
Flags: HMW
LayerCount: 2
Back
SplineSet
143.36 1474.56 m 25
 143.36 -53.248 l 25
430.08 1466.37 m 25
 430.08 -61.4404 l 25
286.72 -69.6318 m 25
 286.72 1458.18 l 25
 286.72 -69.6318 l 25
573.44 1470.46 m 25
 573.44 -57.3438 l 25
716.8 1466.37 m 25
 716.8 -61.4404 l 25
860.16 -49.1523 m 25
 860.16 1478.66 l 25
 860.16 -49.1523 l 25
EndSplineSet
Fore
SplineSet
131 1333 m 0
 131 1384 174 1427 225 1427 c 0
 270 1427 308 1395 317 1352 c 0
 319 1346 319 1340 319 1333 c 0
 319 1282 276 1239 225 1239 c 0
 181 1239 142 1272 133 1314 c 0
 132 1320 131 1327 131 1333 c 0
150 1073 m 1
 301 1073 l 1
 301 0 l 1
 150 0 l 1
 150 1073 l 1
EndSplineSet
EndChar

StartChar: j
Encoding: 106 106 129
Width: 468
Flags: HMW
LayerCount: 2
Back
SplineSet
188.416 114.688 m 4
 188.416 1052.67 l 5
 339.968 1052.67 l 5
 339.968 114.688 l 4
 479.232 114.688 l 5
 479.232 -20.4805 l 5
 339.968 -20.4805 l 5
 340.851 -155.648 l 4
 340.851 -323.584 159.744 -428.032 59.3896 -428.032 c 4
 -26.624 -428.032 -71.6797 -391.168 -118.784 -346.112 c 13
 -10.2402 -241.664 l 21
 12.2881 -270.336 30.7197 -292.863 90.1143 -292.863 c 5
 141.312 -292.863 187.478 -258.048 187.478 -196.608 c 4
 188.416 -20.4805 l 5
 -8.19238 -20.4805 l 5
 -8.19238 114.688 l 5
 188.416 114.688 l 4
143.36 1474.56 m 25
 143.36 -53.248 l 25
430.08 1466.37 m 25
 430.08 -61.4404 l 25
286.72 -69.6318 m 25
 286.72 1458.18 l 25
 286.72 -69.6318 l 25
573.44 1470.46 m 25
 573.44 -57.3438 l 25
716.8 1466.37 m 25
 716.8 -61.4404 l 25
860.16 -49.1523 m 25
 860.16 1478.66 l 25
 860.16 -49.1523 l 25
EndSplineSet
Fore
SplineSet
170 1333 m 0
 170 1384 213 1427 264 1427 c 0
 313 1427 358 1386 358 1333 c 0
 358 1282 315 1239 264 1239 c 0
 215 1239 170 1280 170 1333 c 0
-119 -346 m 9
 -12 -244 l 1
 12 -266 37 -293 86 -293 c 1
 154 -293 188 -254 188 -170 c 0
 188 0 l 1
 188 1073 l 1
 340 1073 l 0
 340 0 l 1
 340 -139 l 0
 340 -360 125 -428 55 -428 c 1
 -35 -428 -80 -383 -119 -346 c 9
EndSplineSet
EndChar

StartChar: k
Encoding: 107 107 130
Width: 944
Flags: HMW
LayerCount: 2
Back
SplineSet
143.36 1474.56 m 29
 143.36 -53.248 l 29
430.08 1466.37 m 29
 430.08 -61.4404 l 29
286.72 -69.6318 m 29
 286.72 1458.18 l 29
 286.72 -69.6318 l 29
573.44 1470.46 m 29
 573.44 -57.3438 l 29
716.8 1466.37 m 29
 716.8 -61.4404 l 29
860.16 -49.1523 m 29
 860.16 1478.66 l 29
 860.16 -49.1523 l 29
EndSplineSet
Fore
SplineSet
479 616 m 1
 940 0 l 1
 766 0 l 1
 387 512 l 1
 281 379 l 1
 281 0 l 1
 129 0 l 1
 129 1454 l 1
 281 1454 l 1
 281 582 l 17
 690 1073 l 1
 864 1073 l 1
 479 616 l 1
EndSplineSet
EndChar

StartChar: l
Encoding: 108 108 131
Width: 430
Flags: HMW
LayerCount: 2
Back
SplineSet
143.36 1474.56 m 29
 143.36 -53.248 l 29
430.08 1466.37 m 29
 430.08 -61.4404 l 29
286.72 -69.6318 m 29
 286.72 1458.18 l 29
 286.72 -69.6318 l 29
573.44 1470.46 m 29
 573.44 -57.3438 l 29
716.8 1466.37 m 29
 716.8 -61.4404 l 29
860.16 -49.1523 m 29
 860.16 1478.66 l 29
 860.16 -49.1523 l 29
EndSplineSet
Fore
SplineSet
301 207 m 1
 301 196 302 186 304 177 c 0
 315 124 360 102 420 102 c 1
 420 -29 l 1
 279 -29 184 9 157 134 c 0
 153 155 150 177 150 203 c 1
 150 1454 l 1
 301 1454 l 1
 301 207 l 1
EndSplineSet
EndChar

StartChar: braceleft
Encoding: 123 123 132
Width: 747
Flags: HMW
LayerCount: 2
Fore
SplineSet
90 729 m 1
 360 815 252 1276 305 1401 c 1
 367 1526 498 1526 635 1530 c 1
 635 1395 l 1
 621 1397 606 1399 592 1399 c 0
 539 1399 467 1378 440 1339 c 1
 430 1321 428 1282 428 1237 c 0
 428 1223 428 1208 428 1192 c 0
 428 1071 403 770 303 729 c 1
 348 712 378 636 397 547 c 0
 421 437 428 307 428 238 c 0
 428 195 l 0
 428 159 429 129 434 108 c 0
 435 100 437 93 440 88 c 1
 467 49 539 29 592 29 c 0
 606 29 621 31 635 33 c 1
 635 -102 l 1
 498 -98 367 -98 305 27 c 1
 302 34 299 43 297 53 c 0
 277 147 298 341 264 499 c 0
 241 607 193 698 90 729 c 1
EndSplineSet
EndChar

StartChar: bar
Encoding: 124 124 133
Width: 368
Flags: HMW
LayerCount: 2
Fore
SplineSet
125 0 m 17
 125 1454 l 1
 268 1454 l 1
 268 0 l 9
 125 0 l 17
EndSplineSet
EndChar

StartChar: braceright
Encoding: 125 125 134
Width: 747
Flags: HMW
LayerCount: 2
Fore
SplineSet
678 729 m 1
 408 647 516 158 463 33 c 1
 401 -92 270 -92 133 -96 c 1
 133 39 l 1
 147 37 162 35 176 35 c 0
 229 35 301 55 328 94 c 1
 338 113 340 152 340 201 c 0
 340 244 l 0
 340 371 365 692 465 729 c 1
 417 748 387 826 368 915 c 0
 347 1015 340 1128 340 1192 c 0
 340 1208 340 1223 340 1237 c 0
 340 1269 339 1299 335 1319 c 0
 333 1327 331 1334 328 1339 c 1
 301 1378 229 1399 176 1399 c 0
 162 1399 147 1397 133 1395 c 1
 133 1530 l 1
 270 1526 401 1526 463 1401 c 1
 466 1393 469 1384 471 1373 c 0
 490 1283 471 1106 503 958 c 0
 525 853 573 763 678 729 c 1
EndSplineSet
EndChar

StartChar: asciitilde
Encoding: 126 126 135
Width: 735
Flags: HMW
LayerCount: 2
Fore
SplineSet
63 764 m 17
 109 801 168 860 246 860 c 0
 344 860 408 709 512 709 c 1
 582 709 639 762 700 807 c 9
 700 662 l 17
 639 614 586 563 512 563 c 0
 397 563 326 715 244 715 c 0
 166 715 119 664 63 618 c 9
 63 764 l 17
EndSplineSet
EndChar

StartChar: cent
Encoding: 162 162 137
Width: 808
Flags: HMW
LayerCount: 2
Fore
SplineSet
381 279 m 1
 242 296 125 393 90 556 c 0
 83 587 80 621 80 657 c 0
 80 872 252 963 377 993 c 1
 377 1208 l 1
 512 1208 l 1
 512 993 l 1
 592 973 657 928 711 881 c 9
 676 844 621 786 621 786 c 0
 592 815 539 866 434 866 c 1
 324 866 223 778 223 653 c 0
 223 628 226 604 230 582 c 0
 254 471 334 406 440 406 c 0
 522 406 592 438 649 512 c 9
 739 422 l 1
 698 356 614 305 516 274 c 1
 516 78 l 1
 381 78 l 1
 381 279 l 1
EndSplineSet
EndChar

StartChar: sterling
Encoding: 163 163 138
Width: 1120
Flags: HMW
LayerCount: 2
Fore
SplineSet
311 596 m 1
 84 596 l 1
 84 731 l 1
 322 731 l 1
 322 1200 399 1466 596 1466 c 0
 739 1466 850 1376 924 1169 c 1
 780 1163 l 1
 760 1245 702 1333 596 1333 c 0
 530 1333 475 1094 475 934 c 0
 475 903 475 842 475 809 c 0
 475 782 475 758 475 731 c 1
 834 731 l 1
 834 596 l 1
 469 596 l 1
 458 444 402 253 362 135 c 1
 866 135 l 1
 899 137 934 139 983 207 c 1
 1063 92 l 1
 1016 20 934 12 854 0 c 1
 145 0 l 1
 178 131 298 380 311 596 c 1
EndSplineSet
EndChar

StartChar: currency
Encoding: 164 164 139
Width: 856
Flags: HMW
LayerCount: 2
Fore
SplineSet
260 764 m 0
 260 751 261 738 264 726 c 0
 281 644 354 583 441 583 c 0
 541 583 621 664 621 764 c 0
 621 777 620 790 617 802 c 0
 600 884 528 945 441 945 c 0
 340 945 260 864 260 764 c 0
616 504 m 1
 565 469 504 449 438 449 c 0
 373 449 311 469 260 504 c 1
 260 375 l 1
 63 375 l 1
 63 571 l 1
 190 571 l 1
 162 608 142 651 132 698 c 0
 127 718 125 740 125 762 c 0
 125 831 147 895 184 946 c 1
 63 946 l 1
 63 1143 l 1
 260 1143 l 1
 260 1020 l 1
 311 1055 373 1075 438 1075 c 0
 504 1075 565 1055 616 1020 c 1
 616 1143 l 1
 813 1143 l 1
 813 946 l 1
 692 946 l 1
 717 912 735 872 745 828 c 0
 749 807 752 785 752 762 c 0
 752 690 727 625 686 571 c 1
 813 571 l 1
 813 375 l 1
 616 375 l 1
 616 504 l 1
EndSplineSet
EndChar

StartChar: yen
Encoding: 165 165 140
Width: 1110
Flags: HMW
LayerCount: 2
Fore
SplineSet
471 682 m 1
 160 682 l 1
 160 817 l 1
 418 817 l 1
 74 1397 l 1
 229 1397 l 1
 553 831 l 1
 897 1397 l 1
 1053 1397 l 1
 680 817 l 1
 928 817 l 1
 928 682 l 1
 623 682 l 1
 623 467 l 1
 928 467 l 1
 928 332 l 1
 623 332 l 1
 623 0 l 1
 471 0 l 1
 471 332 l 1
 160 332 l 1
 160 467 l 1
 471 467 l 1
 471 682 l 1
EndSplineSet
EndChar

StartChar: brokenbar
Encoding: 166 166 141
Width: 305
Flags: HMW
LayerCount: 2
Fore
SplineSet
233 645 m 17
 233 0 l 1
 90 0 l 1
 90 645 l 9
 233 645 l 17
90 788 m 17
 90 1434 l 1
 233 1434 l 1
 233 788 l 9
 90 788 l 17
EndSplineSet
EndChar

StartChar: section
Encoding: 167 167 142
Width: 686
Flags: HMW
LayerCount: 2
Fore
SplineSet
186 958 m 1
 205 964 227 967 252 967 c 0
 432 967 615 826 658 622 c 0
 664 593 668 562 668 530 c 0
 668 307 526 104 350 104 c 0
 231 104 133 153 51 291 c 9
 201 301 l 17
 227 264 295 240 334 240 c 2
 338 240 l 2
 436 240 502 328 522 440 c 0
 522 442 l 0
 522 445 520 445 517 445 c 0
 505 445 475 432 457 432 c 0
 282 432 101 540 54 759 c 0
 47 794 43 832 43 872 c 0
 43 1090 170 1294 358 1294 c 0
 494 1294 555 1245 643 1130 c 1
 489 1114 l 0
 465 1141 408 1159 375 1159 c 2
 371 1159 l 2
 264 1159 211 1069 186 958 c 1
506 582 m 0
 506 596 504 611 501 625 c 0
 479 729 381 831 250 831 c 0
 227 831 211 827 195 817 c 1
 195 805 196 793 198 781 c 0
 221 674 342 567 451 567 c 0
 456 567 462 567 469 567 c 0
 487 567 506 569 506 582 c 0
EndSplineSet
EndChar

StartChar: dieresis
Encoding: 168 168 143
Width: 794
Flags: HMW
LayerCount: 2
Fore
SplineSet
547 1685 m 0
 547 1710 556 1732 575 1751 c 0
 594 1770 616 1779 641 1779 c 0
 663 1779 683 1772 700 1758 c 0
 717 1744 728 1725 733 1704 c 0
 734 1699 735 1693 735 1685 c 0
 735 1659 726 1637 707 1618 c 0
 688 1599 666 1590 641 1590 c 0
 619 1590 599 1598 582 1612 c 0
 565 1626 554 1644 549 1666 c 0
 548 1674 547 1680 547 1685 c 0
76 1683 m 0
 76 1708 85 1730 104 1749 c 0
 123 1768 145 1777 170 1777 c 0
 192 1777 212 1770 229 1756 c 0
 246 1742 257 1723 262 1702 c 0
 263 1697 264 1691 264 1683 c 0
 264 1657 255 1635 236 1616 c 0
 217 1597 195 1588 170 1588 c 0
 148 1588 128 1596 111 1610 c 0
 94 1624 83 1642 78 1664 c 0
 77 1668 76 1674 76 1683 c 0
EndSplineSet
EndChar

StartChar: copyright
Encoding: 169 169 144
Width: 942
Flags: HMW
LayerCount: 2
Fore
SplineSet
629 610 m 17
 592 573 537 543 479 543 c 0
 380 543 297 612 277 706 c 0
 274 720 272 735 272 750 c 0
 272 864 365 956 479 956 c 0
 537 956 592 934 629 897 c 9
 551 815 l 17
 532 831 506 844 479 844 c 0
 428 844 385 801 385 750 c 0
 385 743 386 737 387 731 c 0
 396 688 435 655 479 655 c 0
 506 655 537 666 555 682 c 9
 629 610 l 17
158 750 m 0
 158 726 160 704 165 682 c 0
 196 536 324 426 479 426 c 0
 657 426 801 571 801 750 c 0
 801 773 798 796 794 818 c 0
 763 963 634 1073 479 1073 c 0
 301 1073 158 928 158 750 c 0
41 750 m 0
 41 991 238 1188 479 1188 c 0
 690 1188 866 1039 908 841 c 0
 914 811 918 781 918 750 c 0
 918 508 721 311 479 311 c 0
 269 311 93 460 51 658 c 0
 44 688 41 718 41 750 c 0
EndSplineSet
EndChar

StartChar: guillemotleft
Encoding: 171 171 145
Width: 872
Flags: HMW
LayerCount: 2
Fore
SplineSet
653 1118 m 1
 788 1118 l 1
 596 827 l 1
 788 537 l 1
 653 537 l 1
 461 827 l 1
 653 1118 l 1
252 1118 m 1
 387 1118 l 1
 195 827 l 1
 387 537 l 1
 252 537 l 1
 59 827 l 1
 252 1118 l 1
EndSplineSet
EndChar

StartChar: logicalnot
Encoding: 172 172 146
Width: 1026
Flags: HMW
LayerCount: 2
Fore
SplineSet
920 545 m 1
 784 545 l 1
 784 750 l 0
 154 750 l 1
 154 893 l 1
 920 893 l 1
 920 545 l 1
EndSplineSet
EndChar

StartChar: registered
Encoding: 174 174 148
Width: 1189
Flags: HMW
LayerCount: 2
Fore
SplineSet
211 750 m 0
 211 716 214 685 220 656 c 0
 264 451 450 358 602 358 c 0
 780 358 995 500 995 750 c 0
 995 780 992 809 986 836 c 0
 942 1046 738 1143 602 1143 c 0
 424 1143 211 1016 211 750 c 0
94 750 m 0
 94 1102 379 1260 602 1260 c 0
 842 1260 1050 1097 1101 861 c 0
 1108 825 1112 788 1112 750 c 0
 1112 446 858 242 602 242 c 0
 396 242 161 374 106 632 c 0
 98 669 94 708 94 750 c 0
508 801 m 1
 524 801 541 801 559 801 c 0
 637 801 713 807 713 866 c 1
 713 870 712 874 712 877 c 0
 701 928 613 932 537 932 c 0
 526 932 516 932 508 932 c 1
 508 801 l 1
426 1010 m 0
 508 1010 l 1
 646 1010 771 978 790 890 c 0
 792 883 793 875 793 866 c 0
 793 766 719 750 653 735 c 1
 815 496 l 1
 715 496 l 1
 573 723 l 1
 508 721 l 1
 508 496 l 1
 426 496 l 1
 426 1010 l 0
EndSplineSet
EndChar

StartChar: macron
Encoding: 175 175 149
Width: 950
Flags: HMW
LayerCount: 2
Fore
SplineSet
188 1321 m 1
 865 1321 l 1
 865 1215 l 1
 188 1215 l 1
 188 1321 l 1
EndSplineSet
EndChar

StartChar: degree
Encoding: 176 176 150
Width: 598
Flags: HMW
LayerCount: 2
Fore
SplineSet
167 1178 m 0
 167 1166 168 1155 170 1144 c 0
 184 1077 241 1028 311 1028 c 0
 392 1028 455 1094 455 1178 c 0
 455 1189 454 1200 452 1211 c 0
 438 1278 381 1328 311 1328 c 0
 230 1328 167 1261 167 1178 c 0
49 1174 m 0
 49 1317 166 1432 311 1432 c 0
 438 1432 543 1344 568 1227 c 0
 572 1210 573 1192 573 1174 c 0
 573 1030 457 915 311 915 c 0
 185 915 80 1003 55 1120 c 0
 51 1137 49 1155 49 1174 c 0
EndSplineSet
EndChar

StartChar: acute
Encoding: 180 180 152
Width: 550
Flags: HMW
LayerCount: 2
Fore
SplineSet
76 1676 m 2
 357 1926 l 1
 373 1939 388 1944 405 1944 c 0
 411 1944 417 1944 423 1942 c 0
 440 1938 453 1928 463 1914 c 1
 474 1901 480 1885 480 1868 c 0
 480 1861 478 1856 477 1851 c 0
 473 1836 464 1822 450 1810 c 1
 145 1591 l 2
 137 1585 128 1582 119 1582 c 0
 115 1582 110 1583 105 1584 c 0
 92 1587 81 1594 73 1604 c 1
 65 1615 60 1626 60 1639 c 0
 60 1644 61 1649 62 1653 c 0
 64 1661 69 1669 76 1676 c 2
EndSplineSet
EndChar

StartChar: uni00B5
Encoding: 181 181 153
Width: 1003
Flags: HMW
LayerCount: 2
Fore
SplineSet
297 74 m 1
 297 -395 l 1
 154 -395 l 1
 154 872 l 1
 299 872 l 0
 299 414 l 0
 299 363 303 319 311 282 c 0
 337 159 404 111 496 111 c 1
 655 111 727 291 727 414 c 0
 727 872 l 9
 870 872 l 1
 870 0 l 1
 727 0 l 1
 727 98 l 17
 668 25 586 -27 506 -27 c 0
 383 -27 342 29 297 74 c 1
EndSplineSet
EndChar

StartChar: paragraph
Encoding: 182 182 154
Width: 1150
Flags: HMW
LayerCount: 2
Fore
SplineSet
645 1260 m 1
 645 748 l 1
 680 748 825 739 862 739 c 1
 862 1272 l 1
 827 1272 682 1260 645 1260 c 1
502 1227 m 1
 395 1192 264 1135 264 995 c 1
 264 977 266 961 269 946 c 0
 293 831 404 799 502 774 c 1
 502 1227 l 1
645 135 m 1
 862 135 l 1
 862 612 l 1
 825 612 682 623 645 623 c 1
 645 135 l 1
502 0 m 1
 502 643 l 1
 313 684 165 745 129 912 c 0
 124 938 121 965 121 995 c 0
 121 1266 457 1397 817 1397 c 1
 1014 1397 l 0
 1014 0 l 1
 502 0 l 1
EndSplineSet
EndChar

StartChar: cedilla
Encoding: 184 184 156
Width: 473
Flags: HMW
LayerCount: 2
Fore
SplineSet
117 -190 m 1
 147 -168 211 -123 211 -86 c 0
 211 -81 210 -76 209 -71 c 0
 204 -45 183 -21 156 18 c 0
 285 74 l 0
 320 40 353 -6 365 -60 c 0
 367 -72 369 -85 369 -98 c 0
 369 -209 229 -270 160 -315 c 1
 117 -190 l 1
EndSplineSet
EndChar

StartChar: guillemotright
Encoding: 187 187 157
Width: 933
Flags: HMW
LayerCount: 2
Fore
SplineSet
233 1118 m 1
 426 827 l 1
 233 537 l 1
 98 537 l 1
 291 827 l 1
 98 1118 l 1
 233 1118 l 1
635 1118 m 1
 827 827 l 1
 635 537 l 1
 500 537 l 1
 692 827 l 1
 500 1118 l 1
 635 1118 l 1
EndSplineSet
EndChar

StartChar: AE
Encoding: 198 198 165
Width: 1388
Flags: HMW
LayerCount: 2
Fore
SplineSet
785 645 m 1
 521 645 l 0
 262 0 l 0
 83 0 l 1
 674 1456 l 1
 1383 1456 l 1
 1383 1307 l 0
 941 1307 l 0
 941 788 l 1
 1383 788 l 1
 1383 641 l 0
 941 641 l 0
 941 147 l 0
 1383 147 l 1
 1383 0 l 1
 785 0 l 1
 785 645 l 1
783 1237 m 1
 783 1311 l 1
 581 788 l 1
 785 788 l 1
 783 1237 l 1
EndSplineSet
EndChar

StartChar: Eth
Encoding: 208 208 175
Width: 1378
Flags: HMW
LayerCount: 2
Fore
SplineSet
326 662 m 1
 144 662 l 1
 144 803 l 1
 326 803 l 1
 326 1456 l 1
 707 1456 l 1
 1010 1456 1226 1235 1291 928 c 0
 1304 864 1311 796 1311 726 c 1
 1311 319 1067 0 707 0 c 0
 481 0 l 1
 326 0 l 1
 326 662 l 1
483 662 m 1
 483 143 l 1
 707 143 l 1
 964 143 1154 379 1154 726 c 1
 1154 789 1148 848 1136 903 c 0
 1083 1152 918 1312 707 1312 c 1
 483 1312 l 1
 483 803 l 1
 783 803 l 1
 783 662 l 1
 483 662 l 1
EndSplineSet
EndChar

StartChar: figuredash
Encoding: 8210 8210 185
Width: 1087
Flags: HMW
LayerCount: 2
Fore
SplineSet
170 676 m 1
 938 676 l 1
 938 541 l 1
 170 541 l 1
 170 676 l 1
EndSplineSet
EndChar

StartChar: endash
Encoding: 8211 8211 186
Width: 1001
Flags: HMW
LayerCount: 2
Fore
SplineSet
170 676 m 1
 856 676 l 1
 856 541 l 1
 170 541 l 1
 170 676 l 1
EndSplineSet
EndChar

StartChar: emdash
Encoding: 8212 8212 187
Width: 1290
Flags: HMW
LayerCount: 2
Fore
SplineSet
150 676 m 1
 1159 676 l 1
 1159 541 l 1
 150 541 l 1
 150 676 l 1
EndSplineSet
EndChar

StartChar: dcaron
Encoding: 271 271 205
Width: 1208
Flags: HMW
LayerCount: 2
Fore
SplineSet
1178 1428 m 0
 1178 1405 1176 1380 1172 1357 c 0
 1168 1334 1162 1312 1153 1291 c 0
 1144 1270 1137 1255 1131 1242 c 0
 1125 1229 1117 1215 1108 1199 c 0
 1093 1176 l 0
 1054 1200 l 0
 1088 1255 1104 1303 1104 1343 c 0
 1086 1343 1070 1349 1056 1362 c 0
 1042 1375 1034 1390 1030 1410 c 0
 1029 1415 1028 1422 1028 1428 c 0
 1028 1452 1036 1472 1051 1489 c 0
 1066 1506 1083 1514 1104 1514 c 0
 1122 1514 1138 1507 1152 1494 c 0
 1165 1482 1178 1462 1178 1441 c 0
 1178 1437 1178 1433 1178 1428 c 0
EndSplineSet
Refer: 123 100 N 1 0 0 1 0 0 2
EndChar

StartChar: Dcroat
Encoding: 272 272 206
Width: 1378
Flags: HMW
LayerCount: 2
Fore
SplineSet
288 662 m 1
 106 662 l 1
 106 803 l 1
 288 803 l 1
 288 1456 l 1
 668 1456 l 2
 816 1456 942 1407 1046 1310 c 0
 1150 1213 1219 1085 1252 928 c 0
 1265 863 1273 795 1273 726 c 0
 1273 591 1248 468 1198 358 c 0
 1148 248 1077 160 984 96 c 0
 891 32 785 0 668 0 c 2
 442 0 l 1
 288 0 l 1
 288 662 l 1
445 662 m 1
 445 143 l 1
 668 143 l 2
 797 143 905 198 989 306 c 0
 1073 414 1116 554 1116 726 c 0
 1116 789 1110 848 1098 903 c 0
 1071 1028 1019 1127 942 1201 c 0
 865 1275 773 1312 668 1312 c 2
 445 1312 l 1
 445 803 l 1
 744 803 l 1
 744 662 l 1
 445 662 l 1
EndSplineSet
EndChar

StartChar: dcroat
Encoding: 273 273 207
Width: 1044
Flags: HMW
LayerCount: 2
Fore
SplineSet
282 539 m 0
 282 406 308 300 359 222 c 0
 410 144 474 106 551 106 c 0
 628 106 694 144 747 222 c 0
 800 300 827 405 827 537 c 0
 827 670 800 774 747 851 c 0
 694 928 628 966 551 966 c 0
 474 966 409 928 358 852 c 0
 307 776 282 672 282 539 c 0
822 1454 m 1
 974 1454 l 1
 974 1321 l 1
 1106 1321 l 1
 1106 1179 l 1
 974 1179 l 1
 974 0 l 1
 822 0 l 1
 822 184 l 1
 809 154 794 127 779 104 c 0
 764 81 745 59 722 38 c 0
 699 17 670 0 637 -12 c 0
 604 -24 566 -29 524 -29 c 0
 469 -29 420 -18 375 3 c 0
 330 24 293 53 263 89 c 0
 233 125 208 167 187 216 c 0
 166 265 151 316 142 370 c 0
 133 424 128 480 128 539 c 0
 128 614 136 684 151 750 c 0
 166 816 189 874 220 928 c 0
 251 982 292 1025 344 1056 c 0
 396 1087 456 1102 523 1102 c 0
 564 1102 602 1096 635 1084 c 0
 668 1072 697 1056 720 1034 c 0
 743 1012 763 990 779 966 c 0
 795 942 809 916 822 886 c 1
 822 1179 l 1
 575 1179 l 1
 575 1321 l 1
 822 1321 l 1
 822 1454 l 1
EndSplineSet
EndChar

StartChar: Lcaron
Encoding: 317 317 214
Width: 1105
Flags: HMW
LayerCount: 2
Fore
SplineSet
488 1428 m 0
 488 1405 486 1380 482 1357 c 0
 478 1334 472 1312 463 1291 c 0
 454 1270 447 1255 441 1242 c 0
 435 1229 427 1215 418 1199 c 0
 403 1176 l 0
 364 1200 l 0
 398 1255 414 1303 414 1343 c 0
 396 1343 380 1349 366 1362 c 0
 352 1375 344 1390 340 1410 c 0
 339 1415 338 1422 338 1428 c 0
 338 1452 346 1472 361 1489 c 0
 376 1506 393 1514 414 1514 c 0
 432 1514 448 1507 462 1494 c 0
 475 1482 488 1462 488 1441 c 0
 488 1437 488 1433 488 1428 c 0
EndSplineSet
Refer: 99 76 N 1 0 0 1 0 0 2
EndChar

StartChar: lcaron
Encoding: 318 318 215
Width: 536
Flags: HMW
LayerCount: 2
Fore
SplineSet
488 1428 m 0
 488 1405 486 1380 482 1357 c 0
 478 1334 472 1312 463 1291 c 0
 454 1270 447 1255 441 1242 c 0
 435 1229 427 1215 418 1199 c 0
 403 1176 l 0
 364 1200 l 0
 398 1255 414 1303 414 1343 c 0
 396 1343 380 1349 366 1362 c 0
 352 1375 344 1390 340 1410 c 0
 339 1415 338 1422 338 1428 c 0
 338 1452 346 1472 361 1489 c 0
 376 1506 393 1514 414 1514 c 0
 432 1514 448 1507 462 1494 c 0
 475 1482 488 1462 488 1441 c 0
 488 1437 488 1433 488 1428 c 0
EndSplineSet
Refer: 131 108 N 1 0 0 1 0 0 2
EndChar

StartChar: Lslash
Encoding: 321 321 216
Width: 1105
Flags: HMW
LayerCount: 2
Fore
SplineSet
17 510 m 1
 18 712 l 1
 121 816 l 1
 121 1456 l 1
 279 1456 l 1
 279 976 l 1
 404 1102 l 1
 405 894 l 1
 279 769 l 1
 279 141 l 1
 1044 141 l 1
 1044 0 l 1
 121 0 l 1
 121 613 l 1
 17 510 l 1
EndSplineSet
EndChar

StartChar: Scedilla
Encoding: 350 350 228
Width: 1079
Flags: HMW
LayerCount: 2
Fore
SplineSet
45 327 m 1
 215 358 l 1
 229 300 267 245 330 192 c 0
 393 139 462 113 539 113 c 0
 633 113 713 137 780 185 c 0
 847 233 881 295 881 371 c 0
 881 398 876 425 866 450 c 0
 856 475 845 498 830 517 c 0
 815 536 796 555 772 574 c 0
 748 593 726 609 706 622 c 0
 686 635 661 649 631 663 c 0
 601 677 576 688 558 696 c 0
 540 704 518 712 490 723 c 0
 462 734 443 741 434 745 c 0
 409 755 388 764 370 772 c 0
 352 780 332 792 308 806 c 0
 284 820 264 832 247 846 c 0
 230 860 213 878 195 898 c 0
 177 918 163 940 152 962 c 0
 141 984 131 1010 124 1040 c 0
 117 1070 114 1102 114 1136 c 0
 114 1245 155 1333 236 1398 c 0
 317 1463 418 1495 539 1495 c 0
 654 1495 751 1467 832 1410 c 0
 913 1353 967 1281 994 1194 c 1
 842 1169 l 1
 827 1217 791 1260 735 1298 c 0
 679 1336 614 1354 539 1354 c 0
 462 1354 399 1333 350 1292 c 0
 301 1251 276 1199 276 1136 c 0
 276 1112 279 1090 285 1069 c 0
 291 1048 299 1030 308 1015 c 0
 317 1000 330 984 347 970 c 0
 364 956 379 944 394 934 c 0
 409 924 428 915 452 904 c 0
 476 893 497 884 514 877 c 0
 531 870 554 861 582 850 c 0
 610 839 631 831 648 824 c 0
 675 813 699 802 720 792 c 0
 741 782 766 768 794 752 c 0
 822 736 847 719 868 702 c 0
 889 685 910 664 932 640 c 0
 954 616 972 591 986 565 c 0
 1000 539 1011 509 1020 475 c 0
 1029 441 1034 405 1034 368 c 0
 1034 281 1012 207 966 146 c 0
 920 85 861 41 788 13 c 0
 715 -15 632 -29 539 -29 c 0
 412 -29 308 4 226 69 c 0
 144 134 84 220 45 327 c 1
385 -294 m 1
 398 -284 408 -276 414 -272 c 0
 420 -268 429 -260 442 -249 c 0
 455 -238 464 -228 470 -218 c 0
 476 -208 479 -199 479 -190 c 0
 479 -187 478 -182 477 -175 c 0
 475 -164 469 -150 459 -135 c 0
 449 -120 437 -103 424 -86 c 1
 553 -30 l 1
 596 -71 622 -116 633 -164 c 1
 636 -180 637 -193 637 -202 c 0
 637 -223 633 -243 624 -262 c 0
 615 -281 601 -298 582 -314 c 0
 563 -330 547 -344 533 -354 c 0
 519 -364 500 -376 475 -391 c 0
 450 -406 435 -415 428 -419 c 1
 385 -294 l 1
EndSplineSet
Substitution2: "Tuffy-Regular-'locl' Localized Forms in Latin lookup 2-1" Scommaaccent
EndChar

StartChar: scedilla
Encoding: 351 351 229
Width: 921
Flags: HMW
LayerCount: 2
Fore
SplineSet
462 477 m 0
 422 490 387 502 360 513 c 0
 333 524 303 539 269 558 c 0
 235 577 209 598 188 620 c 0
 167 642 149 668 135 701 c 0
 121 734 114 770 114 809 c 0
 114 900 147 971 214 1021 c 0
 281 1071 363 1097 462 1098 c 1
 516 1098 564 1091 608 1076 c 0
 652 1061 687 1041 714 1016 c 0
 741 991 764 968 780 944 c 0
 796 920 808 896 816 871 c 1
 670 841 l 1
 634 922 565 963 464 963 c 0
 411 963 364 950 325 924 c 0
 286 898 267 860 267 813 c 0
 267 789 271 767 281 747 c 0
 291 727 303 711 318 699 c 0
 333 687 349 676 367 666 c 0
 385 656 401 648 418 643 c 0
 435 638 451 633 464 627 c 1
 472 624 486 620 507 612 c 0
 528 604 545 598 556 594 c 0
 567 590 583 584 604 575 c 0
 625 566 642 559 654 552 c 0
 666 545 682 536 700 525 c 0
 718 514 732 503 743 492 c 0
 754 481 765 468 778 453 c 0
 791 438 801 422 808 406 c 0
 815 390 821 372 826 352 c 0
 831 332 832 310 832 287 c 0
 832 196 796 120 724 60 c 0
 652 0 567 -29 466 -29 c 0
 365 -29 282 -7 220 38 c 0
 158 83 113 142 88 217 c 1
 236 245 l 1
 256 200 283 166 318 142 c 0
 353 118 401 106 462 106 c 0
 529 106 581 122 620 154 c 0
 659 186 678 230 678 287 c 0
 678 314 673 338 660 359 c 0
 647 380 629 399 605 414 c 0
 581 429 559 441 538 450 c 0
 517 459 492 468 462 477 c 0
332 -294 m 1
 345 -284 354 -276 360 -272 c 0
 366 -268 375 -260 388 -249 c 0
 401 -238 410 -228 416 -218 c 0
 422 -208 426 -199 426 -190 c 0
 426 -187 425 -182 424 -175 c 0
 422 -164 416 -150 406 -135 c 0
 396 -120 383 -103 370 -86 c 1
 500 -30 l 1
 543 -71 569 -116 580 -164 c 1
 583 -180 584 -193 584 -202 c 0
 584 -223 579 -243 570 -262 c 0
 561 -281 547 -298 528 -314 c 0
 509 -330 494 -344 480 -354 c 0
 466 -364 447 -376 422 -391 c 0
 397 -406 381 -415 374 -419 c 1
 332 -294 l 1
EndSplineSet
Substitution2: "Tuffy-Regular-'locl' Localized Forms in Latin lookup 2-1" scommaaccent
EndChar

StartChar: Tcommaaccent
Encoding: 354 354 231
Width: 1243
Flags: HMW
LayerCount: 2
Fore
SplineSet
509 -191 m 5
 572 -145 603 -109 603 -86 c 4
 603 -79 602 -75 601 -72 c 4
 600 -60 582 -30 548 18 c 5
 677 74 l 5
 719 33 746 -11 757 -59 c 4
 758 -66 759 -73 760 -79 c 4
 761 -85 761 -91 761 -98 c 4
 761 -158 714 -218 620 -275 c 6
 552 -316 l 5
 509 -191 l 5
EndSplineSet
Refer: 107 84 N 1 0 0 1 0 0 2
Substitution2: "Tuffy-Regular-'locl' Localized Forms in Latin lookup 2-1" uni021A
EndChar

StartChar: tcommaaccent
Encoding: 355 355 232
Width: 696
Flags: HMW
LayerCount: 2
Fore
SplineSet
279 -191 m 5
 342 -145 373 -109 373 -86 c 4
 373 -79 372 -75 371 -72 c 4
 370 -60 352 -30 318 18 c 5
 447 74 l 5
 489 33 516 -11 527 -59 c 4
 528 -66 529 -73 530 -79 c 4
 531 -85 531 -91 531 -98 c 4
 531 -158 484 -218 390 -275 c 6
 322 -316 l 5
 279 -191 l 5
EndSplineSet
Refer: 40 116 N 1 0 0 1 0 0 2
Substitution2: "Tuffy-Regular-'locl' Localized Forms in Latin lookup 2-1" uni021B
EndChar

StartChar: tcaron
Encoding: 357 357 234
Width: 752
Flags: HMW
LayerCount: 2
Fore
SplineSet
704 1428 m 0
 704 1405 702 1380 698 1357 c 0
 694 1334 688 1312 679 1291 c 0
 670 1270 663 1255 657 1242 c 0
 651 1229 643 1215 634 1199 c 0
 619 1176 l 0
 580 1200 l 0
 614 1255 630 1303 630 1343 c 0
 612 1343 596 1349 582 1362 c 0
 568 1375 560 1390 556 1410 c 0
 555 1415 554 1422 554 1428 c 0
 554 1452 562 1472 577 1489 c 0
 592 1506 609 1514 630 1514 c 0
 648 1514 664 1507 678 1494 c 0
 691 1482 704 1462 704 1441 c 0
 704 1437 704 1433 704 1428 c 0
EndSplineSet
Refer: 40 116 N 1 0 0 1 0 0 2
EndChar

StartChar: caron
Encoding: 711 711 243
Width: 1062
Flags: HMW
LayerCount: 2
Fore
SplineSet
872 1858 m 1
 592 1514 l 1
 461 1514 l 1
 184 1856 l 1
 370 1856 l 1
 528 1645 l 1
 684 1858 l 1
 872 1858 l 1
EndSplineSet
EndChar

StartChar: dotaccent
Encoding: 729 729 244
Width: 420
Flags: HMW
LayerCount: 2
Fore
SplineSet
76 1683 m 0
 76 1708 85 1730 104 1749 c 0
 123 1768 145 1777 170 1777 c 0
 192 1777 212 1770 229 1756 c 0
 246 1742 257 1723 262 1702 c 0
 263 1697 264 1691 264 1683 c 0
 264 1657 255 1635 236 1616 c 0
 217 1597 195 1588 170 1588 c 0
 148 1588 128 1596 111 1610 c 0
 94 1624 83 1642 78 1664 c 0
 77 1668 76 1674 76 1683 c 0
EndSplineSet
EndChar

StartChar: hungarumlaut
Encoding: 733 733 245
Width: 1329
Flags: HMW
LayerCount: 2
Fore
SplineSet
794 1595 m 2
 1000 1909 l 1
 1016 1931 1036 1942 1060 1942 c 0
 1077 1942 1093 1936 1106 1925 c 1
 1121 1914 1131 1900 1135 1881 c 0
 1136 1876 1136 1872 1136 1868 c 0
 1136 1852 1131 1836 1120 1821 c 1
 882 1531 l 2
 873 1520 860 1514 845 1514 c 0
 832 1514 820 1518 809 1525 c 1
 797 1534 790 1546 787 1559 c 0
 786 1562 786 1566 786 1569 c 0
 786 1578 789 1586 794 1595 c 2
450 1595 m 2
 656 1909 l 1
 672 1931 692 1942 716 1942 c 0
 733 1942 749 1936 762 1925 c 1
 777 1914 787 1900 791 1881 c 0
 792 1876 792 1872 792 1868 c 0
 792 1852 787 1836 776 1821 c 1
 538 1531 l 2
 529 1520 516 1514 501 1514 c 0
 488 1514 476 1518 465 1525 c 1
 453 1534 446 1546 443 1559 c 0
 442 1562 442 1566 442 1569 c 0
 442 1578 445 1586 450 1595 c 2
EndSplineSet
EndChar

StartChar: lslash
Encoding: 322 322 249
Width: 472
Flags: HMW
LayerCount: 2
Fore
SplineSet
17 510 m 1
 18 712 l 1
 126 821 l 1
 126 1454 l 1
 277 1454 l 1
 277 974 l 1
 404 1102 l 1
 405 894 l 1
 277 767 l 1
 277 207 l 2
 277 196 278 186 280 177 c 0
 291 127 329 102 396 102 c 1
 396 -29 l 1
 321 -29 262 -17 218 8 c 0
 174 33 146 75 133 134 c 0
 128 159 126 182 126 203 c 2
 126 618 l 1
 17 510 l 1
EndSplineSet
EndChar

StartChar: ogonek
Encoding: 731 731 251
Width: 473
Flags: HMW
LayerCount: 2
Fore
SplineSet
369 -190 m 1
 326 -315 l 1
 319 -311 304 -302 279 -287 c 0
 254 -272 235 -260 221 -250 c 0
 207 -240 191 -226 172 -210 c 0
 153 -194 139 -177 130 -158 c 0
 121 -139 117 -119 117 -98 c 0
 117 -89 118 -76 121 -60 c 1
 132 -12 158 33 201 74 c 1
 330 18 l 1
 317 1 305 -16 295 -31 c 0
 285 -46 279 -60 277 -71 c 0
 276 -78 275 -83 275 -86 c 0
 275 -95 278 -104 284 -114 c 0
 290 -124 299 -134 312 -145 c 0
 325 -156 334 -164 340 -168 c 0
 346 -172 356 -180 369 -190 c 1
EndSplineSet
EndChar

StartChar: ring
Encoding: 730 730 253
Width: 1036
Flags: HMW
LayerCount: 2
Fore
SplineSet
388 1721 m 0
 388 1710 389 1701 391 1691 c 0
 398 1660 413 1636 436 1616 c 0
 459 1596 487 1587 518 1587 c 0
 555 1587 585 1600 610 1626 c 0
 635 1652 648 1683 648 1721 c 0
 648 1731 647 1741 645 1751 c 0
 638 1782 623 1807 600 1827 c 0
 577 1847 549 1856 518 1856 c 0
 481 1856 451 1843 426 1817 c 0
 401 1791 388 1758 388 1721 c 0
282 1718 m 0
 282 1782 305 1837 351 1882 c 0
 397 1927 453 1950 518 1950 c 0
 574 1950 624 1933 667 1898 c 0
 710 1863 738 1819 749 1766 c 0
 752 1753 754 1737 754 1718 c 0
 754 1653 731 1598 685 1553 c 0
 639 1508 583 1485 518 1485 c 0
 462 1485 412 1502 369 1537 c 0
 326 1572 299 1616 288 1669 c 0
 284 1685 282 1701 282 1718 c 0
EndSplineSet
EndChar

StartChar: circumflex
Encoding: 710 710 254
Width: 1046
Flags: HMW
LayerCount: 2
Fore
SplineSet
874 1514 m 1
 686 1514 l 1
 530 1727 l 1
 372 1516 l 1
 186 1516 l 1
 463 1858 l 1
 594 1858 l 1
 874 1514 l 1
EndSplineSet
EndChar

StartChar: guilsinglleft
Encoding: 8249 8249 255
Width: 512
VWidth: 2050
Flags: HMW
LayerCount: 2
Fore
SplineSet
262 906 m 1
 398 906 l 1
 205 615 l 1
 398 324 l 1
 262 324 l 1
 70 615 l 1
 262 906 l 1
EndSplineSet
EndChar

StartChar: guilsinglright
Encoding: 8250 8250 256
Width: 574
VWidth: 2050
Flags: HMW
LayerCount: 2
Fore
SplineSet
244 906 m 1
 437 615 l 1
 244 324 l 1
 109 324 l 1
 301 615 l 1
 109 906 l 1
 244 906 l 1
EndSplineSet
EndChar

StartChar: ordmasculine
Encoding: 186 186 257
Width: 672
Flags: HMW
LayerCount: 2
Fore
SplineSet
164 1583 m 0
 164 1571 165 1560 167 1549 c 0
 174 1515 191 1488 217 1466 c 0
 243 1444 273 1433 308 1433 c 0
 349 1433 382 1447 410 1476 c 0
 438 1505 452 1541 452 1583 c 0
 452 1594 451 1605 449 1616 c 0
 442 1650 425 1678 399 1700 c 0
 373 1722 343 1733 308 1733 c 0
 267 1733 234 1718 206 1689 c 0
 178 1660 164 1624 164 1583 c 0
46 1579 m 0
 46 1650 71 1712 122 1762 c 0
 173 1812 235 1837 308 1837 c 0
 371 1837 426 1818 474 1779 c 0
 522 1740 552 1691 565 1632 c 0
 568 1618 570 1600 570 1579 c 0
 570 1507 545 1446 494 1396 c 0
 443 1346 381 1320 308 1320 c 0
 245 1320 190 1339 142 1378 c 0
 94 1417 65 1466 52 1525 c 0
 48 1542 46 1560 46 1579 c 0
EndSplineSet
EndChar

StartChar: ellipsis
Encoding: 8230 8230 258
Width: 1767
Flags: HMW
LayerCount: 2
Fore
SplineSet
1380 0 m 0
 1350 0 1325 11 1304 32 c 0
 1283 53 1272 79 1272 108 c 0
 1272 134 1280 157 1296 176 c 0
 1312 195 1333 208 1357 213 c 0
 1362 214 1370 215 1380 215 c 0
 1409 215 1435 205 1456 184 c 0
 1477 163 1487 137 1487 108 c 0
 1487 82 1479 59 1463 40 c 0
 1449 23 1429 11 1402 3 c 0
 1395 1 1388 0 1380 0 c 0
200 0 m 0
 170 0 145 11 124 32 c 0
 103 53 92 79 92 108 c 0
 92 134 100 157 116 176 c 0
 132 195 153 208 177 213 c 0
 182 214 190 215 200 215 c 0
 229 215 255 205 276 184 c 0
 297 163 307 137 307 108 c 0
 307 82 299 59 283 40 c 0
 269 23 249 11 222 3 c 0
 215 1 208 0 200 0 c 0
792 0 m 0
 762 0 737 11 716 32 c 0
 695 53 684 79 684 108 c 0
 684 134 693 157 709 176 c 0
 725 195 746 207 770 212 c 0
 775 213 782 214 792 214 c 0
 821 214 847 204 868 183 c 0
 889 162 899 137 899 108 c 0
 899 82 892 59 876 40 c 0
 862 23 841 10 814 2 c 0
 807 0 800 0 792 0 c 0
EndSplineSet
EndChar

StartChar: dagger
Encoding: 8224 8224 259
Width: 944
Flags: HMW
LayerCount: 2
Fore
SplineSet
553 885 m 1
 553 0 l 1
 410 0 l 1
 410 885 l 1
 134 885 l 1
 134 1027 l 1
 410 1027 l 1
 410 1454 l 1
 553 1454 l 1
 553 1027 l 1
 810 1027 l 1
 810 885 l 1
 553 885 l 1
EndSplineSet
EndChar

StartChar: daggerdbl
Encoding: 8225 8225 260
Width: 944
Flags: HMW
LayerCount: 2
Fore
SplineSet
553 1007 m 1
 553 516 l 1
 810 516 l 1
 810 374 l 1
 553 374 l 1
 553 0 l 1
 410 0 l 1
 410 374 l 1
 134 374 l 1
 134 516 l 1
 410 516 l 1
 410 1007 l 1
 134 1007 l 1
 134 1149 l 1
 410 1149 l 1
 410 1454 l 1
 553 1454 l 1
 553 1149 l 1
 810 1149 l 1
 810 1007 l 1
 553 1007 l 1
EndSplineSet
EndChar

StartChar: bullet
Encoding: 8226 8226 261
Width: 639
VWidth: 2050
Flags: HMW
LayerCount: 2
Fore
SplineSet
59 615 m 0
 59 704 96 774 170 826 c 0
 215 857 266 873 322 873 c 0
 414 873 485 837 537 763 c 0
 557 734 571 702 578 668 c 0
 582 650 584 633 584 615 c 0
 584 526 548 456 474 404 c 0
 429 373 378 357 322 357 c 0
 230 357 159 393 107 467 c 0
 87 496 73 528 66 562 c 0
 62 580 59 597 59 615 c 0
EndSplineSet
EndChar

StartChar: tilde
Encoding: 732 732 262
Width: 735
Flags: HMW
LayerCount: 2
Fore
SplineSet
63 764 m 1
 80 777 98 792 114 806 c 0
 130 820 150 833 174 844 c 0
 198 855 222 860 246 860 c 0
 264 860 282 854 301 844 c 0
 320 834 337 821 353 806 c 0
 369 791 385 777 401 762 c 0
 417 747 435 734 454 724 c 0
 473 714 493 709 512 709 c 0
 533 709 555 714 578 724 c 0
 601 734 622 748 640 762 c 0
 658 776 678 791 700 807 c 1
 700 662 l 1
 678 645 658 630 640 615 c 0
 622 600 603 588 580 578 c 0
 557 568 535 563 512 563 c 0
 491 563 469 568 448 578 c 0
 427 588 408 601 391 616 c 0
 374 631 357 647 341 662 c 0
 325 677 309 690 292 700 c 0
 275 710 259 715 244 715 c 0
 220 715 197 710 175 700 c 0
 153 690 134 678 118 664 c 0
 102 650 83 634 63 618 c 1
 63 764 l 1
EndSplineSet
EndChar

StartChar: perthousand
Encoding: 8240 8240 263
Width: 2099
VWidth: 2050
Flags: HMW
LayerCount: 2
Fore
SplineSet
902 373 m 256
 902 325 915 287 942 260 c 0
 969 233 1002 219 1043 219 c 0
 1083 219 1118 233 1147 260 c 0
 1176 287 1191 325 1191 373 c 0
 1191 417 1177 453 1148 481 c 0
 1119 509 1084 523 1043 523 c 0
 1009 523 977 510 947 484 c 0
 917 458 902 421 902 373 c 256
242 1078 m 256
 242 1030 255 993 281 966 c 0
 307 939 341 925 385 925 c 0
 425 925 460 939 489 966 c 0
 518 993 533 1030 533 1078 c 0
 533 1122 519 1158 490 1186 c 0
 461 1214 426 1228 385 1228 c 0
 349 1228 317 1215 287 1189 c 0
 257 1163 242 1126 242 1078 c 256
435 137 m 1
 285 137 l 1
 1007 1320 l 1
 1150 1320 l 1
 435 137 l 1
773 373 m 0
 773 407 779 441 792 474 c 0
 805 507 824 536 848 561 c 0
 872 586 901 606 934 621 c 0
 967 636 1005 644 1046 644 c 0
 1079 644 1111 638 1144 626 c 0
 1177 614 1206 597 1232 574 c 0
 1258 551 1280 522 1296 489 c 0
 1312 456 1320 417 1320 373 c 0
 1320 337 1314 304 1300 272 c 0
 1286 240 1267 212 1242 187 c 0
 1217 162 1188 142 1155 127 c 0
 1122 112 1086 105 1046 105 c 0
 1013 105 980 110 947 122 c 0
 914 134 885 150 860 173 c 0
 835 196 813 224 797 257 c 0
 781 290 773 329 773 373 c 0
115 1078 m 0
 115 1112 121 1146 134 1179 c 0
 147 1212 166 1241 190 1266 c 0
 214 1291 243 1311 276 1326 c 0
 309 1341 346 1349 387 1349 c 0
 420 1349 453 1343 486 1331 c 0
 519 1319 548 1302 574 1279 c 0
 600 1256 622 1227 638 1194 c 0
 654 1161 662 1122 662 1078 c 0
 662 1042 656 1009 642 977 c 0
 628 945 609 917 584 892 c 0
 559 867 530 847 497 832 c 0
 464 817 427 810 387 810 c 0
 354 810 322 815 289 827 c 0
 256 839 227 855 202 878 c 0
 177 901 155 929 139 962 c 0
 123 995 115 1034 115 1078 c 0
1556 373 m 256
 1556 325 1569 287 1596 260 c 0
 1623 233 1656 219 1697 219 c 0
 1737 219 1772 233 1801 260 c 0
 1830 287 1845 325 1845 373 c 0
 1845 417 1831 453 1802 481 c 0
 1773 509 1738 523 1697 523 c 0
 1663 523 1631 510 1601 484 c 0
 1571 458 1556 421 1556 373 c 256
1427 373 m 0
 1427 407 1433 441 1446 474 c 0
 1459 507 1478 536 1502 561 c 0
 1526 586 1555 606 1588 621 c 0
 1621 636 1658 644 1699 644 c 0
 1732 644 1765 638 1798 626 c 0
 1831 614 1860 597 1886 574 c 0
 1912 551 1934 522 1950 489 c 0
 1966 456 1974 417 1974 373 c 0
 1974 337 1968 304 1954 272 c 0
 1940 240 1921 212 1896 187 c 0
 1871 162 1842 142 1809 127 c 0
 1776 112 1739 105 1699 105 c 0
 1666 105 1634 110 1601 122 c 0
 1568 134 1539 150 1514 173 c 0
 1489 196 1467 224 1451 257 c 0
 1435 290 1427 329 1427 373 c 0
EndSplineSet
EndChar

StartChar: onequarter
Encoding: 188 188 264
Width: 1307
Flags: HMW
LayerCount: 2
Fore
SplineSet
1142 12 m 1
 1236 12 l 1
 1236 -128 l 1
 1142 -128 l 1
 1142 -327 l 1
 994 -327 l 1
 994 -128 l 1
 659 -128 l 1
 1002 471 l 1
 1142 471 l 1
 1142 12 l 1
897 13 m 1
 996 13 l 1
 996 186 l 1
 897 13 l 1
192 1544 m 1
 69 1544 l 1
 243 1739 l 1
 340 1739 l 1
 340 941 l 1
 192 941 l 1
 192 1544 l 1
198 -147 m 1
 48 -147 l 1
 1113 1599 l 1
 1257 1599 l 1
 198 -147 l 1
EndSplineSet
LCarets2: 2 0 0 
Ligature2: "Tuffy-Regular-'frac' Diagonal Fractions lookup 2-2" one fraction four
EndChar

StartChar: onehalf
Encoding: 189 189 265
Width: 1307
Flags: HMW
LayerCount: 2
Fore
SplineSet
846 217 m 1
 712 270 l 1
 721 300 l 2
 736 354 768 398 817 435 c 0
 866 472 920 490 978 490 c 0
 1003 490 1027 487 1050 481 c 0
 1073 475 1095 465 1116 451 c 0
 1137 437 1156 420 1172 400 c 0
 1188 380 1200 356 1209 327 c 0
 1218 298 1223 267 1223 234 c 0
 1223 214 1220 195 1215 176 c 0
 1210 157 1203 139 1195 124 c 0
 1187 109 1177 94 1165 79 c 0
 1153 64 1142 52 1131 42 c 0
 1120 32 1108 21 1094 10 c 0
 1080 -1 1069 -10 1060 -16 c 2
 1031 -36 l 1
 1009 -50 l 2
 997 -58 984 -70 968 -85 c 0
 952 -100 937 -115 922 -132 c 0
 907 -149 898 -162 893 -171 c 2
 885 -187 l 1
 1236 -187 l 1
 1236 -327 l 1
 712 -327 l 1
 712 -292 l 2
 712 -257 717 -224 727 -192 c 0
 737 -160 748 -131 763 -106 c 0
 778 -81 796 -57 818 -34 c 0
 840 -11 860 8 879 24 c 0
 898 40 920 56 945 74 c 2
 967 90 l 2
 980 99 989 103 991 105 c 2
 1013 122 l 1
 1034 141 l 1
 1050 160 l 1
 1064 183 l 1
 1072 206 l 1
 1076 237 l 1
 1076 273 1066 300 1046 320 c 0
 1026 340 1004 350 978 350 c 0
 952 350 928 342 906 325 c 0
 884 308 867 284 857 252 c 2
 846 217 l 1
192 1544 m 1
 69 1544 l 1
 243 1739 l 1
 340 1739 l 1
 340 941 l 1
 192 941 l 1
 192 1544 l 1
198 -147 m 1
 48 -147 l 1
 1113 1599 l 1
 1257 1599 l 1
 198 -147 l 1
EndSplineSet
LCarets2: 2 0 0 
Ligature2: "Tuffy-Regular-'frac' Diagonal Fractions lookup 2-2" one fraction two
EndChar

StartChar: threequarters
Encoding: 190 190 266
Width: 1307
Flags: HMW
LayerCount: 2
Fore
SplineSet
47 1139 m 1
 191 1182 l 1
 204 1155 l 2
 214 1134 229 1116 250 1102 c 0
 271 1088 291 1082 312 1082 c 0
 350 1082 381 1093 406 1115 c 0
 431 1137 443 1166 443 1202 c 0
 443 1221 439 1239 432 1254 c 0
 425 1269 415 1280 403 1290 c 0
 391 1300 377 1308 362 1313 c 0
 347 1318 330 1321 314 1321 c 2
 240 1321 l 1
 240 1453 l 1
 324 1453 l 2
 346 1453 366 1462 383 1480 c 0
 400 1498 409 1520 409 1548 c 0
 409 1571 401 1592 383 1609 c 0
 365 1626 345 1634 323 1634 c 2
 320 1634 l 2
 301 1634 283 1629 269 1619 c 0
 255 1609 244 1594 236 1576 c 2
 221 1544 l 1
 87 1606 l 1
 104 1638 l 2
 125 1679 154 1712 193 1737 c 0
 232 1762 275 1774 323 1774 c 0
 362 1774 399 1764 435 1746 c 0
 471 1728 500 1701 523 1666 c 0
 546 1631 558 1591 558 1548 c 0
 558 1516 552 1486 539 1458 c 0
 526 1430 511 1409 495 1393 c 1
 510 1381 525 1366 539 1349 c 0
 554 1331 567 1309 577 1283 c 0
 587 1257 591 1230 591 1202 c 0
 591 1126 564 1064 510 1015 c 0
 456 966 390 941 312 941 c 0
 264 941 215 956 167 985 c 0
 119 1014 84 1053 63 1103 c 2
 47 1139 l 1
1142 12 m 1
 1236 12 l 1
 1236 -128 l 1
 1142 -128 l 1
 1142 -327 l 1
 994 -327 l 1
 994 -128 l 1
 659 -128 l 1
 1002 471 l 1
 1142 471 l 1
 1142 12 l 1
897 13 m 1
 996 13 l 1
 996 186 l 1
 897 13 l 1
198 -147 m 1
 48 -147 l 1
 1113 1599 l 1
 1257 1599 l 1
 198 -147 l 1
EndSplineSet
LCarets2: 2 0 0 
Ligature2: "Tuffy-Regular-'frac' Diagonal Fractions lookup 2-2" three fraction four
EndChar

StartChar: twosuperior
Encoding: 178 178 267
Width: 664
VWidth: 1397
Flags: HMW
LayerCount: 2
Fore
SplineSet
202 1485 m 1
 68 1538 l 1
 77 1568 l 2
 92 1622 124 1666 173 1703 c 0
 222 1740 276 1758 334 1758 c 0
 359 1758 383 1755 406 1749 c 0
 429 1743 451 1733 472 1719 c 0
 493 1705 512 1688 528 1668 c 0
 544 1648 556 1624 565 1595 c 0
 574 1566 579 1535 579 1502 c 0
 579 1482 576 1463 571 1444 c 0
 566 1425 559 1407 551 1392 c 0
 543 1377 533 1362 521 1347 c 0
 509 1332 498 1320 487 1310 c 0
 476 1300 464 1289 450 1278 c 0
 436 1267 425 1258 416 1252 c 2
 387 1232 l 1
 365 1218 l 2
 353 1210 340 1198 324 1183 c 0
 308 1168 293 1153 278 1136 c 0
 263 1119 254 1106 249 1097 c 2
 241 1081 l 1
 592 1081 l 1
 592 941 l 1
 68 941 l 1
 68 976 l 2
 68 1011 73 1044 83 1076 c 0
 93 1108 104 1137 119 1162 c 0
 134 1187 152 1211 174 1234 c 0
 196 1257 216 1276 235 1292 c 0
 254 1308 276 1324 301 1342 c 2
 323 1358 l 2
 336 1367 345 1371 347 1373 c 2
 369 1390 l 1
 390 1409 l 1
 406 1428 l 1
 420 1451 l 1
 428 1474 l 1
 432 1505 l 1
 432 1541 422 1568 402 1588 c 0
 382 1608 360 1618 334 1618 c 0
 308 1618 284 1610 262 1593 c 0
 240 1576 223 1552 213 1520 c 2
 202 1485 l 1
EndSplineSet
EndChar

StartChar: threesuperior
Encoding: 179 179 268
Width: 670
VWidth: 1391
Flags: HMW
LayerCount: 2
Fore
SplineSet
51 1139 m 1
 195 1182 l 1
 208 1155 l 2
 218 1134 233 1116 254 1102 c 0
 275 1088 295 1082 316 1082 c 0
 354 1082 385 1093 410 1115 c 0
 435 1137 447 1166 447 1202 c 0
 447 1221 443 1239 436 1254 c 0
 429 1269 419 1280 407 1290 c 0
 395 1300 381 1308 366 1313 c 0
 351 1318 334 1321 318 1321 c 2
 244 1321 l 1
 244 1453 l 1
 328 1453 l 2
 350 1453 370 1462 387 1480 c 0
 404 1498 413 1520 413 1548 c 0
 413 1571 405 1592 387 1609 c 0
 369 1626 349 1634 327 1634 c 2
 324 1634 l 2
 305 1634 287 1629 273 1619 c 0
 259 1609 248 1594 240 1576 c 2
 225 1544 l 1
 91 1606 l 1
 108 1638 l 2
 129 1679 158 1712 197 1737 c 0
 236 1762 279 1774 327 1774 c 0
 366 1774 403 1764 439 1746 c 0
 475 1728 504 1701 527 1666 c 0
 550 1631 562 1591 562 1548 c 0
 562 1516 556 1486 543 1458 c 0
 530 1430 515 1409 499 1393 c 1
 514 1381 529 1366 543 1349 c 0
 558 1331 571 1309 581 1283 c 0
 591 1257 595 1230 595 1202 c 0
 595 1126 568 1064 514 1015 c 0
 460 966 394 941 316 941 c 0
 268 941 219 956 171 985 c 0
 123 1014 88 1053 67 1103 c 2
 51 1139 l 1
EndSplineSet
EndChar

StartChar: onesuperior
Encoding: 185 185 269
Width: 454
VWidth: 1388
Flags: HMW
LayerCount: 2
Fore
SplineSet
172 1544 m 1
 49 1544 l 1
 223 1739 l 1
 320 1739 l 1
 320 941 l 1
 172 941 l 1
 172 1544 l 1
EndSplineSet
EndChar

StartChar: oe
Encoding: 339 339 270
Width: 1486
Flags: HMW
LayerCount: 2
Fore
SplineSet
256 537 m 0
 256 477 261 422 272 371 c 0
 283 320 299 274 321 234 c 0
 343 194 373 163 410 140 c 0
 447 117 490 106 539 106 c 0
 588 106 631 117 668 140 c 2
 675 144 l 1
 653 176 635 212 620 251 c 0
 588 336 571 431 571 537 c 0
 571 643 587 738 620 821 c 0
 635 858 652 893 673 923 c 1
 637 947 593 958 539 958 c 0
 474 958 419 939 376 900 c 0
 333 861 302 811 284 750 c 0
 266 689 256 618 256 537 c 0
102 537 m 0
 102 616 111 690 130 757 c 0
 149 824 176 884 212 934 c 0
 248 984 294 1024 350 1052 c 0
 406 1080 469 1094 539 1094 c 0
 628 1094 704 1071 770 1024 c 1
 833 1071 907 1094 991 1094 c 0
 1056 1094 1114 1078 1167 1048 c 0
 1220 1018 1263 978 1296 928 c 0
 1329 878 1354 821 1371 759 c 0
 1388 697 1397 632 1397 565 c 0
 1397 558 1398 542 1398 518 c 0
 1398 494 1398 477 1398 469 c 1
 730 469 l 1
 735 405 748 346 768 293 c 0
 788 240 817 196 856 160 c 0
 895 124 940 106 991 106 c 0
 1039 106 1087 118 1134 144 c 0
 1181 170 1215 203 1236 243 c 1
 1369 188 l 1
 1335 122 1284 69 1214 30 c 0
 1144 -9 1070 -29 991 -29 c 0
 908 -29 835 -5 772 42 c 1
 707 -5 629 -29 539 -29 c 0
 446 -29 367 -3 300 48 c 0
 233 99 182 167 150 251 c 0
 118 335 102 430 102 537 c 0
730 604 m 1
 1252 604 l 1
 1246 701 1220 784 1173 854 c 0
 1126 924 1066 958 991 958 c 0
 940 958 896 940 856 904 c 0
 816 868 786 824 766 772 c 0
 746 720 734 663 730 604 c 1
EndSplineSet
EndChar

StartChar: florin
Encoding: 402 402 271
Width: 1020
Flags: HMW
LayerCount: 2
Fore
SplineSet
488 938 m 1
 146 0 l 1
 -6 0 l 1
 336 938 l 1
 197 938 l 1
 246 1073 l 1
 384 1073 l 1
 433 1208 l 2
 448 1248 469 1291 499 1337 c 0
 529 1383 562 1423 600 1459 c 0
 634 1491 672 1510 716 1516 c 0
 735 1519 752 1520 770 1520 c 0
 800 1520 829 1516 856 1508 c 0
 883 1500 907 1483 928 1456 c 1
 924 1304 l 1
 907 1320 883 1336 852 1352 c 1
 760 1372 l 1
 733 1372 703 1359 669 1333 c 0
 635 1307 613 1279 602 1249 c 2
 538 1073 l 1
 733 1073 l 1
 684 938 l 1
 488 938 l 1
EndSplineSet
EndChar

StartChar: notequal
Encoding: 8800 8800 272
Width: 907
Flags: HMW
LayerCount: 2
Fore
SplineSet
165 24 m 1
 15 24 l 1
 219 358 l 1
 66 358 l 1
 66 500 l 1
 305 500 l 1
 443 725 l 1
 66 725 l 1
 66 866 l 1
 529 866 l 1
 736 1206 l 1
 880 1206 l 1
 674 866 l 1
 866 866 l 1
 866 725 l 1
 589 725 l 1
 453 500 l 1
 866 500 l 1
 866 358 l 1
 367 358 l 1
 165 24 l 1
EndSplineSet
EndChar

StartChar: product
Encoding: 8719 8719 273
Width: 1198
Flags: HMW
LayerCount: 2
Fore
SplineSet
110 1456 m 1
 1088 1456 l 1
 1088 0 l 1
 930 0 l 1
 930 1305 l 1
 268 1305 l 1
 268 0 l 1
 110 0 l 1
 110 1456 l 1
EndSplineSet
EndChar

StartChar: dotlessi
Encoding: 305 305 274
Width: 430
Flags: HMW
LayerCount: 2
Fore
SplineSet
140 1073 m 1
 291 1073 l 1
 291 0 l 1
 140 0 l 1
 140 1073 l 1
EndSplineSet
EndChar

StartChar: fraction
Encoding: 8260 8260 275
Width: 320
Flags: HMW
LayerCount: 2
Fore
SplineSet
-328 -147 m 1
 -478 -147 l 1
 587 1599 l 1
 731 1599 l 1
 -328 -147 l 1
EndSplineSet
EndChar

StartChar: approxequal
Encoding: 8776 8776 276
Width: 735
Flags: HMW
LayerCount: 2
Fore
SplineSet
63 421 m 1
 80 434 98 448 114 462 c 0
 130 476 150 489 174 500 c 0
 198 511 222 517 246 517 c 0
 264 517 282 512 301 502 c 0
 320 492 337 479 353 464 c 0
 369 449 385 434 401 419 c 0
 417 404 435 392 454 382 c 0
 473 372 493 366 512 366 c 0
 533 366 555 372 578 382 c 0
 601 392 622 404 640 418 c 0
 658 432 678 448 700 464 c 1
 700 319 l 1
 678 302 658 287 640 272 c 0
 622 257 603 245 580 235 c 0
 557 225 535 220 512 220 c 0
 491 220 469 226 448 236 c 0
 427 246 408 259 391 274 c 0
 374 289 357 303 341 318 c 0
 325 333 309 346 292 356 c 0
 275 366 259 372 244 372 c 0
 220 372 197 367 175 357 c 0
 153 347 134 334 118 320 c 0
 102 306 83 291 63 275 c 1
 63 421 l 1
63 764 m 1
 80 777 98 792 114 806 c 0
 130 820 150 833 174 844 c 0
 198 855 222 860 246 860 c 0
 264 860 282 854 301 844 c 0
 320 834 337 821 353 806 c 0
 369 791 385 777 401 762 c 0
 417 747 435 734 454 724 c 0
 473 714 493 709 512 709 c 0
 533 709 555 714 578 724 c 0
 601 734 622 748 640 762 c 0
 658 776 678 791 700 807 c 1
 700 662 l 1
 678 645 658 630 640 615 c 0
 622 600 603 588 580 578 c 0
 557 568 535 563 512 563 c 0
 491 563 469 568 448 578 c 0
 427 588 408 601 391 616 c 0
 374 631 357 647 341 662 c 0
 325 677 309 690 292 700 c 0
 275 710 259 715 244 715 c 0
 220 715 197 710 175 700 c 0
 153 690 134 678 118 664 c 0
 102 650 83 634 63 618 c 1
 63 764 l 1
EndSplineSet
EndChar

StartChar: Delta
Encoding: 916 916 277
Width: 1562
Flags: HMW
LayerCount: 2
Fore
SplineSet
120 0 m 1
 702 1440 l 1
 881 1440 l 1
 1462 0 l 1
 120 0 l 1
394 157 m 1
 1197 157 l 1
 795 1247 l 1
 394 157 l 1
EndSplineSet
EndChar

StartChar: pi
Encoding: 960 960 278
Width: 1064
Flags: HMW
LayerCount: 2
Fore
SplineSet
127 954 m 1
 22 954 l 1
 22 1108 l 1
 1041 1108 l 1
 1041 954 l 1
 956 954 l 1
 956 0 l 1
 798 0 l 1
 798 954 l 1
 285 954 l 1
 285 0 l 1
 127 0 l 1
 127 954 l 1
EndSplineSet
EndChar

StartChar: lessequal
Encoding: 8804 8804 279
Width: 872
Flags: HMW
LayerCount: 2
Fore
SplineSet
774 489 m 1
 110 792 l 1
 110 909 l 1
 782 1195 l 1
 782 1042 l 1
 360 849 l 1
 774 640 l 1
 774 489 l 1
109 460 m 1
 786 460 l 1
 786 318 l 1
 109 318 l 1
 109 460 l 1
EndSplineSet
EndChar

StartChar: greaterequal
Encoding: 8805 8805 280
Width: 872
Flags: HMW
LayerCount: 2
Fore
SplineSet
121 489 m 1
 121 640 l 1
 535 849 l 1
 113 1042 l 1
 113 1195 l 1
 785 909 l 1
 785 792 l 1
 121 489 l 1
786 460 m 1
 786 318 l 1
 109 318 l 1
 109 460 l 1
 786 460 l 1
EndSplineSet
EndChar

StartChar: summation
Encoding: 8721 8721 281
Width: 1146
Flags: HMW
LayerCount: 2
Fore
SplineSet
1048 60 m 1
 64 58 l 1
 64 272 l 1
 468 732 l 1
 64 1192 l 1
 64 1399 l 1
 1048 1401 l 1
 1048 1248 l 1
 228 1246 l 1
 664 732 l 1
 232 211 l 1
 1048 213 l 1
 1048 60 l 1
EndSplineSet
EndChar

StartChar: Omega
Encoding: 937 937 282
Width: 1358
Flags: HMW
LayerCount: 2
Fore
SplineSet
288 142 m 1
 244 193 209 249 181 309 c 0
 152 370 130 437 115 508 c 0
 100 579 92 651 92 725 c 0
 92 792 98 860 111 929 c 0
 124 998 145 1066 175 1135 c 0
 205 1204 242 1264 285 1317 c 0
 328 1370 384 1413 452 1446 c 0
 520 1479 594 1495 676 1495 c 0
 757 1495 830 1480 896 1449 c 0
 962 1418 1017 1377 1062 1324 c 0
 1107 1271 1143 1213 1172 1151 c 0
 1201 1089 1223 1022 1238 950 c 0
 1254 873 1262 798 1262 725 c 0
 1262 658 1255 591 1242 524 c 0
 1229 457 1208 389 1178 322 c 0
 1148 255 1109 196 1061 146 c 2
 1057 142 l 1
 1333 142 l 1
 1333 0 l 1
 818 0 l 1
 818 142 l 1
 867 168 911 202 950 246 c 0
 989 290 1019 339 1040 394 c 0
 1061 449 1076 503 1084 558 c 0
 1092 613 1096 668 1096 725 c 0
 1096 804 1088 879 1073 952 c 0
 1061 1007 1044 1058 1024 1104 c 0
 1004 1150 978 1192 947 1231 c 0
 916 1270 877 1300 831 1322 c 0
 785 1344 733 1354 676 1354 c 0
 614 1354 558 1341 509 1314 c 0
 460 1287 420 1252 389 1210 c 0
 358 1168 332 1118 312 1062 c 0
 292 1006 278 950 270 894 c 0
 262 838 258 782 258 725 c 0
 258 651 265 578 280 507 c 0
 291 452 308 403 328 358 c 0
 348 313 376 271 414 232 c 0
 452 193 494 163 540 142 c 1
 541 142 l 1
 541 0 l 1
 25 0 l 1
 26 142 l 1
 288 142 l 1
EndSplineSet
EndChar

StartChar: infinity
Encoding: 8734 8734 283
Width: 1424
Flags: HMW
LayerCount: 2
Fore
SplineSet
1011 364 m 0
 1078 364 1133 386 1177 430 c 0
 1221 474 1243 537 1243 616 c 0
 1243 683 1226 739 1194 782 c 0
 1162 825 1119 853 1065 864 c 0
 1048 868 1030 870 1011 870 c 0
 936 870 876 847 833 800 c 0
 790 753 768 692 768 618 c 0
 768 554 784 500 817 455 c 0
 850 410 895 382 952 370 c 0
 971 366 991 364 1011 364 c 0
694 839 m 1
 767 964 873 1027 1011 1027 c 0
 1041 1027 1067 1024 1088 1019 c 1
 1175 1000 1247 954 1302 880 c 0
 1357 806 1384 718 1384 616 c 0
 1384 499 1348 401 1277 323 c 0
 1206 245 1103 206 967 206 c 0
 963 206 958 206 954 206 c 0
 945 206 935 209 924 215 c 0
 823 244 746 303 694 392 c 1
 640 294 564 235 466 215 c 0
 440 209 411 206 379 206 c 0
 273 206 184 245 113 323 c 0
 42 401 6 499 6 616 c 0
 6 718 33 806 88 880 c 0
 143 954 215 1000 302 1019 c 1
 323 1024 349 1027 379 1027 c 0
 519 1027 624 964 694 839 c 1
379 364 m 0
 399 364 419 366 438 370 c 0
 495 382 540 410 573 455 c 0
 606 500 622 554 622 618 c 0
 622 692 600 753 557 800 c 0
 514 847 454 870 379 870 c 0
 360 870 342 868 325 864 c 0
 271 853 228 825 196 782 c 0
 164 739 147 683 147 616 c 0
 147 537 169 474 213 430 c 0
 257 386 312 364 379 364 c 0
EndSplineSet
EndChar

StartChar: trademark
Encoding: 8482 8482 284
Width: 1200
Flags: HMW
LayerCount: 2
Fore
SplineSet
555 887 m 1
 555 1578 l 1
 670 1578 l 1
 844 1051 l 1
 1040 1578 l 1
 1177 1578 l 1
 1177 887 l 1
 1061 887 l 1
 1061 1344 l 1
 890 894 l 1
 795 894 l 1
 649 1344 l 1
 649 887 l 1
 555 887 l 1
23 1578 m 1
 544 1578 l 1
 544 1479 l 1
 359 1479 l 1
 359 887 l 1
 261 887 l 1
 261 1479 l 1
 23 1479 l 1
 23 1578 l 1
EndSplineSet
EndChar

StartChar: radical
Encoding: 8730 8730 285
Width: 1245
Flags: HMW
LayerCount: 2
Fore
SplineSet
1117 1770 m 1
 1281 1770 l 1
 745 0 l 1
 526 0 l 1
 351 563 l 1
 0 563 l 1
 0 705 l 1
 474 705 l 1
 635 168 l 1
 1117 1770 l 1
EndSplineSet
EndChar

StartChar: jcircumflex
Encoding: 309 309 302
Width: 468
Flags: HMW
LayerCount: 2
Fore
SplineSet
-119 -346 m 1
 -12 -244 l 1
 -7 -249 -2 -254 3 -258 c 0
 8 -262 13 -266 19 -270 c 0
 25 -274 32 -279 38 -282 c 0
 44 -285 52 -288 60 -290 c 0
 68 -292 77 -293 86 -293 c 0
 154 -293 188 -252 188 -170 c 2
 188 0 l 1
 188 1073 l 1
 340 1073 l 1
 340 0 l 1
 340 -139 l 2
 340 -181 332 -220 317 -254 c 0
 302 -288 283 -315 260 -336 c 0
 237 -357 213 -376 186 -390 c 0
 159 -404 134 -414 112 -420 c 0
 90 -426 71 -428 55 -428 c 0
 27 -428 1 -423 -23 -413 c 0
 -47 -403 -64 -394 -75 -386 c 0
 -86 -378 -100 -364 -119 -346 c 1
EndSplineSet
Refer: 254 710 N 1 0 0 1 -271 -343 2
EndChar

StartChar: hbar
Encoding: 295 295 304
Width: 993
Flags: HMW
LayerCount: 2
Fore
SplineSet
281 0 m 1
 129 0 l 1
 129 1179 l 1
 30 1179 l 1
 30 1321 l 1
 129 1321 l 1
 129 1456 l 1
 281 1456 l 1
 281 1321 l 1
 562 1321 l 1
 562 1179 l 1
 281 1179 l 1
 281 892 l 1
 300 951 336 1002 390 1042 c 0
 444 1082 510 1102 586 1102 c 0
 641 1102 690 1091 734 1069 c 0
 778 1047 818 1014 851 969 c 0
 884 924 910 866 928 794 c 0
 946 722 956 637 956 541 c 2
 956 0 l 1
 805 0 l 1
 805 541 l 2
 805 601 800 656 790 706 c 0
 780 756 766 801 746 840 c 0
 726 879 699 910 665 932 c 0
 631 954 591 965 546 965 c 0
 501 965 460 954 426 931 c 0
 392 908 365 878 344 838 c 0
 323 798 306 753 296 703 c 0
 286 653 281 599 281 540 c 2
 281 0 l 1
EndSplineSet
EndChar

StartChar: Hbar
Encoding: 294 294 306
Width: 1198
Flags: HMW
LayerCount: 2
Fore
SplineSet
121 1456 m 1
 279 1456 l 1
 279 1071 l 1
 940 1071 l 1
 940 1456 l 1
 1098 1456 l 1
 1098 1071 l 1
 1154 1071 l 1
 1154 969 l 1
 1098 969 l 1
 1098 0 l 1
 940 0 l 1
 940 674 l 1
 279 674 l 1
 279 0 l 1
 121 0 l 1
 121 969 l 1
 42 969 l 1
 42 1071 l 1
 121 1071 l 1
 121 1456 l 1
940 969 m 1
 279 969 l 1
 279 815 l 1
 940 815 l 1
 940 969 l 1
EndSplineSet
EndChar

StartChar: itilde
Encoding: 297 297 324
Width: 430
Flags: HMW
LayerCount: 2
Fore
SplineSet
150 1073 m 1
 301 1073 l 1
 301 0 l 1
 150 0 l 1
 150 1073 l 1
EndSplineSet
Refer: 262 732 N 1 0 0 1 -147 603 2
EndChar

StartChar: imacron
Encoding: 299 299 328
Width: 430
Flags: HMW
LayerCount: 2
Fore
SplineSet
150 1073 m 1
 301 1073 l 1
 301 0 l 1
 150 0 l 1
 150 1073 l 1
EndSplineSet
Refer: 149 175 N 1 0 0 1 -286 -1 2
EndChar

StartChar: eng
Encoding: 331 331 342
Width: 1044
Flags: HMW
LayerCount: 2
Fore
SplineSet
534 -315 m 1
 603 -315 662 -290 711 -241 c 0
 760 -192 784 -122 784 -33 c 2
 784 0 l 1
 784 541 l 2
 784 601 779 656 769 706 c 0
 759 756 745 801 725 840 c 0
 705 879 678 910 644 932 c 0
 610 954 570 965 525 965 c 0
 480 965 439 954 405 931 c 0
 371 908 343 878 322 838 c 0
 301 798 285 753 275 703 c 0
 265 653 260 599 260 540 c 2
 260 0 l 1
 108 0 l 1
 108 1073 l 1
 260 1073 l 1
 260 892 l 1
 279 951 315 1002 369 1042 c 0
 423 1082 489 1102 565 1102 c 0
 620 1102 669 1091 713 1069 c 0
 757 1047 797 1014 830 969 c 0
 863 924 889 866 907 794 c 0
 925 722 935 637 935 541 c 2
 935 1 l 1
 936 0 l 1
 936 -3 936 -6 936 -9 c 0
 936 -51 924 -115 901 -200 c 0
 888 -245 857 -290 808 -336 c 0
 765 -376 723 -404 679 -420 c 0
 624 -440 576 -449 534 -449 c 0
 533 -449 531 -449 530 -449 c 1
 531 -434 532 -389 534 -315 c 1
EndSplineSet
EndChar

StartChar: Eng
Encoding: 330 330 343
Width: 1271
Flags: HMW
LayerCount: 2
Fore
SplineSet
758 47 m 1
 827 47 886 72 935 121 c 0
 984 170 1008 240 1008 329 c 2
 1008 362 l 1
 1008 903 l 2
 1008 963 1004 1018 994 1068 c 0
 984 1118 969 1163 949 1202 c 0
 929 1241 902 1272 868 1294 c 0
 834 1316 794 1327 749 1327 c 0
 722 1327 675 1316 609 1293 c 0
 569 1277 517 1250 453 1212 c 0
 374 1164 318 1115 285 1065 c 0
 275 1049 269 995 269 902 c 2
 269 0 l 1
 117 0 l 1
 110 1456 l 1
 262 1456 l 1
 269 1254 l 1
 349 1315 444 1369 555 1416 c 0
 630 1448 708 1464 789 1464 c 0
 844 1464 894 1453 938 1431 c 0
 982 1409 1021 1376 1054 1331 c 0
 1087 1286 1114 1228 1132 1156 c 0
 1150 1084 1159 999 1159 903 c 2
 1159 363 l 1
 1160 362 l 1
 1160 359 1161 356 1161 353 c 0
 1161 311 1148 247 1125 162 c 0
 1112 117 1082 72 1033 26 c 0
 990 -14 947 -42 903 -58 c 0
 848 -78 800 -87 758 -87 c 0
 757 -87 755 -87 754 -87 c 1
 755 -72 756 -27 758 47 c 1
EndSplineSet
EndChar

StartChar: Tbar
Encoding: 358 358 344
Width: 1243
Flags: HMW
LayerCount: 2
Fore
SplineSet
88 1456 m 1
 1180 1456 l 1
 1180 1315 l 1
 723 1315 l 1
 723 712 l 1
 1068 712 l 1
 1068 570 l 1
 723 570 l 1
 723 0 l 1
 565 0 l 1
 565 570 l 1
 241 570 l 1
 241 712 l 1
 565 712 l 1
 565 1315 l 1
 88 1315 l 1
 88 1456 l 1
EndSplineSet
EndChar

StartChar: tbar
Encoding: 359 359 345
Width: 696
Flags: HMW
LayerCount: 2
Fore
SplineSet
244 938 m 1
 102 938 l 1
 102 1073 l 1
 244 1073 l 1
 244 1323 l 1
 395 1323 l 1
 395 1073 l 1
 592 1073 l 1
 592 938 l 1
 395 938 l 1
 395 712 l 1
 644 712 l 1
 644 570 l 1
 395 570 l 1
 395 215 l 2
 395 137 434 98 512 98 c 2
 582 98 l 1
 582 -29 l 1
 512 -29 l 2
 413 -29 344 -11 304 26 c 0
 264 63 244 125 244 211 c 2
 244 570 l 1
 52 570 l 1
 52 712 l 1
 244 712 l 1
 244 938 l 1
EndSplineSet
EndChar

StartChar: IJ
Encoding: 306 306 350
Width: 1353
Flags: HMW
LayerCount: 2
Fore
SplineSet
1241 1464 m 1
 1241 543 l 2
 1241 378 1190 236 1089 117 c 24
 1055 77 1015 43 968 14 c 0
 921 -15 860 -29 784 -29 c 0
 729 -29 680 -18 636 4 c 0
 592 26 552 59 519 104 c 0
 488 146 462 205 442 280 c 0
 424 348 414 431 414 532 c 2
 414 543 l 1
 565 543 l 1
 565 532 l 2
 565 472 570 417 580 367 c 0
 590 317 604 272 624 233 c 0
 644 194 671 163 705 141 c 0
 739 119 779 108 824 108 c 0
 869 108 910 119 944 142 c 0
 978 165 1005 196 1026 236 c 0
 1047 276 1064 320 1074 370 c 0
 1084 420 1089 474 1089 533 c 2
 1089 1464 l 1
 1241 1464 l 1
154 0 m 1
 154 1456 l 1
 311 1456 l 1
 311 0 l 1
 154 0 l 1
EndSplineSet
EndChar

StartChar: ij
Encoding: 307 307 351
Width: 710
Flags: HMW
LayerCount: 2
Fore
SplineSet
412 1333 m 0
 412 1358 421 1380 440 1399 c 0
 459 1418 481 1427 506 1427 c 0
 531 1427 553 1418 572 1400 c 0
 591 1382 600 1359 600 1333 c 0
 600 1308 591 1286 572 1267 c 0
 553 1248 531 1239 506 1239 c 0
 481 1239 459 1248 440 1266 c 0
 421 1284 412 1307 412 1333 c 0
123 -346 m 1
 230 -244 l 1
 235 -249 240 -254 245 -258 c 0
 250 -262 255 -266 261 -270 c 0
 267 -274 274 -279 280 -282 c 0
 286 -285 294 -288 302 -290 c 0
 310 -292 319 -293 328 -293 c 0
 396 -293 430 -252 430 -170 c 2
 430 0 l 1
 430 1073 l 1
 582 1073 l 1
 582 0 l 1
 582 -139 l 2
 582 -181 574 -220 559 -254 c 0
 544 -288 525 -315 502 -336 c 0
 479 -357 455 -376 428 -390 c 0
 401 -404 376 -414 354 -420 c 0
 332 -426 313 -428 297 -428 c 0
 269 -428 243 -423 219 -413 c 0
 195 -403 178 -394 167 -386 c 0
 156 -378 142 -364 123 -346 c 1
131 1333 m 0
 131 1358 140 1380 159 1399 c 0
 178 1418 200 1427 225 1427 c 0
 248 1427 267 1420 284 1406 c 0
 301 1392 312 1373 317 1352 c 0
 318 1348 319 1342 319 1333 c 0
 319 1308 310 1286 291 1267 c 0
 272 1248 250 1239 225 1239 c 0
 203 1239 183 1246 166 1260 c 0
 149 1274 138 1293 133 1314 c 0
 132 1322 131 1328 131 1333 c 0
150 1073 m 1
 301 1073 l 1
 301 0 l 1
 150 0 l 1
 150 1073 l 1
EndSplineSet
EndChar

StartChar: scommaaccent
Encoding: 537 537 356
Width: 921
Flags: HMW
LayerCount: 2
Fore
SplineSet
355 -191 m 5
 418 -145 449 -109 449 -86 c 4
 449 -79 448 -75 447 -72 c 4
 446 -60 428 -30 394 18 c 5
 523 74 l 5
 565 33 592 -11 603 -59 c 4
 604 -66 605 -73 606 -79 c 4
 607 -85 607 -91 607 -98 c 4
 607 -158 560 -218 466 -275 c 6
 398 -316 l 5
 355 -191 l 5
EndSplineSet
Refer: 39 115 N 1 0 0 1 0 0 2
EndChar

StartChar: Scommaaccent
Encoding: 536 536 357
Width: 1079
Flags: HMW
LayerCount: 2
Fore
SplineSet
431 -191 m 5
 494 -145 525 -109 525 -86 c 4
 525 -79 524 -75 523 -72 c 4
 522 -60 504 -30 470 18 c 5
 599 74 l 5
 641 33 668 -11 679 -59 c 4
 680 -66 681 -73 682 -79 c 4
 683 -85 683 -91 683 -98 c 4
 683 -158 636 -218 542 -275 c 6
 474 -316 l 5
 431 -191 l 5
EndSplineSet
Refer: 106 83 N 1 0 0 1 0 0 2
EndChar

StartChar: OE
Encoding: 338 338 360
Width: 1562
Flags: HMW
LayerCount: 2
Fore
SplineSet
92 725 m 0
 92 792 98 860 111 929 c 0
 124 998 145 1066 175 1135 c 0
 205 1204 242 1264 285 1317 c 0
 328 1370 384 1413 452 1446 c 0
 520 1479 594 1495 676 1495 c 0
 793 1495 864 1482 890 1456 c 1
 1462 1456 l 1
 1462 1315 l 1
 1002 1315 l 1
 1002 817 l 1
 1419 817 l 1
 1419 676 l 1
 1002 676 l 1
 1002 141 l 1
 1462 141 l 1
 1462 0 l 1
 854 0 l 1
 799 -19 740 -29 676 -29 c 0
 596 -29 523 -14 457 16 c 0
 391 46 336 87 291 139 c 0
 246 191 210 248 181 309 c 0
 152 370 130 437 115 508 c 0
 100 579 92 651 92 725 c 0
844 152 m 1
 844 1315 l 1
 840 1317 836 1320 831 1322 c 0
 785 1344 733 1354 676 1354 c 0
 614 1354 558 1341 509 1314 c 0
 460 1287 420 1252 389 1210 c 0
 358 1168 332 1118 312 1062 c 0
 292 1006 278 950 270 894 c 0
 262 838 258 782 258 725 c 0
 258 651 265 578 280 507 c 0
 291 452 308 403 328 358 c 0
 348 313 374 272 405 234 c 0
 436 196 476 166 522 145 c 0
 568 124 619 113 676 113 c 0
 744 113 800 126 843 152 c 1
 844 152 l 1
EndSplineSet
EndChar

StartChar: integral
Encoding: 8747 8747 361
Width: 760
Flags: HMW
LayerCount: 2
Fore
SplineSet
308 234 m 1
 308 1232 l 1
 308 1375 l 2
 308 1418 314 1466 326 1519 c 0
 338 1572 356 1623 379 1669 c 0
 400 1710 430 1741 469 1762 c 0
 515 1786 559 1799 603 1802 c 0
 605 1802 608 1802 610 1802 c 0
 636 1802 661 1794 688 1778 c 1
 737 1633 l 1
 716 1643 687 1650 652 1654 c 1
 559 1641 l 1
 534 1632 510 1610 487 1574 c 0
 464 1538 453 1504 453 1472 c 2
 453 1284 l 1
 452 -1 l 2
 452 -44 446 -92 434 -145 c 0
 422 -198 404 -249 381 -295 c 0
 360 -336 330 -367 291 -388 c 0
 245 -412 201 -425 157 -428 c 0
 155 -428 152 -428 150 -428 c 0
 124 -428 99 -420 72 -404 c 1
 23 -260 l 1
 44 -270 73 -276 108 -280 c 1
 201 -267 l 1
 226 -258 250 -236 273 -200 c 0
 296 -164 307 -130 307 -98 c 2
 308 234 l 1
EndSplineSet
EndChar

StartChar: partialdiff
Encoding: 8706 8706 362
Width: 1030
Flags: HMW
LayerCount: 2
Fore
SplineSet
233 455 m 0
 233 424 236 392 243 359 c 0
 260 281 294 219 344 174 c 0
 394 129 443 106 492 106 c 0
 567 106 633 142 690 214 c 0
 747 286 776 366 776 455 c 0
 776 480 774 502 769 521 c 0
 753 598 713 662 650 714 c 0
 587 766 522 791 453 791 c 0
 414 791 377 773 342 738 c 0
 307 703 281 660 262 608 c 0
 243 556 233 505 233 455 c 0
684 1290 m 1
 729 1239 772 1174 816 1097 c 0
 860 1020 890 944 906 870 c 0
 911 846 914 823 915 801 c 1
 918 764 921 722 924 676 c 0
 927 630 928 584 928 540 c 0
 928 522 928 522 928 502 c 0
 928 349 886 223 804 122 c 0
 722 21 621 -29 502 -29 c 0
 387 -29 297 2 230 63 c 0
 163 124 118 206 97 307 c 0
 87 355 82 406 82 459 c 0
 82 588 118 699 192 790 c 0
 266 881 356 926 463 926 c 0
 490 926 516 924 540 919 c 0
 564 914 582 910 598 904 c 0
 614 898 631 889 648 877 c 0
 665 865 677 855 686 847 c 0
 695 839 708 827 724 812 c 0
 740 797 752 785 760 778 c 1
 760 799 757 824 751 851 c 0
 738 914 714 980 679 1050 c 0
 644 1120 608 1171 571 1204 c 1
 455 1290 l 1
 408 1307 354 1315 295 1315 c 0
 268 1315 229 1312 180 1307 c 1
 166 1454 l 1
 184 1455 211 1456 248 1456 c 0
 376 1456 485 1433 575 1386 c 1
 684 1290 l 1
EndSplineSet
EndChar

StartChar: kgreenlandic
Encoding: 312 312 363
Width: 1060
Flags: HMW
LayerCount: 2
Fore
SplineSet
121 1072 m 1
 279 1072 l 1
 279 640 l 1
 696 1077 l 1
 882 1077 l 1
 376 540 l 1
 936 0 l 1
 720 0 l 1
 280 405 l 1
 279 0 l 1
 121 0 l 1
 121 1072 l 1
EndSplineSet
EndChar

StartChar: breve
Encoding: 728 728 364
Width: 1302
Flags: HMW
LayerCount: 2
Fore
SplineSet
662 1648 m 1
 699 1650 729 1659 752 1674 c 0
 791 1702 834 1757 880 1838 c 1
 960 1838 l 0
 960 1835 960 1831 960 1828 c 0
 960 1783 938 1723 894 1649 c 8
 871 1611 837 1579 790 1552 c 24
 746 1527 701 1514 657 1514 c 24
 613 1514 568 1527 524 1552 c 24
 477 1579 443 1611 420 1649 c 16
 376 1723 354 1783 354 1828 c 0
 354 1831 354 1835 354 1838 c 0
 435 1838 l 1
 468 1763 510 1709 562 1674 c 0
 587 1658 621 1649 662 1648 c 1
EndSplineSet
EndChar

StartChar: horizontalbar
Encoding: 8213 8213 365
Width: 1562
Flags: HMW
LayerCount: 2
Fore
SplineSet
0 712 m 1
 1562 712 l 1
 1562 570 l 1
 0 570 l 1
 0 712 l 1
EndSplineSet
EndChar

StartChar: j.dotless
Encoding: 63166 63166 388
Width: 468
Flags: HMW
LayerCount: 2
Fore
SplineSet
-119 -346 m 1
 -12 -244 l 1
 -7 -249 -2 -254 3 -258 c 0
 8 -262 13 -266 19 -270 c 0
 25 -274 32 -279 38 -282 c 0
 44 -285 52 -288 60 -290 c 0
 68 -292 77 -293 86 -293 c 0
 154 -293 188 -252 188 -170 c 2
 188 0 l 1
 188 1073 l 1
 340 1073 l 1
 340 0 l 1
 340 -139 l 2
 340 -181 332 -220 317 -254 c 0
 302 -288 283 -315 260 -336 c 0
 237 -357 213 -376 186 -390 c 0
 159 -404 134 -414 112 -420 c 0
 90 -426 71 -428 55 -428 c 0
 27 -428 1 -423 -23 -413 c 0
 -47 -403 -64 -394 -75 -386 c 0
 -86 -378 -100 -364 -119 -346 c 1
EndSplineSet
EndChar

StartChar: minus
Encoding: 8722 8722 389
Width: 716
Flags: HMW
LayerCount: 2
Fore
SplineSet
68 712 m 1
 648 712 l 1
 648 570 l 1
 68 570 l 1
 68 712 l 1
EndSplineSet
EndChar

StartChar: longs
Encoding: 383 383 390
Width: 716
Flags: HMW
LayerCount: 2
Fore
SplineSet
263 1073 m 1
 263 1208 l 2
 263 1248 272 1286 292 1321 c 0
 312 1356 337 1385 366 1408 c 0
 395 1431 426 1449 458 1462 c 0
 490 1475 519 1481 545 1481 c 0
 584 1481 616 1474 642 1460 c 0
 668 1446 694 1426 723 1399 c 1
 614 1294 l 1
 605 1306 597 1315 591 1321 c 0
 585 1327 575 1333 562 1338 c 0
 549 1343 533 1346 514 1346 c 0
 487 1346 465 1337 446 1320 c 0
 427 1303 417 1279 417 1249 c 2
 417 1073 l 1
 416 0 l 1
 264 0 l 1
 263 1073 l 1
EndSplineSet
EndChar

StartChar: uni2206
Encoding: 8710 8710 391
Width: 1562
Flags: HMW
LayerCount: 2
Fore
SplineSet
120 0 m 1
 702 1440 l 1
 881 1440 l 1
 1462 0 l 1
 120 0 l 1
394 157 m 1
 1197 157 l 1
 795 1247 l 1
 394 157 l 1
EndSplineSet
EndChar

StartChar: uni2126
Encoding: 8486 8486 392
Width: 1358
Flags: HMW
LayerCount: 2
Fore
SplineSet
288 142 m 1
 244 193 209 249 181 309 c 0
 152 370 130 437 115 508 c 0
 100 579 92 651 92 725 c 0
 92 792 98 860 111 929 c 0
 124 998 145 1066 175 1135 c 0
 205 1204 242 1264 285 1317 c 0
 328 1370 384 1413 452 1446 c 0
 520 1479 594 1495 676 1495 c 0
 757 1495 830 1480 896 1449 c 0
 962 1418 1017 1377 1062 1324 c 0
 1107 1271 1143 1213 1172 1151 c 0
 1201 1089 1223 1022 1238 950 c 0
 1254 873 1262 798 1262 725 c 0
 1262 658 1255 591 1242 524 c 0
 1229 457 1208 389 1178 322 c 0
 1148 255 1109 196 1061 146 c 2
 1057 142 l 1
 1333 142 l 1
 1333 0 l 1
 818 0 l 1
 818 142 l 1
 867 168 911 202 950 246 c 0
 989 290 1019 339 1040 394 c 0
 1061 449 1076 503 1084 558 c 0
 1092 613 1096 668 1096 725 c 0
 1096 804 1088 879 1073 952 c 0
 1061 1007 1044 1058 1024 1104 c 0
 1004 1150 978 1192 947 1231 c 0
 916 1270 877 1300 831 1322 c 0
 785 1344 733 1354 676 1354 c 0
 614 1354 558 1341 509 1314 c 0
 460 1287 420 1252 389 1210 c 0
 358 1168 332 1118 312 1062 c 0
 292 1006 278 950 270 894 c 0
 262 838 258 782 258 725 c 0
 258 651 265 578 280 507 c 0
 291 452 308 403 328 358 c 0
 348 313 376 271 414 232 c 0
 452 193 494 163 540 142 c 1
 541 142 l 1
 541 0 l 1
 25 0 l 1
 26 142 l 1
 288 142 l 1
EndSplineSet
EndChar

StartChar: arrowleft
Encoding: 8592 8592 393
Width: 1674
Flags: HMW
LayerCount: 2
Fore
SplineSet
376 224 m 0
 120 480 l 0
 376 736 l 0
 312 544 l 0
 1554 544 l 0
 1554 416 l 0
 312 416 l 0
 376 224 l 0
EndSplineSet
EndChar

StartChar: arrowup
Encoding: 8593 8593 394
Width: 1012
Flags: HMW
LayerCount: 2
Fore
SplineSet
250 1178 m 0
 506 1434 l 0
 762 1178 l 0
 570 1242 l 0
 570 0 l 0
 442 0 l 0
 442 1242 l 0
 250 1178 l 0
EndSplineSet
EndChar

StartChar: arrowright
Encoding: 8594 8594 395
Width: 1674
Flags: HMW
LayerCount: 2
Fore
SplineSet
1362 416 m 0
 120 416 l 0
 120 544 l 0
 1362 544 l 0
 1298 736 l 0
 1554 480 l 0
 1298 224 l 0
 1362 416 l 0
EndSplineSet
EndChar

StartChar: arrowdown
Encoding: 8595 8595 396
Width: 1012
Flags: HMW
LayerCount: 2
Fore
SplineSet
442 194 m 0
 442 1434 l 0
 570 1434 l 0
 570 194 l 0
 762 258 l 0
 506 0 l 0
 250 258 l 0
 442 194 l 0
EndSplineSet
EndChar

StartChar: arrowboth
Encoding: 8596 8596 397
Width: 1674
Flags: HMW
LayerCount: 2
Fore
SplineSet
312 416 m 0
 376 224 l 0
 120 480 l 0
 376 736 l 0
 312 544 l 0
 1362 544 l 0
 1298 736 l 0
 1554 480 l 0
 1298 224 l 0
 1362 416 l 0
 312 416 l 0
EndSplineSet
EndChar

StartChar: arrowupdn
Encoding: 8597 8597 398
Width: 1012
Flags: HMW
LayerCount: 2
Fore
SplineSet
570 194 m 0
 762 258 l 0
 506 0 l 0
 250 258 l 0
 442 194 l 0
 442 1242 l 0
 250 1178 l 0
 506 1434 l 0
 762 1178 l 0
 570 1242 l 0
 570 194 l 0
EndSplineSet
EndChar

StartChar: uni2196
Encoding: 8598 8598 399
Width: 1674
Flags: HMW
LayerCount: 2
Fore
SplineSet
308 884 m 0
 308 1248 l 0
 670 1246 l 0
 490 1156 l 0
 1368 278 l 0
 1276 188 l 0
 398 1066 l 0
 308 884 l 0
EndSplineSet
EndChar

StartChar: uni2197
Encoding: 8599 8599 400
Width: 1674
Flags: HMW
LayerCount: 2
Fore
SplineSet
1004 1246 m 0
 1368 1248 l 0
 1366 884 l 0
 1276 1066 l 0
 398 188 l 0
 308 278 l 0
 1186 1156 l 0
 1004 1246 l 0
EndSplineSet
EndChar

StartChar: uni2198
Encoding: 8600 8600 401
Width: 1674
Flags: HMW
LayerCount: 2
Fore
SplineSet
1186 278 m 0
 308 1156 l 0
 398 1248 l 0
 1276 370 l 0
 1366 550 l 0
 1368 188 l 0
 1004 188 l 0
 1186 278 l 0
EndSplineSet
EndChar

StartChar: uni2199
Encoding: 8601 8601 402
Width: 1674
Flags: HMW
LayerCount: 2
Fore
SplineSet
398 370 m 0
 1276 1248 l 0
 1368 1156 l 0
 490 278 l 0
 670 188 l 0
 308 188 l 0
 308 550 l 0
 398 370 l 0
EndSplineSet
EndChar

StartChar: uni219A
Encoding: 8602 8602 403
Width: 1674
Flags: HMW
LayerCount: 2
Fore
SplineSet
752 416 m 0
 312 416 l 0
 376 224 l 0
 120 480 l 0
 376 736 l 0
 312 544 l 0
 794 544 l 0
 902 872 l 0
 1030 872 l 0
 922 544 l 0
 1554 544 l 0
 1554 416 l 0
 880 416 l 0
 774 88 l 0
 646 88 l 0
 752 416 l 0
EndSplineSet
EndChar

StartChar: uni219B
Encoding: 8603 8603 404
Width: 1674
Flags: HMW
LayerCount: 2
Fore
SplineSet
922 544 m 0
 1362 544 l 0
 1298 736 l 0
 1554 480 l 0
 1298 224 l 0
 1362 416 l 0
 880 416 l 0
 774 88 l 0
 646 88 l 0
 752 416 l 0
 120 416 l 0
 120 544 l 0
 794 544 l 0
 902 872 l 0
 1030 872 l 0
 922 544 l 0
EndSplineSet
EndChar

StartChar: uni219C
Encoding: 8604 8604 405
Width: 1674
Flags: HMW
LayerCount: 2
Fore
SplineSet
300 258 m 0
 206 608 l 0
 556 702 l 0
 404 566 l 0
 538 490 l 0
 591 461 644 446 695 446 c 0
 764 446 830 473 894 525 c 0
 1006 616 1119 662 1232 662 c 0
 1280 662 1322 653 1358 636 c 0
 1470 570 l 0
 1406 458 l 0
 1332 502 l 0
 1303 519 1256 528 1192 528 c 0
 1129 528 1054 493 966 423 c 0
 878 353 788 318 696 318 c 0
 611 325 537 345 474 378 c 0
 340 456 l 0
 300 258 l 0
EndSplineSet
EndChar

StartChar: uni219D
Encoding: 8605 8605 406
Width: 1674
Flags: HMW
LayerCount: 2
Fore
SplineSet
1336 456 m 0
 1200 378 l 0
 1139 345 1065 325 980 318 c 0
 888 318 798 353 710 423 c 0
 622 493 546 528 482 528 c 0
 419 528 373 519 342 502 c 0
 270 458 l 0
 206 570 l 0
 318 636 l 0
 353 653 395 662 444 662 c 0
 557 662 670 616 782 525 c 0
 846 473 913 446 981 446 c 0
 1032 446 1083 461 1136 490 c 0
 1272 566 l 0
 1120 702 l 0
 1470 608 l 0
 1376 258 l 0
 1336 456 l 0
EndSplineSet
EndChar

StartChar: uni219E
Encoding: 8606 8606 407
Width: 1674
Flags: HMW
LayerCount: 2
Fore
SplineSet
312 544 m 0
 346 544 l 0
 538 736 l 0
 474 544 l 0
 1554 544 l 0
 1554 416 l 0
 474 416 l 0
 538 224 l 0
 346 416 l 0
 312 416 l 0
 376 224 l 0
 120 480 l 0
 376 736 l 0
 312 544 l 0
EndSplineSet
EndChar

StartChar: uni219F
Encoding: 8607 8607 408
Width: 1012
Flags: HMW
LayerCount: 2
Fore
SplineSet
570 1242 m 0
 570 1208 l 0
 762 1016 l 0
 570 1080 l 0
 570 0 l 0
 442 0 l 0
 442 1080 l 0
 250 1016 l 0
 442 1208 l 0
 442 1242 l 0
 250 1178 l 0
 506 1434 l 0
 762 1178 l 0
 570 1242 l 0
EndSplineSet
EndChar

StartChar: uni21A0
Encoding: 8608 8608 409
Width: 1674
Flags: HMW
LayerCount: 2
Fore
SplineSet
1362 416 m 0
 1328 416 l 0
 1136 224 l 0
 1200 416 l 0
 120 416 l 0
 120 544 l 0
 1200 544 l 0
 1136 736 l 0
 1328 544 l 0
 1362 544 l 0
 1298 736 l 0
 1554 480 l 0
 1298 224 l 0
 1362 416 l 0
EndSplineSet
EndChar

StartChar: uni21A1
Encoding: 8609 8609 410
Width: 1012
Flags: HMW
LayerCount: 2
Fore
SplineSet
442 192 m 0
 442 226 l 0
 250 418 l 0
 442 354 l 0
 442 1434 l 0
 570 1434 l 0
 570 354 l 0
 762 418 l 0
 570 226 l 0
 570 192 l 0
 762 256 l 0
 506 0 l 0
 250 256 l 0
 442 192 l 0
EndSplineSet
EndChar

StartChar: uni21A2
Encoding: 8610 8610 411
Width: 1674
Flags: HMW
LayerCount: 2
Fore
SplineSet
1316 416 m 0
 312 416 l 0
 376 224 l 0
 120 480 l 0
 376 736 l 0
 312 544 l 0
 1316 544 l 0
 1468 736 l 0
 1596 736 l 0
 1396 482 l 0
 1596 224 l 0
 1468 224 l 0
 1316 416 l 0
EndSplineSet
EndChar

StartChar: uni21A3
Encoding: 8611 8611 412
Width: 1674
Flags: HMW
LayerCount: 2
Fore
SplineSet
248 224 m 0
 120 224 l 0
 320 482 l 0
 120 736 l 0
 248 736 l 0
 400 544 l 0
 1404 544 l 0
 1340 736 l 0
 1596 480 l 0
 1340 224 l 0
 1404 416 l 0
 400 416 l 0
 248 224 l 0
EndSplineSet
EndChar

StartChar: uni21A4
Encoding: 8612 8612 413
Width: 1674
Flags: HMW
LayerCount: 2
Fore
SplineSet
1490 544 m 0
 1490 672 l 0
 1554 672 l 0
 1554 288 l 0
 1490 288 l 0
 1490 416 l 0
 312 416 l 0
 376 224 l 0
 120 480 l 0
 376 736 l 0
 312 544 l 0
 1490 544 l 0
EndSplineSet
EndChar

StartChar: uni21A5
Encoding: 8613 8613 414
Width: 1012
Flags: HMW
LayerCount: 2
Fore
SplineSet
568 64 m 0
 696 64 l 0
 696 0 l 0
 312 0 l 0
 312 64 l 0
 440 64 l 0
 440 1242 l 0
 248 1178 l 0
 504 1434 l 0
 760 1178 l 0
 568 1242 l 0
 568 64 l 0
EndSplineSet
EndChar

StartChar: uni21A6
Encoding: 8614 8614 415
Width: 1674
Flags: HMW
LayerCount: 2
Fore
SplineSet
1490 544 m 0
 1490 672 l 0
 1554 672 l 0
 1554 288 l 0
 1490 288 l 0
 1490 416 l 0
 312 416 l 0
 376 224 l 0
 120 480 l 0
 376 736 l 0
 312 544 l 0
 1490 544 l 0
EndSplineSet
EndChar

StartChar: uni21A7
Encoding: 8615 8615 416
Width: 1012
Flags: HMW
LayerCount: 2
Fore
SplineSet
442 1370 m 0
 314 1370 l 0
 314 1434 l 0
 698 1434 l 0
 698 1370 l 0
 570 1370 l 0
 570 192 l 0
 762 256 l 0
 506 0 l 0
 250 256 l 0
 442 192 l 0
 442 1370 l 0
EndSplineSet
EndChar

StartChar: arrowupdnbse
Encoding: 8616 8616 417
Width: 1012
Flags: HMW
LayerCount: 2
Fore
SplineSet
120 100 m 0
 884 100 l 0
 884 0 l 0
 120 0 l 0
 120 100 l 0
570 356 m 0
 762 420 l 0
 506 162 l 0
 250 420 l 0
 442 356 l 0
 442 1242 l 0
 250 1178 l 0
 506 1434 l 0
 762 1178 l 0
 570 1242 l 0
 570 356 l 0
EndSplineSet
EndChar

StartChar: uni21B0
Encoding: 8624 8624 418
Width: 1012
Flags: HMW
LayerCount: 2
Fore
SplineSet
734 1112 m 0
 312 1112 l 0
 376 920 l 0
 120 1176 l 0
 376 1432 l 0
 312 1240 l 0
 862 1242 l 0
 862 0 l 0
 734 0 l 0
 734 1112 l 0
EndSplineSet
EndChar

StartChar: uni21B1
Encoding: 8625 8625 419
Width: 1012
Flags: HMW
LayerCount: 2
Fore
SplineSet
278 0 m 0
 150 0 l 0
 150 1242 l 0
 700 1240 l 0
 636 1432 l 0
 892 1176 l 0
 636 920 l 0
 700 1112 l 0
 278 1112 l 0
 278 0 l 0
EndSplineSet
EndChar

StartChar: uni21B2
Encoding: 8626 8626 420
Width: 1012
Flags: HMW
LayerCount: 2
Fore
SplineSet
734 1432 m 0
 862 1432 l 0
 862 192 l 0
 312 192 l 0
 376 0 l 0
 120 256 l 0
 376 512 l 0
 312 320 l 0
 734 320 l 0
 734 1432 l 0
EndSplineSet
EndChar

StartChar: uni21B3
Encoding: 8627 8627 421
Width: 1012
Flags: HMW
LayerCount: 2
Fore
SplineSet
278 320 m 0
 700 320 l 0
 636 512 l 0
 892 256 l 0
 636 0 l 0
 700 192 l 0
 150 192 l 0
 150 1432 l 0
 278 1432 l 0
 278 320 l 0
EndSplineSet
EndChar

StartChar: uni21B4
Encoding: 8628 8628 422
Width: 1012
Flags: HMW
LayerCount: 2
Fore
SplineSet
120 1306 m 0
 120 1434 l 0
 716 1434 l 0
 714 196 l 0
 906 260 l 0
 650 4 l 0
 394 260 l 0
 586 196 l 0
 586 1306 l 0
 120 1306 l 0
EndSplineSet
EndChar

StartChar: carriagereturn
Encoding: 8629 8629 423
Width: 1674
Flags: HMW
LayerCount: 2
Fore
SplineSet
1288 1432 m 0
 1416 1432 l 0
 1416 192 l 0
 312 192 l 0
 376 0 l 0
 120 256 l 0
 376 512 l 0
 312 320 l 0
 1288 320 l 0
 1288 1432 l 0
EndSplineSet
EndChar

StartChar: uni21B6
Encoding: 8630 8630 424
Width: 1674
Flags: HMW
LayerCount: 2
Fore
SplineSet
1470 718 m 0
 1467 825 1442 922 1394 1010 c 0
 1345 1099 1274 1174 1181 1233 c 0
 1088 1292 985 1323 872 1324 c 0
 869 1324 866 1324 863 1324 c 0
 756 1324 658 1300 570 1252 c 0
 479 1201 405 1129 348 1034 c 0
 319 985 297 934 282 882 c 0
 382 888 l 0
 166 716 l 0
 72 978 l 0
 154 920 l 0
 171 981 197 1040 232 1096 c 0
 304 1212 396 1301 508 1364 c 0
 618 1424 738 1454 871 1454 c 0
 874 1454 877 1454 880 1454 c 0
 1016 1453 1140 1416 1252 1344 c 0
 1364 1272 1450 1182 1510 1074 c 0
 1569 967 1599 849 1602 718 c 0
 1470 718 l 0
EndSplineSet
EndChar

StartChar: uni21B7
Encoding: 8631 8631 425
Width: 1674
Flags: HMW
LayerCount: 2
Fore
SplineSet
72 718 m 0
 75 849 105 967 164 1074 c 0
 224 1182 310 1272 422 1344 c 0
 534 1416 658 1453 794 1454 c 0
 797 1454 800 1454 803 1454 c 0
 936 1454 1056 1424 1166 1364 c 0
 1278 1301 1370 1212 1442 1096 c 0
 1477 1040 1503 981 1520 920 c 0
 1602 978 l 0
 1508 716 l 0
 1292 888 l 0
 1392 882 l 0
 1377 934 1355 985 1326 1034 c 0
 1269 1129 1195 1201 1104 1252 c 0
 1016 1300 918 1324 811 1324 c 0
 808 1324 805 1324 802 1324 c 0
 689 1323 586 1292 493 1233 c 0
 400 1174 329 1099 280 1010 c 0
 232 922 207 825 206 718 c 0
 72 718 l 0
EndSplineSet
EndChar

StartChar: uni21B8
Encoding: 8632 8632 426
Width: 1674
Flags: HMW
LayerCount: 2
Fore
SplineSet
308 698 m 0
 308 1060 l 0
 670 1060 l 0
 490 970 l 0
 1368 92 l 0
 1276 0 l 0
 398 878 l 0
 308 698 l 0
308 1434 m 0
 1368 1434 l 0
 1368 1306 l 0
 308 1306 l 0
 308 1434 l 0
EndSplineSet
EndChar

StartChar: uni21B9
Encoding: 8633 8633 427
Width: 1674
Flags: HMW
LayerCount: 2
Fore
SplineSet
526 508 m 0
 270 764 l 0
 526 1020 l 0
 462 828 l 0
 1554 828 l 0
 1554 700 l 0
 462 700 l 0
 526 508 l 0
120 506 m 0
 120 1018 l 0
 220 1018 l 0
 220 506 l 0
 120 506 l 0
1214 194 m 0
 120 194 l 0
 120 322 l 0
 1214 322 l 0
 1150 514 l 0
 1406 258 l 0
 1150 2 l 0
 1214 194 l 0
1454 0 m 0
 1454 512 l 0
 1554 512 l 0
 1554 0 l 0
 1454 0 l 0
EndSplineSet
EndChar

StartChar: uni21BA
Encoding: 8634 8634 428
Width: 1674
Flags: HMW
LayerCount: 2
Fore
SplineSet
218 718 m 0
 218 685 221 652 226 620 c 0
 243 517 286 423 354 336 c 0
 423 248 510 186 615 150 c 0
 687 125 759 113 830 113 c 0
 861 113 893 115 924 120 c 0
 1024 137 1118 179 1205 246 c 0
 1292 313 1355 399 1394 504 c 0
 1421 579 1435 652 1435 725 c 0
 1435 755 1433 784 1428 814 c 0
 1411 917 1367 1011 1298 1098 c 0
 1262 1142 1222 1179 1178 1210 c 0
 1148 1114 l 0
 1060 1376 l 0
 1338 1376 l 0
 1256 1316 l 0
 1308 1280 1355 1236 1396 1184 c 0
 1481 1077 1534 961 1554 834 c 0
 1560 796 1563 759 1563 721 c 0
 1563 633 1547 544 1514 454 c 0
 1467 326 1391 221 1286 140 c 0
 1181 59 1067 9 944 -10 c 0
 905 -16 866 -19 827 -19 c 0
 742 -19 657 -5 571 25 c 0
 445 68 340 143 256 250 c 0
 172 357 120 473 100 598 c 0
 93 638 90 678 90 718 c 0
 218 718 l 0
EndSplineSet
EndChar

StartChar: uni21BB
Encoding: 8635 8635 429
Width: 1674
Flags: HMW
LayerCount: 2
Fore
SplineSet
1584 718 m 0
 1584 678 1581 638 1574 598 c 0
 1554 473 1502 357 1418 250 c 0
 1334 143 1229 68 1103 25 c 0
 1017 -5 932 -19 847 -19 c 0
 808 -19 769 -16 730 -10 c 0
 607 9 493 59 388 140 c 0
 283 221 207 326 160 454 c 0
 127 544 111 633 111 721 c 0
 111 759 114 796 120 834 c 0
 140 961 193 1077 278 1184 c 0
 319 1236 366 1280 418 1316 c 0
 336 1376 l 0
 614 1376 l 0
 526 1114 l 0
 496 1210 l 0
 452 1179 412 1142 376 1098 c 0
 307 1011 263 917 246 814 c 0
 241 784 239 755 239 725 c 0
 239 652 253 579 280 504 c 0
 319 399 382 313 469 246 c 0
 556 179 650 137 750 120 c 0
 781 115 813 113 844 113 c 0
 915 113 987 125 1059 150 c 0
 1164 186 1251 248 1320 336 c 0
 1388 423 1431 517 1448 620 c 0
 1453 652 1456 685 1456 718 c 0
 1584 718 l 0
EndSplineSet
EndChar

StartChar: uni21BC
Encoding: 8636 8636 430
Width: 1674
Flags: HMW
LayerCount: 2
Fore
SplineSet
120 544 m 0
 440 864 l 0
 376 672 l 0
 1554 672 l 0
 1554 544 l 0
 120 544 l 0
EndSplineSet
EndChar

StartChar: uni21BD
Encoding: 8637 8637 431
Width: 1674
Flags: HMW
LayerCount: 2
Fore
SplineSet
1554 544 m 0
 1554 416 l 0
 376 416 l 0
 440 224 l 0
 120 544 l 0
 1554 544 l 0
EndSplineSet
EndChar

StartChar: uni21BE
Encoding: 8638 8638 432
Width: 1024
Flags: HMW
LayerCount: 2
Fore
SplineSet
448 1434 m 0
 768 1114 l 0
 576 1178 l 0
 576 0 l 0
 448 0 l 0
 448 1434 l 0
EndSplineSet
EndChar

StartChar: uni21BF
Encoding: 8639 8639 433
Width: 1024
Flags: HMW
LayerCount: 2
Fore
SplineSet
256 1114 m 0
 576 1434 l 0
 576 0 l 0
 448 0 l 0
 448 1178 l 0
 256 1114 l 0
EndSplineSet
EndChar

StartChar: uni21C0
Encoding: 8640 8640 434
Width: 1674
Flags: HMW
LayerCount: 2
Fore
SplineSet
120 542 m 0
 120 670 l 0
 1298 670 l 0
 1234 862 l 0
 1554 542 l 0
 120 542 l 0
EndSplineSet
EndChar

StartChar: uni21C1
Encoding: 8641 8641 435
Width: 1674
Flags: HMW
LayerCount: 2
Fore
SplineSet
1298 416 m 0
 120 416 l 0
 120 544 l 0
 1554 544 l 0
 1234 224 l 0
 1298 416 l 0
EndSplineSet
EndChar

StartChar: uni21C2
Encoding: 8642 8642 436
Width: 1024
Flags: HMW
LayerCount: 2
Fore
SplineSet
448 1434 m 0
 576 1434 l 0
 576 258 l 0
 768 322 l 0
 448 0 l 0
 448 1434 l 0
EndSplineSet
EndChar

StartChar: uni21C3
Encoding: 8643 8643 437
Width: 1024
Flags: HMW
LayerCount: 2
Fore
SplineSet
448 258 m 0
 448 1434 l 0
 576 1434 l 0
 576 0 l 0
 256 322 l 0
 448 258 l 0
EndSplineSet
EndChar

StartChar: uni21C4
Encoding: 8644 8644 438
Width: 1674
Flags: HMW
LayerCount: 2
Fore
SplineSet
376 -10 m 0
 120 246 l 0
 376 502 l 0
 312 310 l 0
 1554 310 l 0
 1554 182 l 0
 312 182 l 0
 376 -10 l 0
1362 640 m 0
 120 640 l 0
 120 768 l 0
 1362 768 l 0
 1298 960 l 0
 1554 704 l 0
 1298 448 l 0
 1362 640 l 0
EndSplineSet
EndChar

StartChar: uni21C5
Encoding: 8645 8645 439
Width: 1674
Flags: HMW
LayerCount: 2
Fore
SplineSet
330 1178 m 0
 586 1434 l 0
 842 1178 l 0
 650 1242 l 0
 650 0 l 0
 522 0 l 0
 522 1242 l 0
 330 1178 l 0
1024 194 m 0
 1024 1436 l 0
 1152 1436 l 0
 1152 194 l 0
 1344 258 l 0
 1088 2 l 0
 832 258 l 0
 1024 194 l 0
EndSplineSet
EndChar

StartChar: uni21C6
Encoding: 8646 8646 440
Width: 1674
Flags: HMW
LayerCount: 2
Fore
SplineSet
1362 182 m 0
 120 182 l 0
 120 310 l 0
 1362 310 l 0
 1298 502 l 0
 1554 246 l 0
 1298 -10 l 0
 1362 182 l 0
376 448 m 0
 120 704 l 0
 376 960 l 0
 312 768 l 0
 1554 768 l 0
 1554 640 l 0
 312 640 l 0
 376 448 l 0
EndSplineSet
EndChar

StartChar: uni21C7
Encoding: 8647 8647 441
Width: 1674
Flags: HMW
LayerCount: 2
Fore
SplineSet
318 768 m 0
 1554 768 l 0
 1554 640 l 0
 318 640 l 0
 376 512 l 0
 120 704 l 0
 376 896 l 0
 318 768 l 0
320 310 m 0
 1554 310 l 0
 1554 182 l 0
 320 182 l 0
 376 54 l 0
 120 246 l 0
 376 438 l 0
 320 310 l 0
EndSplineSet
EndChar

StartChar: uni21C8
Encoding: 8648 8648 442
Width: 1674
Flags: HMW
LayerCount: 2
Fore
SplineSet
1130 1236 m 0
 1130 0 l 0
 1002 0 l 0
 1002 1236 l 0
 874 1178 l 0
 1066 1434 l 0
 1258 1178 l 0
 1130 1236 l 0
672 1234 m 0
 672 0 l 0
 544 0 l 0
 544 1234 l 0
 416 1178 l 0
 608 1434 l 0
 800 1178 l 0
 672 1234 l 0
EndSplineSet
EndChar

StartChar: uni21C9
Encoding: 8649 8649 443
Width: 1674
Flags: HMW
LayerCount: 2
Fore
SplineSet
1298 896 m 0
 1554 704 l 0
 1298 512 l 0
 1356 640 l 0
 120 640 l 0
 120 768 l 0
 1356 768 l 0
 1298 896 l 0
1298 438 m 0
 1554 246 l 0
 1298 54 l 0
 1354 182 l 0
 120 182 l 0
 120 310 l 0
 1354 310 l 0
 1298 438 l 0
EndSplineSet
EndChar

StartChar: uni21CA
Encoding: 8650 8650 444
Width: 1674
Flags: HMW
LayerCount: 2
Fore
SplineSet
1258 256 m 0
 1066 0 l 0
 874 256 l 0
 1002 198 l 0
 1002 1434 l 0
 1130 1434 l 0
 1130 198 l 0
 1258 256 l 0
800 256 m 0
 608 0 l 0
 416 256 l 0
 544 200 l 0
 544 1434 l 0
 672 1434 l 0
 672 200 l 0
 800 256 l 0
EndSplineSet
EndChar

StartChar: uni21CB
Encoding: 8651 8651 445
Width: 1674
Flags: HMW
LayerCount: 2
Fore
SplineSet
1554 480 m 0
 1234 160 l 0
 1298 352 l 0
 120 352 l 0
 120 480 l 0
 1554 480 l 0
120 608 m 0
 440 928 l 0
 376 736 l 0
 1554 736 l 0
 1554 608 l 0
 120 608 l 0
EndSplineSet
EndChar

StartChar: uni21CC
Encoding: 8652 8652 446
Width: 1674
Flags: HMW
LayerCount: 2
Fore
SplineSet
1554 480 m 0
 1554 352 l 0
 376 352 l 0
 440 160 l 0
 120 480 l 0
 1554 480 l 0
120 608 m 0
 120 736 l 0
 1298 736 l 0
 1234 928 l 0
 1554 608 l 0
 120 608 l 0
EndSplineSet
EndChar

StartChar: forint
Encoding: 57493 57493 447
Width: 1146
Flags: HMW
LayerCount: 2
Fore
SplineSet
121 1456 m 1
 1032 1456 l 1
 1032 1315 l 1
 279 1315 l 1
 279 817 l 1
 693 817 l 1
 693 1167 l 1
 844 1167 l 1
 844 817 l 1
 1032 817 l 1
 1032 676 l 1
 844 676 l 1
 844 215 l 2
 844 137 883 98 961 98 c 2
 1031 98 l 1
 1031 -29 l 1
 961 -29 l 2
 862 -29 793 -11 753 26 c 0
 713 63 693 125 693 211 c 2
 693 676 l 1
 279 676 l 1
 279 0 l 1
 121 0 l 1
 121 1456 l 1
EndSplineSet
EndChar

StartChar: aalt
Encoding: 57936 57936 448
Width: 993
Flags: HMW
LayerCount: 2
Fore
SplineSet
200 89 m 1
 128 165 92 272 91 409 c 2
 90 661 l 2
 90 662 90 663 90 664 c 0
 90 799 127 904 200 981 c 1
 289 1054 389 1090 502 1090 c 0
 598 1090 680 1061 748 1003 c 1
 748 1073 l 1
 888 1073 l 1
 888 0 l 1
 748 0 l 1
 748 156 l 1
 746 143 739 128 725 108 c 0
 711 88 693 67 670 46 c 0
 647 25 619 8 584 -7 c 0
 549 -22 514 -29 478 -29 c 0
 374 -29 280 10 200 89 c 1
231 661 m 1
 232 409 l 2
 232 314 254 240 296 188 c 0
 340 133 411 106 510 106 c 0
 574 106 631 130 678 176 c 0
 725 222 748 277 748 341 c 1
 746 655 l 2
 745 750 725 824 683 876 c 0
 641 928 580 954 502 954 c 0
 456 954 416 948 381 935 c 0
 346 922 317 905 294 882 c 1
 253 831 232 757 231 661 c 1
EndSplineSet
EndChar

StartChar: xalt
Encoding: 57960 57960 453
Width: 1100
Flags: HMW
LayerCount: 2
Fore
SplineSet
476 636 m 1
 476 706 458 770 422 828 c 0
 381 893 337 926 290 926 c 0
 263 926 240 922 220 914 c 0
 202 907 173 879 132 832 c 1
 46 934 l 1
 68 961 87 982 102 996 c 0
 151 1041 214 1064 290 1064 c 0
 393 1064 466 1023 508 942 c 0
 549 876 l 0
 560 903 574 928 592 952 c 0
 649 1033 722 1074 812 1074 c 0
 885 1074 947 1051 998 1004 c 0
 1017 986 1036 966 1054 944 c 1
 968 842 l 1
 927 889 897 916 878 924 c 0
 859 932 837 936 812 936 c 0
 762 936 717 903 676 838 c 0
 648 793 634 729 634 644 c 1
 634 416 l 1
 634 317 653 243 692 196 c 0
 730 149 769 126 808 126 c 0
 871 126 927 162 976 234 c 1
 1062 134 l 1
 1015 75 971 35 930 16 c 0
 893 -1 852 -10 808 -10 c 0
 689 -10 605 45 556 156 c 0
 553 162 552 165 552 166 c 1
 551 166 549 163 546 156 c 0
 483 39 399 -20 294 -20 c 0
 251 -20 210 -11 170 6 c 0
 129 23 85 63 38 124 c 1
 124 224 l 1
 175 152 231 116 294 116 c 0
 337 116 375 140 408 188 c 0
 453 254 476 322 476 392 c 1
 476 636 l 1
EndSplineSet
EndChar

StartChar: estimated
Encoding: 8494 8494 459
Width: 1271
VWidth: 0
Flags: HMW
LayerCount: 2
Fore
SplineSet
266 493 m 2
 266 231 l 2
 266 217 275 199 293 178 c 0
 311 157 336 137 367 116 c 0
 398 95 437 77 485 63 c 0
 533 49 584 42 636 42 c 0
 707 42 776 57 842 89 c 0
 908 121 963 162 1007 212 c 1
 1116 212 l 1
 1042 130 970 74 897 44 c 0
 854 27 815 16 779 10 c 0
 743 4 695 0 636 0 c 0
 543 0 462 12 394 36 c 0
 326 60 265 98 211 149 c 0
 103 251 49 379 49 535 c 0
 49 687 104 816 213 922 c 1
 268 973 329 1012 396 1036 c 0
 463 1060 543 1072 636 1072 c 0
 721 1072 795 1061 859 1040 c 0
 923 1019 984 985 1041 939 c 0
 1153 849 1213 709 1222 520 c 1
 289 520 l 2
 284 520 280 520 277 519 c 0
 274 518 271 515 269 511 c 0
 267 507 266 501 266 493 c 2
1004 579 m 2
 1004 836 l 2
 1004 864 985 893 947 924 c 0
 909 955 861 981 802 1002 c 0
 743 1023 687 1034 633 1034 c 0
 584 1034 536 1026 488 1011 c 0
 440 996 401 978 370 957 c 0
 339 936 314 916 295 896 c 0
 276 876 266 859 266 847 c 2
 266 567 l 2
 266 558 273 553 289 553 c 2
 978 553 l 2
 989 553 996 555 999 559 c 0
 1002 563 1004 569 1004 579 c 2
EndSplineSet
EndChar

StartChar: gradient
Encoding: 8711 8711 462
Width: 1562
Flags: HMW
LayerCount: 2
Fore
SplineSet
120 1440 m 1
 1462 1440 l 1
 881 0 l 1
 702 0 l 1
 120 1440 l 1
394 1283 m 1
 795 193 l 1
 1197 1283 l 1
 394 1283 l 1
EndSplineSet
EndChar

StartChar: foursuperior
Encoding: 8308 8308 463
Width: 750
VWidth: 1388
Flags: HMW
LayerCount: 2
Fore
SplineSet
548 1280 m 1
 642 1280 l 1
 642 1140 l 1
 548 1140 l 1
 548 941 l 1
 400 941 l 1
 400 1140 l 1
 65 1140 l 1
 408 1739 l 1
 548 1739 l 1
 548 1280 l 1
303 1281 m 1
 402 1281 l 1
 402 1454 l 1
 303 1281 l 1
EndSplineSet
EndChar

StartChar: centigrade
Encoding: 8451 8451 464
Width: 1220
Flags: HMW
LayerCount: 2
Fore
SplineSet
1167 280 m 0
 1156 241 1139 202 1117 162 c 0
 1098 127 1073 93 1042 60 c 0
 1012 28 976 3 933 -15 c 0
 890 -33 844 -42 793 -42 c 0
 730 -42 671 -28 618 -1 c 0
 565 26 519 64 482 112 c 0
 445 159 412 215 382 279 c 0
 343 362 317 430 302 484 c 0
 287 541 280 617 280 712 c 0
 280 810 288 887 303 942 c 0
 329 1035 353 1105 374 1151 c 0
 405 1218 440 1276 479 1323 c 0
 518 1370 565 1409 620 1439 c 0
 673 1468 731 1482 795 1482 c 0
 836 1482 874 1476 910 1464 c 0
 946 1451 977 1435 1003 1415 c 0
 1028 1396 1051 1372 1073 1344 c 0
 1094 1316 1111 1289 1124 1264 c 0
 1137 1237 1148 1209 1156 1181 c 0
 1036 1140 l 0
 1021 1201 991 1249 946 1286 c 0
 901 1323 850 1341 795 1341 c 0
 793 1341 l 0
 746 1341 701 1322 657 1284 c 0
 609 1243 570 1195 540 1142 c 0
 507 1083 483 1016 468 942 c 0
 453 868 446 791 446 712 c 0
 446 629 458 552 481 480 c 0
 508 395 537 328 568 278 c 0
 640 161 715 101 793 98 c 0
 795 98 798 98 800 98 c 0
 852 98 902 120 951 164 c 0
 1000 207 1032 260 1049 321 c 0
 1167 280 l 0
148 1418 m 0
 148 1411 149 1404 150 1396 c 0
 154 1375 165 1357 182 1343 c 0
 198 1330 218 1323 240 1323 c 0
 241 1323 241 1323 242 1323 c 0
 267 1323 288 1332 305 1350 c 0
 323 1369 332 1391 332 1418 c 0
 332 1424 331 1431 330 1439 c 0
 326 1460 315 1478 298 1493 c 0
 282 1507 262 1514 240 1514 c 0
 214 1514 192 1504 175 1486 c 0
 157 1467 148 1445 148 1418 c 0
57 1415 m 0
 57 1465 74 1508 110 1543 c 0
 146 1578 189 1596 240 1596 c 0
 284 1596 322 1582 356 1555 c 0
 388 1529 410 1495 420 1452 c 0
 422 1442 424 1430 424 1415 c 0
 424 1365 406 1322 370 1287 c 0
 334 1252 291 1234 240 1234 c 0
 196 1234 157 1248 124 1275 c 0
 92 1301 71 1336 61 1378 c 0
 58 1390 57 1402 57 1415 c 0
EndSplineSet
EndChar

StartChar: hyphentwo
Encoding: 8208 8208 465
Width: 1064
Flags: HMW
LayerCount: 2
Fore
SplineSet
118 712 m 0
 945 712 l 0
 945 570 l 0
 118 570 l 0
 118 712 l 0
EndSplineSet
EndChar

StartChar: hyphennobreak
Encoding: 8209 8209 466
Width: 1064
Flags: HMW
LayerCount: 2
Fore
SplineSet
118 712 m 0
 945 712 l 0
 945 570 l 0
 118 570 l 0
 118 712 l 0
EndSplineSet
EndChar

StartChar: afii10017
Encoding: 1040 1040 467
Width: 1302
Flags: HMW
LayerCount: 2
Fore
SplineSet
659 1214 m 0
 455 621 l 0
 870 621 l 0
 659 1214 l 0
907 485 m 0
 410 485 l 0
 248 0 l 0
 72 0 l 0
 596 1456 l 0
 723 1456 l 0
 1247 0 l 0
 1067 0 l 0
 907 485 l 0
EndSplineSet
EndChar

StartChar: afii10019
Encoding: 1042 1042 468
Width: 1098
Flags: HMW
LayerCount: 2
Fore
SplineSet
225 705 m 0
 225 141 l 0
 544 141 l 0
 591 141 632 147 670 158 c 0
 708 169 739 184 764 202 c 0
 789 220 811 241 828 266 c 0
 845 291 858 318 865 345 c 0
 872 372 876 401 876 430 c 0
 876 453 874 475 869 494 c 0
 856 557 823 607 769 646 c 0
 715 685 640 705 544 705 c 0
 225 705 l 0
225 1317 m 0
 225 844 l 0
 462 844 l 0
 517 844 566 849 608 860 c 0
 650 871 682 885 705 901 c 0
 728 917 748 936 762 958 c 0
 776 980 786 1001 790 1020 c 0
 794 1039 796 1059 796 1079 c 0
 796 1098 794 1115 791 1130 c 0
 786 1153 776 1175 764 1195 c 0
 752 1215 734 1235 710 1254 c 0
 686 1273 652 1287 610 1298 c 0
 568 1309 519 1315 462 1315 c 0
 452 1315 414 1315 346 1316 c 0
 278 1317 238 1317 225 1317 c 0
67 1456 m 0
 462 1456 l 0
 541 1456 610 1447 671 1430 c 0
 732 1413 781 1390 818 1360 c 0
 855 1330 883 1298 904 1264 c 0
 925 1230 940 1195 948 1156 c 0
 953 1128 956 1102 956 1079 c 0
 956 1001 928 932 872 872 c 0
 816 812 760 782 702 782 c 0
 750 782 794 774 833 756 c 0
 872 738 905 714 930 685 c 0
 955 656 975 625 990 594 c 0
 1005 563 1016 530 1023 496 c 0
 1028 472 1031 448 1031 424 c 0
 1031 401 1030 379 1027 357 c 0
 1024 335 1018 309 1010 280 c 0
 1002 251 991 225 977 200 c 0
 963 175 943 149 918 124 c 0
 893 99 865 78 832 60 c 0
 799 42 757 27 708 16 c 0
 659 5 604 0 544 0 c 0
 67 0 l 0
 67 1456 l 0
EndSplineSet
EndChar

StartChar: afii10022
Encoding: 1045 1045 469
Width: 1098
Flags: HMW
LayerCount: 2
Fore
SplineSet
88 1456 m 0
 1010 1456 l 0
 1010 1315 l 0
 246 1315 l 0
 246 817 l 0
 966 817 l 0
 966 676 l 0
 246 676 l 0
 246 141 l 0
 1010 141 l 0
 1010 0 l 0
 88 0 l 0
 88 1456 l 0
EndSplineSet
EndChar

StartChar: afii10025
Encoding: 1047 1047 470
Width: 1126
Flags: HMW
LayerCount: 2
Fore
SplineSet
113 252 m 0
 268 299 l 0
 293 244 332 200 385 165 c 0
 438 130 492 113 547 113 c 0
 640 113 718 141 782 198 c 0
 846 255 879 330 879 424 c 0
 879 473 869 516 850 556 c 0
 831 596 806 629 774 654 c 0
 742 679 708 698 670 711 c 0
 632 724 592 731 551 731 c 0
 473 731 l 0
 473 856 l 0
 571 856 l 0
 636 856 692 881 740 930 c 0
 788 979 811 1041 811 1116 c 0
 811 1183 787 1240 738 1287 c 0
 689 1334 632 1358 569 1358 c 0
 563 1358 l 0
 510 1358 462 1344 422 1316 c 0
 382 1288 351 1249 330 1200 c 0
 193 1264 l 0
 228 1334 279 1390 346 1433 c 0
 413 1476 487 1497 569 1497 c 0
 636 1497 700 1481 761 1450 c 0
 822 1419 871 1373 910 1314 c 0
 949 1255 969 1189 969 1116 c 0
 969 1061 958 1010 936 963 c 0
 914 916 890 880 864 854 c 0
 838 828 812 808 786 795 c 0
 811 788 838 773 866 752 c 0
 894 731 920 705 946 674 c 0
 972 643 993 605 1010 561 c 0
 1027 517 1036 471 1036 424 c 0
 1036 293 989 186 895 100 c 0
 801 14 685 -29 547 -29 c 0
 464 -29 380 -3 295 48 c 0
 210 99 150 167 113 252 c 0
EndSplineSet
EndChar

StartChar: afii10026
Encoding: 1048 1048 471
Width: 1271
Flags: HMW
LayerCount: 2
Fore
SplineSet
121 1456 m 0
 279 1456 l 0
 279 266 l 0
 1026 1456 l 0
 1171 1456 l 0
 1171 0 l 0
 1014 0 l 0
 1014 1161 l 0
 274 0 l 0
 121 0 l 0
 121 1456 l 0
EndSplineSet
EndChar

StartChar: afii10027
Encoding: 1049 1049 472
Width: 1271
Flags: HMW
LayerCount: 2
Fore
SplineSet
646 1690 m 1
 683 1692 713 1701 736 1716 c 0
 775 1744 818 1799 864 1880 c 1
 944 1880 l 0
 944 1877 944 1873 944 1870 c 0
 944 1825 922 1765 878 1691 c 8
 855 1653 821 1621 774 1594 c 24
 730 1569 685 1556 641 1556 c 24
 597 1556 552 1569 508 1594 c 24
 461 1621 427 1653 404 1691 c 16
 360 1765 338 1825 338 1870 c 0
 338 1873 338 1877 338 1880 c 0
 419 1880 l 1
 452 1805 494 1751 546 1716 c 0
 571 1700 605 1691 646 1690 c 1
121 1456 m 0
 279 1456 l 0
 279 266 l 0
 1026 1456 l 0
 1171 1456 l 0
 1171 0 l 0
 1014 0 l 0
 1014 1161 l 0
 274 0 l 0
 121 0 l 0
 121 1456 l 0
EndSplineSet
EndChar

StartChar: afii10028
Encoding: 1050 1050 473
Width: 1239
Flags: HMW
LayerCount: 2
Fore
SplineSet
121 1456 m 0
 279 1456 l 0
 279 702 l 0
 1026 1456 l 0
 1219 1456 l 0
 571 803 l 0
 1235 0 l 0
 1028 0 l 0
 467 702 l 0
 279 516 l 0
 279 0 l 0
 121 0 l 0
 121 1456 l 0
EndSplineSet
EndChar

StartChar: afii10030
Encoding: 1052 1052 474
Width: 1562
Flags: HMW
LayerCount: 2
Fore
SplineSet
121 0 m 0
 121 1456 l 0
 336 1456 l 0
 795 209 l 0
 1255 1456 l 0
 1462 1456 l 0
 1462 0 l 0
 1309 0 l 0
 1309 1204 l 0
 881 16 l 0
 702 16 l 0
 274 1204 l 0
 274 0 l 0
 121 0 l 0
EndSplineSet
EndChar

StartChar: afii10031
Encoding: 1053 1053 475
Width: 1198
Flags: HMW
LayerCount: 2
Fore
SplineSet
121 1456 m 0
 279 1456 l 0
 279 815 l 0
 940 815 l 0
 940 1456 l 0
 1098 1456 l 0
 1098 0 l 0
 940 0 l 0
 940 674 l 0
 279 674 l 0
 279 0 l 0
 121 0 l 0
 121 1456 l 0
EndSplineSet
EndChar

StartChar: afii10032
Encoding: 1054 1054 476
Width: 1333
Flags: HMW
LayerCount: 2
Fore
SplineSet
1096 725 m 0
 1096 804 1088 879 1073 952 c 0
 1061 1007 1044 1058 1024 1104 c 0
 1004 1150 978 1192 947 1231 c 0
 916 1270 877 1300 831 1322 c 0
 785 1344 733 1354 676 1354 c 0
 614 1354 558 1341 509 1314 c 0
 460 1287 420 1252 389 1210 c 0
 358 1168 332 1118 312 1062 c 0
 292 1006 278 950 270 894 c 0
 262 838 258 782 258 725 c 0
 258 651 265 578 280 507 c 0
 291 452 308 403 328 358 c 0
 348 313 374 272 405 234 c 0
 436 196 476 166 522 145 c 0
 568 124 619 113 676 113 c 0
 738 113 794 126 843 152 c 0
 892 178 932 210 963 251 c 0
 994 292 1019 339 1040 394 c 0
 1061 449 1076 503 1084 558 c 0
 1092 613 1096 668 1096 725 c 0
92 725 m 0
 92 792 98 860 111 929 c 0
 124 998 145 1066 175 1135 c 0
 205 1204 242 1264 285 1317 c 0
 328 1370 384 1413 452 1446 c 0
 520 1479 594 1495 676 1495 c 0
 757 1495 830 1480 896 1449 c 0
 962 1418 1017 1377 1062 1324 c 0
 1107 1271 1143 1213 1172 1151 c 0
 1201 1089 1223 1022 1238 950 c 0
 1254 873 1262 798 1262 725 c 0
 1262 658 1255 591 1242 524 c 0
 1229 457 1208 389 1178 322 c 0
 1148 255 1112 195 1068 144 c 0
 1024 93 968 51 900 19 c 0
 832 -13 758 -29 676 -29 c 0
 596 -29 523 -14 457 16 c 0
 391 46 336 87 291 139 c 0
 246 191 210 248 181 309 c 0
 152 370 130 437 115 508 c 0
 100 579 92 651 92 725 c 0
EndSplineSet
EndChar

StartChar: afii10033
Encoding: 1055 1055 477
Width: 1198
Flags: HMW
LayerCount: 2
Fore
SplineSet
121 1456 m 1
 1098 1456 l 1
 1098 0 l 0
 940 0 l 0
 940 1315 l 0
 279 1315 l 0
 279 0 l 0
 121 0 l 0
 121 1456 l 1
EndSplineSet
EndChar

StartChar: afii10034
Encoding: 1056 1056 478
Width: 1099
Flags: HMW
LayerCount: 2
Fore
SplineSet
279 774 m 0
 485 774 l 0
 742 774 870 865 870 1047 c 0
 870 1070 868 1090 864 1107 c 0
 858 1134 848 1159 833 1182 c 0
 818 1205 798 1227 770 1248 c 0
 742 1269 704 1286 656 1298 c 0
 608 1310 550 1315 485 1315 c 0
 279 1315 l 0
 279 774 l 0
121 1456 m 0
 279 1456 l 0
 485 1456 l 0
 638 1456 762 1427 854 1368 c 0
 946 1309 1003 1231 1024 1132 c 0
 1029 1102 1032 1074 1032 1047 c 0
 1032 989 1021 935 999 886 c 0
 977 837 944 792 901 754 c 0
 858 716 801 686 730 664 c 0
 659 642 577 631 485 631 c 0
 279 631 l 0
 279 0 l 0
 121 0 l 0
 121 1456 l 0
EndSplineSet
EndChar

StartChar: afii10035
Encoding: 1057 1057 479
Width: 1220
Flags: HMW
LayerCount: 2
Fore
SplineSet
1167 293 m 0
 1151 250 1130 210 1105 174 c 0
 1080 138 1048 104 1011 72 c 0
 974 40 928 16 875 -2 c 0
 822 -20 763 -29 700 -29 c 0
 621 -29 548 -15 481 12 c 0
 414 39 358 76 312 124 c 0
 266 172 226 228 194 292 c 0
 162 356 137 425 122 498 c 0
 107 571 100 646 100 725 c 0
 100 804 108 880 123 954 c 0
 138 1028 162 1098 194 1164 c 0
 226 1230 266 1287 313 1336 c 0
 360 1385 416 1423 483 1452 c 0
 550 1481 623 1495 702 1495 c 0
 753 1495 801 1488 846 1476 c 0
 891 1464 929 1448 962 1428 c 0
 995 1408 1024 1385 1050 1358 c 0
 1076 1331 1098 1303 1114 1276 c 0
 1130 1249 1143 1222 1153 1194 c 0
 1004 1153 l 0
 985 1214 946 1262 890 1299 c 0
 834 1336 771 1354 702 1354 c 0
 700 1354 l 0
 631 1354 568 1336 512 1300 c 0
 456 1264 409 1216 374 1156 c 0
 339 1096 313 1029 294 955 c 0
 275 881 266 804 266 725 c 0
 266 644 276 568 296 494 c 0
 316 420 344 355 380 298 c 0
 416 241 463 196 518 162 c 0
 573 128 634 111 700 111 c 0
 771 111 836 132 897 176 c 0
 958 220 999 273 1020 334 c 0
 1167 293 l 0
EndSplineSet
EndChar

StartChar: afii10036
Encoding: 1058 1058 480
Width: 1243
Flags: HMW
LayerCount: 2
Fore
SplineSet
88 1456 m 0
 1180 1456 l 0
 1180 1315 l 0
 723 1315 l 0
 723 0 l 0
 565 0 l 0
 565 1315 l 0
 88 1315 l 0
 88 1456 l 0
EndSplineSet
EndChar

StartChar: afii10037
Encoding: 1059 1059 481
Width: 1271
Flags: HMW
LayerCount: 2
Fore
SplineSet
198 1456 m 1
 366 1456 l 1
 722 856 l 1
 1078 1456 l 1
 1245 1456 l 1
 468 142 l 2
 461 131 455 122 450 116 c 0
 443 107 436 99 428 92 c 0
 405 71 380 52 353 38 c 0
 326 24 302 14 280 8 c 0
 261 3 238 1 213 0 c 0
 210 0 206 0 202 0 c 0
 172 0 146 5 122 15 c 0
 98 25 81 34 70 42 c 0
 59 50 45 64 26 82 c 1
 133 184 l 1
 148 170 l 1
 164 158 l 1
 182 146 l 1
 204 138 l 1
 231 135 l 1
 265 135 289 143 304 159 c 1
 642 748 l 1
 198 1456 l 1
EndSplineSet
EndChar

StartChar: afii10039
Encoding: 1061 1061 482
Width: 1214
Flags: HMW
LayerCount: 2
Fore
SplineSet
74 1456 m 0
 256 1456 l 0
 618 850 l 0
 973 1456 l 0
 1155 1456 l 0
 702 729 l 0
 1161 0 l 0
 971 0 l 0
 618 586 l 0
 258 0 l 0
 80 0 l 0
 535 729 l 0
 74 1456 l 0
EndSplineSet
EndChar

StartChar: afii10041
Encoding: 1063 1063 483
Width: 1024
Flags: HMW
LayerCount: 2
Fore
SplineSet
774 1456 m 0
 926 1456 l 0
 926 0 l 0
 774 0 l 0
 774 780 l 0
 755 721 718 670 664 630 c 0
 610 590 544 570 468 570 c 0
 413 570 364 581 320 603 c 0
 276 625 237 658 204 703 c 0
 171 748 144 806 126 878 c 0
 108 950 98 1035 98 1131 c 0
 98 1456 l 0
 249 1456 l 0
 249 1131 l 0
 249 1071 254 1016 264 966 c 0
 274 916 288 871 308 832 c 0
 328 793 356 762 390 740 c 0
 424 718 463 707 508 707 c 0
 553 707 594 718 628 741 c 0
 662 764 690 794 711 834 c 0
 732 874 748 919 758 969 c 0
 768 1019 774 1073 774 1132 c 0
 774 1456 l 0
EndSplineSet
EndChar

StartChar: afii10046
Encoding: 1068 1068 484
Width: 1099
Flags: HMW
LayerCount: 2
Fore
SplineSet
279 682 m 0
 279 141 l 0
 485 141 l 0
 550 141 608 146 656 158 c 0
 704 170 742 187 770 208 c 0
 798 229 818 251 833 274 c 0
 848 297 858 322 864 349 c 0
 868 366 870 386 870 409 c 0
 870 591 742 682 485 682 c 0
 279 682 l 0
121 0 m 0
 121 1456 l 0
 279 1456 l 0
 279 825 l 0
 485 825 l 0
 577 825 659 814 730 792 c 0
 801 770 858 740 901 702 c 0
 944 664 977 619 999 570 c 0
 1021 521 1032 467 1032 409 c 0
 1032 382 1029 354 1024 324 c 0
 1003 225 946 147 854 88 c 0
 762 29 638 0 485 0 c 0
 279 0 l 0
 121 0 l 0
EndSplineSet
EndChar

StartChar: afii10049
Encoding: 1071 1071 485
Width: 1204
Flags: HMW
LayerCount: 2
Fore
SplineSet
946 774 m 0
 946 1315 l 0
 740 1315 l 0
 607 1315 510 1291 448 1243 c 0
 386 1195 355 1130 355 1047 c 0
 355 1020 358 995 364 972 c 0
 370 949 380 924 397 899 c 0
 414 874 436 852 463 834 c 0
 490 816 528 802 575 791 c 0
 622 780 677 774 740 774 c 0
 946 774 l 0
302 0 m 0
 121 0 l 0
 555 648 l 0
 444 668 356 715 290 788 c 0
 224 861 191 948 191 1047 c 0
 191 1175 242 1276 344 1348 c 0
 446 1420 579 1456 740 1456 c 0
 946 1456 l 0
 1104 1456 l 0
 1104 0 l 0
 946 0 l 0
 946 631 l 0
 731 631 l 0
 302 0 l 0
EndSplineSet
EndChar

StartChar: afii10065
Encoding: 1072 1072 486
Width: 993
Flags: HMW
LayerCount: 2
Fore
SplineSet
510 582 m 0
 436 582 377 558 330 512 c 0
 283 466 260 410 260 344 c 0
 260 275 283 219 331 174 c 0
 379 129 438 106 510 106 c 0
 574 106 631 130 678 176 c 0
 725 222 748 278 748 344 c 0
 748 412 724 469 675 514 c 0
 626 559 571 582 510 582 c 0
478 717 m 0
 547 717 607 698 658 662 c 0
 709 626 738 592 746 559 c 0
 746 655 l 0
 746 750 725 824 683 876 c 0
 641 928 580 954 502 954 c 0
 456 954 413 946 372 932 c 0
 331 918 301 900 278 877 c 0
 200 981 l 0
 289 1054 389 1090 502 1090 c 0
 613 1090 705 1052 778 975 c 0
 851 898 887 792 887 655 c 0
 887 532 l 0
 887 0 l 0
 748 0 l 0
 748 156 l 0
 748 158 l 0
 747 145 739 128 725 108 c 0
 711 88 693 67 670 46 c 0
 647 25 619 8 584 -7 c 0
 549 -22 514 -29 478 -29 c 0
 370 -29 280 5 210 74 c 0
 140 143 106 233 106 344 c 0
 106 451 142 539 214 610 c 0
 286 681 374 717 478 717 c 0
EndSplineSet
EndChar

StartChar: afii10070
Encoding: 1077 1077 487
Width: 1013
Flags: HMW
LayerCount: 2
Fore
SplineSet
257 604 m 0
 779 604 l 0
 773 701 747 784 700 854 c 0
 653 924 593 958 518 958 c 0
 467 958 422 940 382 904 c 0
 342 868 313 824 293 772 c 0
 273 720 261 663 257 604 c 0
257 469 m 0
 262 405 275 346 295 293 c 0
 315 240 345 196 384 160 c 0
 423 124 467 106 518 106 c 0
 566 106 613 118 660 144 c 0
 707 170 742 203 763 243 c 0
 896 188 l 0
 862 122 810 69 740 30 c 0
 670 -9 597 -29 518 -29 c 0
 431 -29 356 -3 292 48 c 0
 228 99 178 166 146 251 c 0
 114 336 98 431 98 537 c 0
 98 643 114 738 147 821 c 0
 180 904 228 971 292 1020 c 0
 356 1069 431 1094 518 1094 c 0
 583 1094 641 1078 694 1048 c 0
 747 1018 789 978 822 928 c 0
 855 878 881 821 898 759 c 0
 915 697 924 632 924 565 c 0
 924 558 924 542 924 518 c 0
 924 494 925 477 925 469 c 0
 257 469 l 0
EndSplineSet
EndChar

StartChar: afii10076
Encoding: 1082 1082 488
Width: 962
Flags: HMW
LayerCount: 2
Fore
SplineSet
121 1072 m 1
 279 1072 l 1
 279 640 l 1
 696 1077 l 1
 882 1077 l 1
 376 540 l 1
 936 0 l 1
 720 0 l 1
 280 405 l 1
 279 0 l 1
 121 0 l 1
 121 1072 l 1
EndSplineSet
EndChar

StartChar: afii10080
Encoding: 1086 1086 489
Width: 1054
Flags: HMW
LayerCount: 2
Fore
SplineSet
90 537 m 0
 90 616 100 690 119 757 c 0
 138 824 165 884 201 934 c 0
 237 984 282 1024 338 1052 c 0
 394 1080 458 1094 528 1094 c 0
 620 1094 699 1069 766 1019 c 0
 833 969 883 903 915 820 c 0
 947 737 964 643 964 537 c 0
 964 430 948 334 916 250 c 0
 884 166 835 99 768 48 c 0
 701 -3 621 -29 528 -29 c 0
 435 -29 355 -3 288 48 c 0
 221 99 171 167 139 251 c 0
 107 335 90 430 90 537 c 0
244 537 m 0
 244 477 249 422 260 371 c 0
 271 320 288 274 310 234 c 0
 332 194 361 163 398 140 c 0
 435 117 479 106 528 106 c 0
 577 106 619 117 656 140 c 0
 693 163 722 194 744 234 c 0
 766 274 783 320 794 371 c 0
 805 422 810 477 810 537 c 0
 810 618 800 689 782 750 c 0
 764 811 733 861 690 900 c 0
 647 939 593 958 528 958 c 0
 463 958 407 939 364 900 c 0
 321 861 290 811 272 750 c 0
 254 689 244 618 244 537 c 0
EndSplineSet
EndChar

StartChar: afii10081
Encoding: 1087 1087 490
Width: 1064
Flags: HMW
LayerCount: 2
Fore
SplineSet
121 1074 m 1
 946 1074 l 1
 946 0 l 0
 788 0 l 0
 788 933 l 0
 279 933 l 0
 279 0 l 0
 121 0 l 0
 121 1074 l 1
EndSplineSet
EndChar

StartChar: afii10082
Encoding: 1088 1088 491
Width: 1044
Flags: HMW
LayerCount: 2
Fore
SplineSet
281 1073 m 0
 281 886 l 0
 294 916 308 942 324 966 c 0
 340 990 360 1012 383 1034 c 0
 406 1056 435 1072 468 1084 c 0
 501 1096 539 1102 580 1102 c 0
 647 1102 707 1087 759 1056 c 0
 811 1025 852 982 883 928 c 0
 914 874 937 816 952 750 c 0
 967 684 975 614 975 539 c 0
 975 465 967 396 952 330 c 0
 937 264 914 204 883 149 c 0
 852 94 810 51 758 19 c 0
 706 -13 646 -29 578 -29 c 0
 537 -29 499 -24 466 -12 c 0
 433 0 404 17 381 38 c 0
 358 59 339 81 324 104 c 0
 309 127 294 154 281 184 c 0
 281 -396 l 0
 129 -396 l 0
 129 1073 l 0
 281 1073 l 0
821 539 m 0
 821 672 795 776 744 852 c 0
 693 928 629 966 552 966 c 0
 475 966 409 928 356 851 c 0
 303 774 276 670 276 537 c 0
 276 405 303 300 356 222 c 0
 409 144 475 106 552 106 c 0
 629 106 693 144 744 222 c 0
 795 300 821 406 821 539 c 0
EndSplineSet
EndChar

StartChar: afii10083
Encoding: 1089 1089 492
Width: 921
Flags: HMW
LayerCount: 2
Fore
SplineSet
770 809 m 0
 758 842 732 875 692 908 c 0
 652 941 609 958 562 958 c 0
 477 958 404 918 344 838 c 0
 284 758 254 658 254 537 c 0
 254 408 283 303 342 224 c 0
 401 145 473 106 560 106 c 0
 589 106 616 112 642 124 c 0
 668 136 691 150 709 168 c 0
 727 186 741 203 752 219 c 0
 763 235 772 250 779 264 c 0
 901 187 l 0
 885 160 866 134 845 110 c 0
 824 86 798 64 770 42 c 0
 742 20 710 3 674 -10 c 0
 638 -23 599 -29 560 -29 c 0
 473 -29 394 -4 324 47 c 0
 254 98 199 166 160 252 c 0
 121 338 101 434 101 537 c 0
 101 594 108 650 121 704 c 0
 134 758 154 809 181 856 c 0
 208 903 240 945 276 980 c 0
 312 1015 355 1044 404 1064 c 0
 453 1084 506 1094 562 1094 c 0
 638 1094 705 1074 762 1033 c 0
 819 992 865 940 901 875 c 0
 770 809 l 0
EndSplineSet
EndChar

StartChar: afii10085
Encoding: 1091 1091 493
Width: 1064
Flags: HMW
LayerCount: 2
Fore
SplineSet
82 1073 m 1
 242 1073 l 1
 522 195 l 1
 809 1073 l 1
 967 1073 l 1
 516 -241 l 2
 515 -245 508 -254 498 -267 c 0
 491 -276 484 -285 476 -292 c 0
 453 -313 428 -330 401 -344 c 0
 374 -358 350 -368 328 -374 c 0
 309 -379 286 -382 261 -383 c 0
 258 -383 254 -383 250 -383 c 0
 220 -383 194 -378 170 -368 c 0
 146 -358 129 -348 118 -340 c 0
 107 -332 93 -319 74 -301 c 1
 181 -199 l 1
 196 -212 l 1
 212 -226 l 1
 230 -237 l 1
 252 -245 l 1
 279 -248 l 1
 313 -248 337 -240 352 -224 c 1
 446 0 l 1
 82 1073 l 1
EndSplineSet
EndChar

StartChar: afii10087
Encoding: 1093 1093 494
Width: 901
Flags: HMW
LayerCount: 2
Fore
SplineSet
870 0 m 0
 700 0 l 0
 459 440 l 0
 229 0 l 0
 53 0 l 0
 367 539 l 0
 55 1073 l 0
 225 1073 l 0
 459 639 l 0
 692 1073 l 0
 862 1073 l 0
 551 543 l 0
 870 0 l 0
EndSplineSet
EndChar

StartChar: afii10110
Encoding: 1118 1118 495
Width: 1064
Flags: HMW
LayerCount: 2
Fore
SplineSet
548 1324 m 1
 585 1326 615 1335 638 1350 c 0
 677 1378 720 1433 766 1514 c 1
 846 1514 l 0
 846 1511 846 1507 846 1504 c 0
 846 1459 824 1399 780 1325 c 8
 757 1287 723 1255 676 1228 c 24
 632 1203 587 1190 543 1190 c 24
 499 1190 454 1203 410 1228 c 24
 363 1255 329 1287 306 1325 c 16
 262 1399 240 1459 240 1504 c 0
 240 1507 240 1511 240 1514 c 0
 321 1514 l 1
 354 1439 396 1385 448 1350 c 0
 473 1334 507 1325 548 1324 c 1
EndSplineSet
Refer: 493 1091 N 1 0 0 1 0 0 2
EndChar

StartChar: afii10057
Encoding: 1032 1032 504
Width: 1140
Flags: HMW
LayerCount: 2
Fore
SplineSet
113 535 m 1
 254 535 l 1
 254 500 258 465 265 430 c 0
 283 344 319 271 373 211 c 0
 427 151 491 121 565 121 c 0
 626 121 680 142 728 184 c 0
 776 226 812 277 835 339 c 0
 858 401 870 466 870 535 c 2
 870 1314 l 1
 526 1314 l 1
 526 1456 l 1
 1028 1456 l 1
 1028 1314 l 1
 1028 535 l 2
 1028 371 985 236 899 130 c 0
 813 24 702 -29 565 -29 c 0
 455 -29 362 8 284 84 c 0
 206 160 154 258 129 378 c 0
 118 425 113 478 113 535 c 1
EndSplineSet
EndChar

StartChar: afii10044
Encoding: 1066 1066 505
Width: 1271
Flags: HMW
LayerCount: 2
Fore
SplineSet
260 0 m 1
 260 1314 l 1
 40 1314 l 1
 40 1456 l 1
 407 1456 l 1
 418 1456 l 1
 418 825 l 1
 624 825 l 2
 716 825 797 814 868 792 c 0
 939 770 997 740 1040 702 c 0
 1083 664 1116 619 1138 570 c 0
 1160 521 1171 467 1171 409 c 0
 1171 382 1168 354 1163 324 c 1
 1142 225 1084 147 992 88 c 0
 900 29 777 0 624 0 c 2
 418 0 l 1
 260 0 l 1
418 682 m 1
 418 141 l 1
 624 141 l 2
 689 141 746 146 794 158 c 0
 842 170 880 187 908 208 c 0
 936 229 957 251 972 274 c 0
 987 297 997 322 1003 349 c 0
 1007 366 1009 386 1009 409 c 0
 1009 591 881 682 624 682 c 2
 418 682 l 1
EndSplineSet
EndChar

StartChar: afii10045
Encoding: 1067 1067 506
Width: 1199
Flags: HMW
LayerCount: 2
Fore
SplineSet
942 0 m 0
 942 1456 l 0
 1099 1456 l 0
 1099 0 l 0
 942 0 l 0
279 682 m 0
 279 141 l 0
 303 141 l 0
 368 141 426 146 474 158 c 0
 522 170 560 187 588 208 c 0
 616 229 636 251 651 274 c 0
 666 297 676 322 682 349 c 0
 686 366 688 386 688 409 c 0
 688 591 560 682 303 682 c 0
 279 682 l 0
121 0 m 0
 121 1456 l 0
 279 1456 l 0
 279 825 l 0
 303 825 l 0
 395 825 477 814 548 792 c 0
 619 770 676 740 719 702 c 0
 762 664 795 619 817 570 c 0
 839 521 850 467 850 409 c 0
 850 378 847 350 842 324 c 0
 822 226 765 147 672 88 c 0
 580 29 456 0 303 0 c 0
 279 0 l 0
 121 0 l 0
EndSplineSet
EndChar

StartChar: afii10020
Encoding: 1043 1043 508
Width: 1098
Flags: HMW
LayerCount: 2
Fore
SplineSet
92 1456 m 1
 1006 1456 l 1
 1006 1315 l 1
 250 1315 l 1
 250 0 l 0
 92 0 l 0
 92 1456 l 1
EndSplineSet
EndChar

StartChar: afii10073
Encoding: 1079 1079 509
Width: 930
Flags: HMW
LayerCount: 2
Fore
SplineSet
97 195 m 0
 214 233 l 0
 233 198 263 168 303 146 c 0
 343 124 383 113 425 113 c 0
 495 113 554 132 603 168 c 0
 652 204 676 252 676 313 c 0
 676 344 667 373 648 399 c 0
 631 425 610 445 582 461 c 0
 559 477 533 489 505 498 c 0
 477 507 448 511 418 511 c 0
 361 511 l 0
 361 636 l 0
 432 636 l 0
 479 636 521 651 556 683 c 0
 591 715 608 755 608 803 c 0
 608 846 590 883 554 913 c 0
 518 943 477 959 431 959 c 0
 427 959 l 0
 388 959 354 950 324 932 c 0
 294 914 272 888 256 857 c 0
 155 909 l 0
 183 966 224 1011 276 1046 c 0
 328 1081 386 1098 451 1098 c 0
 504 1098 555 1086 603 1063 c 0
 651 1040 689 1007 720 963 c 0
 751 919 766 871 766 817 c 0
 766 777 755 739 734 704 c 0
 713 669 690 642 665 623 c 0
 640 604 615 590 590 580 c 0
 615 575 641 564 668 548 c 0
 695 532 721 513 746 490 c 0
 771 467 791 439 808 407 c 0
 825 375 833 341 833 306 c 0
 833 209 796 129 721 66 c 0
 646 3 553 -29 443 -29 c 0
 376 -29 310 -9 242 32 c 0
 174 73 126 127 97 195 c 0
EndSplineSet
EndChar

StartChar: afii10074
Encoding: 1080 1080 510
Width: 1064
Flags: HMW
LayerCount: 2
Fore
SplineSet
122 1074 m 0
 278 1074 l 0
 278 272 l 0
 790 1074 l 0
 942 1074 l 0
 942 0 l 0
 802 0 l 0
 802 812 l 0
 274 0 l 0
 122 0 l 0
 122 1074 l 0
EndSplineSet
EndChar

StartChar: afii10075
Encoding: 1081 1081 511
Width: 1064
Flags: HMW
LayerCount: 2
Fore
SplineSet
548 1324 m 1
 585 1326 615 1335 638 1350 c 0
 677 1378 720 1433 766 1514 c 1
 846 1514 l 0
 846 1511 846 1507 846 1504 c 0
 846 1459 824 1399 780 1325 c 8
 757 1287 723 1255 676 1228 c 24
 632 1203 587 1190 543 1190 c 24
 499 1190 454 1203 410 1228 c 24
 363 1255 329 1287 306 1325 c 16
 262 1399 240 1459 240 1504 c 0
 240 1507 240 1511 240 1514 c 0
 321 1514 l 1
 354 1439 396 1385 448 1350 c 0
 473 1334 507 1325 548 1324 c 1
EndSplineSet
Refer: 510 1080 N 1 0 0 1 0 0 2
EndChar

StartChar: afii10078
Encoding: 1084 1084 512
Width: 1174
Flags: HMW
LayerCount: 2
Fore
SplineSet
98 0 m 0
 98 1074 l 0
 254 1074 l 0
 590 210 l 0
 925 1074 l 0
 1076 1074 l 0
 1076 0 l 0
 925 0 l 0
 925 732 l 0
 652 0 l 0
 522 0 l 0
 249 732 l 0
 249 0 l 0
 98 0 l 0
EndSplineSet
EndChar

StartChar: afii10079
Encoding: 1085 1085 513
Width: 918
Flags: HMW
LayerCount: 2
Fore
SplineSet
102 1074 m 0
 253 1074 l 0
 253 603 l 0
 663 604 l 0
 663 1075 l 0
 816 1074 l 0
 816 0 l 0
 663 1 l 0
 663 467 l 0
 253 467 l 0
 253 0 l 0
 102 0 l 0
 102 1074 l 0
EndSplineSet
EndChar

StartChar: afii10068
Encoding: 1075 1075 516
Width: 828
Flags: HMW
LayerCount: 2
Fore
SplineSet
734 938 m 0
 245 938 l 0
 245 0 l 0
 94 0 l 0
 94 1074 l 1
 734 1074 l 1
 734 938 l 0
EndSplineSet
EndChar

StartChar: afii10048
Encoding: 1070 1070 517
Width: 1529
Flags: HMW
LayerCount: 2
Fore
SplineSet
125 0 m 1
 125 1514 l 1
 282 1514 l 1
 282 817 l 1
 379 817 l 1
 382 862 386 906 393 948 c 0
 404 1017 424 1085 451 1154 c 0
 478 1223 511 1283 550 1336 c 0
 589 1389 639 1431 700 1464 c 0
 761 1497 828 1514 902 1514 c 0
 975 1514 1041 1499 1100 1468 c 0
 1159 1437 1209 1395 1249 1342 c 0
 1289 1289 1322 1232 1348 1170 c 0
 1381 1092 1400 1025 1407 969 c 1
 1421 905 1429 826 1429 732 c 0
 1429 665 1423 598 1411 531 c 0
 1399 464 1380 396 1353 329 c 0
 1326 262 1293 202 1254 151 c 0
 1215 100 1165 58 1104 26 c 0
 1043 -6 976 -22 902 -22 c 0
 830 -22 763 -7 704 23 c 0
 645 53 595 94 555 146 c 0
 515 198 482 255 456 316 c 0
 430 377 411 443 397 515 c 0
 387 568 380 622 377 676 c 1
 282 676 l 1
 282 0 l 1
 125 0 l 1
1280 732 m 0
 1280 819 1273 898 1259 971 c 0
 1248 1026 1233 1077 1215 1123 c 0
 1197 1169 1174 1211 1146 1250 c 0
 1118 1289 1082 1318 1041 1340 c 0
 1000 1362 954 1373 902 1373 c 0
 846 1373 795 1360 751 1333 c 0
 707 1306 671 1272 643 1230 c 0
 615 1188 592 1138 574 1082 c 0
 567 1061 555 1005 536 914 c 1
 529 848 525 787 525 732 c 0
 525 658 532 585 545 514 c 0
 555 459 570 409 588 364 c 0
 606 319 630 278 658 240 c 0
 686 202 721 173 763 152 c 0
 805 131 851 120 902 120 c 0
 958 120 1008 132 1052 158 c 0
 1096 184 1132 217 1160 258 c 0
 1188 299 1210 346 1229 401 c 0
 1248 456 1260 510 1268 565 c 0
 1276 620 1280 675 1280 732 c 0
EndSplineSet
EndChar

StartChar: afii10096
Encoding: 1102 1102 518
Width: 1498
Flags: HMW
LayerCount: 2
Fore
SplineSet
97 0 m 1
 97 1105 l 1
 254 1105 l 1
 254 596 l 1
 351 596 l 1
 354 629 358 661 365 692 c 0
 376 742 396 792 423 842 c 0
 450 892 483 937 522 975 c 0
 561 1013 611 1045 672 1069 c 0
 733 1093 800 1105 874 1105 c 0
 947 1105 1013 1094 1072 1072 c 0
 1131 1050 1181 1019 1221 980 c 0
 1261 941 1294 899 1320 854 c 0
 1353 797 1372 748 1379 707 c 1
 1393 660 1401 603 1401 534 c 0
 1401 485 1395 437 1383 388 c 0
 1371 339 1352 289 1325 240 c 0
 1298 191 1265 147 1226 110 c 0
 1187 73 1137 42 1076 19 c 0
 1015 -4 948 -16 874 -16 c 0
 802 -16 735 -5 676 17 c 0
 617 39 567 69 527 107 c 0
 487 145 454 186 428 231 c 0
 402 276 383 324 369 376 c 0
 359 415 352 453 349 493 c 1
 254 493 l 1
 254 0 l 1
 97 0 l 1
1252 534 m 0
 1252 597 1245 656 1231 709 c 0
 1220 749 1205 786 1187 820 c 0
 1169 854 1146 884 1118 912 c 0
 1090 940 1054 963 1013 979 c 0
 972 995 926 1002 874 1002 c 0
 818 1002 767 992 723 973 c 0
 679 954 643 929 615 898 c 0
 587 867 564 830 546 789 c 0
 539 774 527 733 508 667 c 1
 501 619 497 574 497 534 c 0
 497 480 504 427 517 375 c 0
 527 335 542 299 560 266 c 0
 578 233 602 203 630 176 c 0
 658 149 693 127 735 111 c 0
 777 95 823 88 874 88 c 0
 930 88 980 97 1024 116 c 0
 1068 135 1104 158 1132 188 c 0
 1160 218 1182 253 1201 293 c 0
 1220 333 1232 372 1240 412 c 0
 1248 452 1252 493 1252 534 c 0
EndSplineSet
EndChar

StartChar: afii10066
Encoding: 1073 1073 519
Width: 1054
Flags: HMW
LayerCount: 2
Fore
SplineSet
244 537 m 0
 244 477 249 422 260 371 c 0
 271 320 288 274 310 234 c 0
 332 194 361 163 398 140 c 0
 435 117 479 106 528 106 c 0
 577 106 619 117 656 140 c 0
 693 163 722 194 744 234 c 0
 766 274 783 320 794 371 c 0
 805 422 810 477 810 537 c 0
 810 618 800 689 782 750 c 0
 764 811 733 861 690 900 c 0
 647 939 593 958 528 958 c 0
 463 958 407 939 364 900 c 0
 321 861 290 811 272 750 c 0
 254 689 244 618 244 537 c 0
677 1312 m 1
 624 1351 567 1371 506 1371 c 0
 437 1371 375 1347 322 1298 c 0
 269 1249 243 1180 243 1091 c 2
 243 1058 l 1
 243 983 l 1
 271 1010 302 1034 338 1052 c 0
 394 1080 458 1094 528 1094 c 0
 620 1094 699 1069 766 1019 c 0
 833 969 883 903 915 820 c 0
 947 737 964 643 964 537 c 0
 964 430 948 334 916 250 c 0
 884 166 835 99 768 48 c 0
 701 -3 621 -29 528 -29 c 0
 435 -29 355 -3 288 48 c 0
 221 99 171 167 139 251 c 0
 107 335 90 430 90 537 c 2
 91 1076 l 2
 91 1142 103 1203 126 1258 c 0
 149 1313 180 1358 218 1394 c 0
 256 1430 300 1458 348 1478 c 0
 396 1498 446 1507 497 1507 c 0
 558 1507 614 1496 666 1474 c 0
 718 1452 762 1424 796 1390 c 1
 677 1312 l 1
EndSplineSet
EndChar

StartChar: afii10018
Encoding: 1041 1041 520
Width: 1098
Flags: HMW
LayerCount: 2
Fore
SplineSet
94 0 m 1
 94 1456 l 1
 252 1456 l 1
 930 1456 l 1
 930 1315 l 1
 252 1315 l 1
 252 825 l 1
 458 825 l 2
 550 825 631 814 702 792 c 0
 773 770 831 740 874 702 c 0
 917 664 950 619 972 570 c 0
 994 521 1004 467 1004 409 c 0
 1004 382 1001 354 996 324 c 1
 975 225 918 147 826 88 c 0
 734 29 611 0 458 0 c 2
 252 0 l 1
 94 0 l 1
252 682 m 1
 252 141 l 1
 458 141 l 2
 523 141 580 146 628 158 c 0
 676 170 714 187 742 208 c 0
 770 229 791 251 806 274 c 0
 821 297 830 322 836 349 c 0
 840 366 842 386 842 409 c 0
 842 591 715 682 458 682 c 2
 252 682 l 1
EndSplineSet
EndChar

StartChar: afii10040
Encoding: 1062 1062 521
Width: 1450
Flags: HMW
LayerCount: 2
Fore
SplineSet
1340 142 m 1
 1340 -208 l 1
 1198 -208 l 1
 1198 0 l 1
 121 0 l 1
 121 1456 l 1
 279 1456 l 1
 279 141 l 1
 940 141 l 1
 940 1456 l 1
 1098 1456 l 1
 1098 142 l 1
 1340 142 l 1
EndSplineSet
EndChar

StartChar: afii10042
Encoding: 1064 1064 522
Width: 1560
Flags: HMW
LayerCount: 2
Fore
SplineSet
1460 142 m 1
 1460 0 l 1
 121 0 l 1
 121 1456 l 1
 279 1456 l 1
 279 141 l 1
 711 141 l 1
 711 1456 l 1
 712 1456 l 1
 869 1456 l 1
 870 1456 l 1
 870 142 l 1
 1302 141 l 1
 1302 1456 l 1
 1460 1456 l 1
 1460 142 l 1
EndSplineSet
EndChar

StartChar: afii10043
Encoding: 1065 1065 523
Width: 1802
Flags: HMW
LayerCount: 2
Fore
SplineSet
1702 142 m 1
 1702 -208 l 1
 1560 -208 l 1
 1560 0 l 1
 121 0 l 1
 121 1456 l 1
 279 1456 l 1
 279 141 l 1
 711 141 l 1
 711 1456 l 1
 712 1456 l 1
 869 1456 l 1
 870 1456 l 1
 870 142 l 1
 1302 141 l 1
 1302 1456 l 1
 1460 1456 l 1
 1460 142 l 1
 1702 142 l 1
EndSplineSet
EndChar

StartChar: afii10102
Encoding: 1109 1109 525
Width: 921
Flags: HMW
LayerCount: 2
Fore
SplineSet
469 477 m 0
 429 490 395 502 368 513 c 0
 341 524 310 539 276 558 c 0
 242 577 216 598 195 620 c 0
 174 642 156 668 142 701 c 0
 128 734 121 770 121 809 c 0
 121 900 154 971 221 1021 c 0
 288 1071 370 1097 469 1098 c 0
 523 1098 572 1091 616 1076 c 0
 660 1061 695 1041 722 1016 c 0
 749 991 771 968 787 944 c 0
 803 920 815 896 823 871 c 0
 677 841 l 0
 641 922 572 963 471 963 c 0
 418 963 371 950 332 924 c 0
 293 898 274 860 274 813 c 0
 274 789 278 767 288 747 c 0
 298 727 311 711 326 699 c 0
 341 687 356 676 374 666 c 0
 392 656 409 648 426 643 c 0
 443 638 458 633 471 627 c 0
 479 624 493 620 514 612 c 0
 563 594 l 0
 612 575 l 0
 662 552 l 0
 707 525 l 0
 750 492 l 0
 786 453 l 0
 816 406 l 0
 833 352 l 0
 840 287 l 0
 840 196 804 120 732 60 c 0
 660 0 574 -29 473 -29 c 0
 372 -29 290 -7 228 38 c 0
 166 83 121 142 96 217 c 0
 243 245 l 0
 263 200 290 166 325 142 c 0
 360 118 408 106 469 106 c 0
 536 106 589 122 628 154 c 0
 667 186 686 230 686 287 c 0
 686 314 680 338 667 359 c 0
 654 380 636 399 612 414 c 0
 588 429 567 441 546 450 c 0
 525 459 499 468 469 477 c 0
EndSplineSet
EndChar

StartChar: afii10193
Encoding: 1119 1119 526
Width: 1064
Flags: HMW
LayerCount: 2
Fore
SplineSet
473 0 m 1
 121 1 l 1
 121 1074 l 1
 279 1074 l 1
 279 141 l 1
 788 141 l 1
 788 1074 l 1
 946 1074 l 1
 946 0 l 1
 615 0 l 1
 615 -214 l 1
 473 -214 l 1
 473 0 l 1
EndSplineSet
EndChar

StartChar: afii10145
Encoding: 1039 1039 527
Width: 1093
Flags: HMW
LayerCount: 2
Fore
SplineSet
643 0 m 1
 643 -214 l 1
 501 -214 l 1
 501 0 l 1
 58 1 l 1
 58 1456 l 1
 216 1456 l 1
 216 141 l 1
 877 141 l 1
 877 1456 l 1
 1035 1456 l 1
 1035 1 l 1
 643 0 l 1
EndSplineSet
EndChar

StartChar: afii10024
Encoding: 1046 1046 528
Width: 1466
Flags: HMW
LayerCount: 2
Fore
SplineSet
254 0 m 1
 76 0 l 1
 496 669 l 1
 496 811 l 1
 76 1459 l 1
 258 1459 l 1
 654 842 l 1
 654 1456 l 1
 811 1456 l 1
 811 842 l 1
 1208 1459 l 1
 1390 1459 l 1
 970 811 l 1
 970 669 l 1
 1390 0 l 1
 1212 0 l 1
 811 631 l 1
 811 0 l 1
 654 0 l 1
 654 631 l 1
 254 0 l 1
EndSplineSet
EndChar

StartChar: afii10029
Encoding: 1051 1051 529
Width: 1144
Flags: HMW
LayerCount: 2
Fore
SplineSet
541 1456 m 1
 1060 1456 l 1
 1060 0 l 1
 902 0 l 1
 902 1315 l 1
 694 1315 l 1
 543 289 l 2
 534 226 526 188 520 174 c 0
 505 140 486 113 463 92 c 0
 440 71 415 52 388 38 c 0
 361 24 337 14 315 8 c 0
 293 2 274 0 258 0 c 0
 230 0 204 5 180 15 c 0
 156 25 139 34 128 42 c 0
 117 50 103 64 84 82 c 1
 191 184 l 1
 206 170 l 1
 222 158 l 1
 240 146 l 1
 262 138 l 1
 289 135 l 1
 347 135 381 176 391 258 c 2
 541 1456 l 1
EndSplineSet
EndChar

StartChar: afii10077
Encoding: 1083 1083 530
Width: 962
Flags: HMW
LayerCount: 2
Fore
SplineSet
454 1074 m 1
 893 1074 l 1
 893 0 l 1
 735 0 l 1
 735 933 l 1
 605 933 l 1
 528 289 l 2
 521 232 513 193 505 174 c 0
 490 140 471 113 448 92 c 0
 425 71 401 52 374 38 c 0
 347 24 322 14 300 8 c 0
 278 2 259 0 243 0 c 0
 215 0 189 5 165 15 c 0
 141 25 124 34 113 42 c 0
 102 50 88 64 69 82 c 1
 176 184 l 1
 191 170 l 1
 207 158 l 1
 226 146 l 1
 248 138 l 1
 274 135 l 1
 334 135 368 176 376 258 c 2
 454 1074 l 1
EndSplineSet
EndChar

StartChar: afii10090
Encoding: 1096 1096 531
Width: 1533
Flags: HMW
LayerCount: 2
Fore
SplineSet
1433 0 m 1
 125 0 l 1
 125 1075 l 1
 283 1075 l 1
 283 141 l 1
 699 140 l 1
 699 1074 l 1
 700 1074 l 1
 857 1074 l 1
 858 1074 l 1
 858 141 l 1
 1273 140 l 1
 1273 1074 l 1
 1433 1074 l 1
 1433 0 l 1
EndSplineSet
EndChar

StartChar: afii10091
Encoding: 1097 1097 532
Width: 1773
Flags: HMW
LayerCount: 2
Fore
SplineSet
1673 141 m 1
 1673 -209 l 1
 1531 -209 l 1
 1531 -1 l 1
 125 0 l 1
 125 1075 l 1
 283 1075 l 1
 283 141 l 1
 699 140 l 1
 699 1074 l 1
 700 1074 l 1
 857 1074 l 1
 858 1074 l 1
 858 141 l 1
 1273 140 l 1
 1273 1074 l 1
 1431 1074 l 1
 1431 141 l 1
 1673 141 l 1
EndSplineSet
EndChar

StartChar: afii10088
Encoding: 1094 1094 533
Width: 1288
Flags: HMW
LayerCount: 2
Fore
SplineSet
1188 142 m 1
 1188 -208 l 1
 1046 -208 l 1
 1046 0 l 1
 121 0 l 1
 121 1074 l 1
 279 1074 l 1
 279 141 l 1
 788 141 l 1
 788 1074 l 1
 946 1074 l 1
 946 142 l 1
 1188 142 l 1
EndSplineSet
EndChar

StartChar: afii10089
Encoding: 1095 1095 534
Width: 1064
Flags: HMW
LayerCount: 2
Fore
SplineSet
804 1074 m 0
 956 1074 l 0
 956 0 l 0
 804 0 l 0
 804 564 l 0
 785 505 748 454 694 414 c 0
 640 374 575 354 499 354 c 0
 444 354 394 365 350 387 c 0
 306 409 267 442 234 487 c 0
 201 532 174 590 156 662 c 0
 138 734 129 819 129 915 c 0
 129 1074 l 0
 280 1074 l 0
 280 915 l 0
 280 855 284 800 294 750 c 0
 304 700 319 655 339 616 c 0
 359 577 386 546 420 524 c 0
 454 502 494 491 539 491 c 0
 584 491 624 502 658 525 c 0
 692 548 721 578 742 618 c 0
 763 658 778 703 788 753 c 0
 798 803 804 857 804 916 c 0
 804 1074 l 0
EndSplineSet
EndChar

StartChar: afii10097
Encoding: 1103 1103 535
Width: 921
Flags: HMW
LayerCount: 2
Fore
SplineSet
687 570 m 1
 687 954 l 1
 451 954 333 890 333 762 c 3
 333 634 451 570 687 570 c 1
685 437 m 1
 652 437 602 443 537 454 c 1
 298 0 l 1
 117 0 l 1
 373 500 l 1
 322 522 281 548 250 579 c 0
 199 628 174 687 174 755 c 0
 174 822 200 881 251 930 c 0
 351 1026 496 1074 685 1074 c 2
 843 1074 l 1
 843 0 l 1
 685 0 l 1
 685 437 l 1
EndSplineSet
EndChar

StartChar: afii10084
Encoding: 1090 1090 536
Width: 989
Flags: HMW
LayerCount: 2
Fore
SplineSet
82 1074 m 0
 907 1074 l 0
 907 933 l 0
 579 933 l 0
 579 0 l 0
 421 0 l 0
 420 933 l 0
 82 933 l 0
 82 1074 l 0
EndSplineSet
EndChar

StartChar: afii10086
Encoding: 1092 1092 537
Width: 1328
Flags: HMW
LayerCount: 2
Fore
SplineSet
954 873 m 0
 904 923 832 958 739 977 c 1
 739 100 l 1
 810 115 881 157 953 225 c 1
 1040 314 1085 422 1086 550 c 0
 1086 552 1086 553 1086 555 c 0
 1086 680 1042 786 954 873 c 0
562 -396 m 1
 562 -11 l 1
 449 8 350 60 266 144 c 0
 157 253 102 387 102 544 c 1
 100 546 l 1
 100 702 155 835 266 946 c 0
 352 1032 451 1083 562 1098 c 1
 562 1454 l 1
 741 1454 l 1
 741 1096 l 1
 852 1082 938 1047 998 992 c 1
 1046 957 1087 916 1120 870 c 1
 1187 798 1223 686 1228 535 c 0
 1228 528 1228 521 1228 514 c 0
 1228 371 1176 248 1070 144 c 0
 977 52 867 -2 741 -16 c 1
 741 -396 l 1
 562 -396 l 1
562 977 m 1
 487 971 421 940 363 882 c 0
 289 805 252 693 252 544 c 0
 252 420 297 313 386 224 c 0
 440 170 498 132 562 108 c 1
 562 977 l 1
EndSplineSet
EndChar

